<?xml version="1.0" encoding="UTF-8"?>
<svg id="Layer_2" data-name="Layer 2" xmlns="http://www.w3.org/2000/svg" viewBox="0 0 2684.8 1063.16">
  <defs>
    <style>
      .cls-1, .cls-2 {
        fill: #fff;
      }

      .cls-3 {
        fill: #c62828;
      }

      .cls-2 {
        stroke: #c62828;
        stroke-miterlimit: 10;
        stroke-width: 29px;
      }
    </style>
  </defs>
  <g id="Layer_1-2" data-name="Layer 1">
    <g>
      <rect class="cls-2" x="548.05" y="180.73" width="2122.25" height="767.17"/>
      <g>
        <path class="cls-3" d="m387.14,1063.16C158.43,956,0,723.85,0,454.62V92.2C223.36,92.2,387.14,0,387.14,0c0,0,163.83,92.2,387.15,92.2v362.43c0,269.23-158.43,501.36-387.12,608.53h-.03Z"/>
        <path class="cls-1" d="m387.14,1043.8C169.88,940.55,19.39,716.85,19.39,457.43V108.2c212.17,0,367.75-88.84,367.75-88.84,0,0,155.62,88.84,367.77,88.84v349.23c0,259.42-150.5,483.11-367.74,586.37h-.03Z"/>
        <path class="cls-3" d="m387.14,1008.97C189.48,912.74,52.56,704.25,52.56,462.47V136.98c193.03,0,334.58-82.8,334.58-82.8,0,0,141.59,82.8,334.59,82.8v325.48c0,241.78-136.92,450.26-334.57,546.5h-.03Z"/>
        <g>
          <path class="cls-1" d="m99.19,246.84s48.08,78.31,48.13,81.17c.22,14.05,0,53.05,0,51.39,0,0,1.99,14.82-11.15,18.17v2.85h56.16v-2.85s-11.38-1.76-11.38-18.5c0-14.55.13-42.62.16-49.72,0-1.1.29-2.15.85-3.09,6.21-10.52,44.7-75.66,47.78-79.42,1.76-1.67,4.35-1.42,4.35-1.42v-4.69h-47.62v5.61s5.61-.25,5.61,2.85c-1.09,4.1-27.7,50.55-27.7,50.55-5.44-9.17-21.31-42.12-24.71-49.2-.61-1.27-.11-2.81,1.16-3.44.82-.4,2-.74,3.72-.84-.08-3.18.08-5.52.08-5.52h-50.13v4.35s3.64.02,4.7,1.75Z"/>
          <path class="cls-1" d="m232.98,400.48v-2.78s10.93-3.18,11.2-8.85c.28-5.67,0-161.85,0-161.85l109.14,114.12v-86.04s-.41-9.82-8.44-9.54l.14-4.56h47.72v4.84s-11.07.28-11.2,9.27c-.14,8.99,0,159.08,0,159.08l-106.65-114.68v86.87s1.83,8.63,11.33,11.34c0,1.91.06,2.78.06,2.78h-53.3Z"/>
          <g>
            <path class="cls-1" d="m459.73,284.17s0,0-.01,0c-.41-.13-.84.12-.96.56-.56,1.92-1.98,3.42-3.8,4.01-3.03.99-6.26-.8-7.19-4.01,0,0,0,0,0,0-.13-.44-.57-.68-.98-.55-.41.14-.65.6-.52,1.04.72,2.42,2.51,4.32,4.81,5.07,3.87,1.28,7.98-.99,9.19-5.07,0,0,0,0,0,0,.13-.44-.11-.9-.53-1.03Z"/>
            <path class="cls-1" d="m481.45,290.02c-.42-.1-.84.18-.94.62-.46,1.57-1.62,2.8-3.11,3.28-2.48.81-5.12-.66-5.88-3.28,0-.04-.02-.08-.03-.11-.16-.43-.61-.64-1.02-.47-.4.17-.61.65-.45,1.07.62,2.06,2.15,3.67,4.09,4.32,3.31,1.11,6.84-.83,7.89-4.32.01-.04.02-.07.03-.11.1-.45-.17-.89-.59-1Z"/>
            <path class="cls-1" d="m467.97,328.98c.43,0,.79-.37.79-.83v-4.03c0-.46-.35-.83-.79-.83s-.79.37-.79.83v4.03c0,.46.35.83.79.83Z"/>
            <path class="cls-1" d="m512.74,276.96c-9.14-12.94-21.5-22.47-37.12-28.6-7-2.66-15.16-5.21-23.71-6.44-7.19-1.04-9.18-1.16-17.02-1.17h-.03s-2.21,0-2.21,0h-31l-.12,4.57c6.6-.28,6.95,9.55,6.95,9.55v131.48s-.35,9.81-6.95,9.53l.12,4.57h32.93l.06-.04c1.59-.03,3.14-.07,4.66-.13,9.27-.31,17.26-1.09,23.9-2.41,8.85-1.71,16.77-4.43,23.71-8.15,12.53-6.78,22.23-16.25,29.17-28.35,6.9-12.07,10.36-25.72,10.36-40.9,0-16.02-4.57-30.51-13.68-43.48Zm-27.26,85.24c0,5.45-12.36,8.19-24.74,8.19s-24.74-2.73-24.74-8.19v-57.8c1.51,1.05,3.22,1.74,5.01,2.02v50.23c0,4.89,10.58,6.64,19.66,6.64s19.79-1.7,19.79-6.64v-52.71h.07c1.72,0,3.41-.42,4.95-1.23v59.48Zm-31.75-24.79c2.67.13,4.94-2.05,5.06-4.87v-27.06c1.97-.39,3.79-1.37,5.24-2.83.9.95,1.97,1.7,3.14,2.21v13.53c0,.46.35.83.79.83s.79-.37.79-.83v-13.04c1.23.27,2.5.27,3.73,0v31.85c0,.46.35.83.79.83s.79-.37.79-.83v-32.32c.95-.4,1.84-.95,2.62-1.65.72.27,1.46.47,2.21.59v52.84c0,2.81-8,5.02-18.22,5.02s-18.08-2.2-18.08-5.02v-50.05h.35c2.17,0,4.31-.58,6.2-1.71v27.65c.12,2.64,2.11,4.74,4.61,4.87Zm26.8-35.14c-1.45,0-2.89-.34-4.19-1.01-.43.48-.91.91-1.44,1.27-3.64,2.49-8.51,1.4-10.87-2.44-1.56,2.38-4.09,3.83-6.83,3.93v28.54c-.09,1.75-1.42,3.15-3.08,3.25-1.8.11-3.35-1.35-3.45-3.25v-30.97c-1.54,1.6-3.48,2.7-5.6,3.15-5.99,1.27-11.82-2.82-13.03-9.15-1.21-6.32,2.67-12.48,8.66-13.76-.17-.7-.26-1.42-.26-2.15,0-3.21,1.83-6.11,4.64-7.36,3.86-1.72,8.31.19,9.94,4.26.62-.15,1.25-.23,1.89-.22,1.39,0,2.75.35,3.99,1.02,1.01-3.98,4.46-6.72,8.36-6.67,4.71.07,8.47,4.16,8.41,9.13,0,.84-.11,1.68-.34,2.49,1.01-.37,2.08-.56,3.15-.56,5.38-.01,9.74,4.58,9.76,10.25-.01,5.65-4.35,10.23-9.7,10.24Zm6.49,8.62h6.88c1.03,0,1.86.89,1.86,1.98v16.04c0,.7-.3,1.37-.83,1.79l-7.92,6.64v-26.45Zm15.29,19.54c0,2.73-1.14,5.32-3.14,7.06l-12.14,10.38v-8.44l8.93-7.44c.89-.74,1.4-1.87,1.39-3.06v-16.04s0-.03,0-.04c0-2.01-1.55-3.63-3.46-3.63h-6.86v-6.15h7.93c4.07.04,7.36,3.53,7.36,7.83v19.55Z"/>
          </g>
          <path class="cls-1" d="m638.46,323.2l-42.86-94.58s-14.82,29.81-44.46,95.49c-29.64,65.68-39.28,73.34-39.28,73.34v2.97l50.33.14s.1-1.37,0-3.12c-9.78-7.1-2.88-16.78-2.88-16.78l8.59-16.78s49.7-.06,53.12-.06,3.96,1.98,11.21,17.03-5.48,16.35-5.48,16.35v3.37h53.05v-3.37c-22.16-33.31-41.34-74-41.34-74Zm-64.89,19.68l22.04-55.34,22.04,55.34h-44.07Z"/>
        </g>
        <g>
          <path class="cls-1" d="m521.24,551.68c8.74,1.96,6.14,29.46,32.39,25.87-4.03-16.31-16.34-24.42-28.27-26.33-5.77-1.18-7.74-.84-5.89.93,1.46.78,2.07.62,1.76-.46Z"/>
          <path class="cls-1" d="m572.83,670.86c-21.2-9.58-35.32,10.24-39.62,22.67,13.73,1.38,29.4-4.44,36.09-21.38,1.09-.58,2.18.05,3.1.88-2.59.43-1.18,3.04.86,2.64,1.6-.3,3.74-2.93-.41-4.8Z"/>
          <path class="cls-1" d="m532.22,689.8c9.54-16.16,3.71-29.89-6.61-38.16-4.74-4.34-6.99-5.17-6.7-2.56.82,1.51,1.57,1.69,2.18.61,7.05,6.6-19.15,28.79,11.13,40.12Z"/>
          <path class="cls-1" d="m558.04,699.28c-20.01-10.7-36.6,7.57-42.33,19.42,13.64,2.3,29.97-2.31,38.62-18.39,1.19-.49,2.22.2,2.98,1.05-2.6.25-1.52,2.84.6,2.59,1.59-.18,4.04-2.59.13-4.69Z"/>
          <path class="cls-1" d="m473.85,721.05c-1.88-5.97-3.55-7.75-4.99-5.32-.21,1.7.36,2.23,1.77,1.53,2.63,9.08-38.14,17.19-15.41,41.11,20.05-10.42,23.39-25.3,18.63-37.31Z"/>
          <path class="cls-1" d="m546.21,663.08c5.78-17.76-2.8-31.08-14.55-38.13-5.54-3.74-7.86-4.29-7.02-1.67,1.12,1.48,1.84,1.59,2.22.36,8.22,5.76-12.4,32.11,19.35,39.43Z"/>
          <path class="cls-1" d="m581.68,638.33c-22.76-7.02-32.2,15.2-33.7,28.44,13.68-.49,27.72-8.43,30.51-26.63.96-.74,2.17-.23,3.24.5-2.43.78-.48,3.26,1.45,2.58,1.52-.53,2.97-3.51-1.5-4.89Z"/>
          <path class="cls-1" d="m419.24,779.61c-9.14.7-21.04,5.53-32.09,12.73-11.05-7.2-22.95-12.03-32.09-12.73-13.8-8.15-42.47-16.75-54.57,2.24-2.35,3.69,1.64,4.73,3.36,4.13,2.22-.77,1.49-3.61-1.24-2.6.18-1.14.69-2.23,2.16-2.35,16.15,8.66,32.03,7.81,43.66,2.46,1.74-.24,3.34-.35,4.63-.06,10.1,2.28,19.55,7.27,27.51,13.55-13.07,10.05-23.69,23.27-24.94,36.53.53,1.38,1.3,2.6,2.33,3.6,1.05,1.02,2.43,1.76,4.15,2.14,2.32.52,5.35.39,9.26-.59-2.38-10.51,4.27-24.48,15.79-35.92,11.52,11.44,18.16,25.41,15.78,35.91,3.91.98,6.94,1.1,9.26.59,1.72-.38,3.1-1.12,4.15-2.14,1.03-1,1.8-2.22,2.33-3.6-1.25-13.26-11.88-26.48-24.94-36.53,7.96-6.28,17.41-11.27,27.51-13.55,1.29-.29,2.89-.18,4.63.06,11.63,5.35,27.51,6.2,43.66-2.46,1.47.13,1.98,1.21,2.16,2.35-2.73-1-3.46,1.83-1.24,2.6,1.73.6,5.72-.44,3.36-4.13-12.1-18.99-40.77-10.39-54.57-2.24Z"/>
          <path class="cls-1" d="m445.31,740.97c-1.04-6.1-2.42-8.02-4.26-5.76-.45,1.67.1,2.23,1.55,1.68,1.36,9.18-40.59,13.22-21.3,39.01,21.53-8.31,27.01-22.63,24.01-34.92Z"/>
          <path class="cls-1" d="m515.13,714.96c11.49-15.08,7.38-28.87-2.03-37.65-4.21-4.56-6.4-5.56-6.42-2.99.64,1.53,1.34,1.78,2.09.76,6.32,6.92-22.88,26.5,6.35,39.88Z"/>
          <path class="cls-1" d="m553.82,636.34c11.11-.92,22-8.19,22.86-23.77.7-.63,1.71-.23,2.68.36-1.93.75-.17,2.78,1.37,2.13,1.18-.5,2.19-3.04-1.62-4.05-19.09-5.04-25.13,14.06-25.29,25.32Z"/>
          <path class="cls-1" d="m566.51,549.25c.36-.91,1.48-.86,2.59-.49-1.42,1.3,1.06,2.81,2.18,1.71.85-.84.61-3.79-3.26-3.6-19.78.95-16.4,21.83-11.4,33.22,9.65-4.29,16.19-14.96,9.9-30.83Z"/>
          <path class="cls-1" d="m537.17,601.69c-4.87-2.91-6.83-3.22-5.93-1.09,1.07,1.12,1.65,1.21,1.85.17,7.29,4.48-7.51,27.65,18.98,32.52,3.3-15.25-4.7-26.17-14.9-31.6Z"/>
          <path class="cls-1" d="m489.51,738.69c15.45-13.92,14.14-28.68,6.24-39.12-3.47-5.32-5.54-6.66-6.18-4.05.32,1.7,1.01,2.06,2.07,1.12,5.09,8.05-30.07,23.86-2.13,42.05Z"/>
          <path class="cls-1" d="m534.03,575.51l-.02-.02c-5.45-2.07-7.4-2.15-6.06-.1,1.32.99,1.91.93,1.85-.11,8.13,3.31-1.04,29.08,25.71,30.14-.06-16.19-10.28-26.09-21.48-29.92Z"/>
          <path class="cls-1" d="m557.85,608.32c10.61-2.55,19.55-11.55,17.03-27.7.54-.76,1.62-.52,2.62-.02-1.67,1.03.44,2.85,1.78,1.98,1.08-.7,1.49-3.49-2.38-3.96-19.64-2.44-21.34,18.05-19.05,29.7Z"/>
          <path class="cls-1" d="m489.32,742.66c13.9,4.38,32.18,2.01,44.83-13.26,1.38-.33,2.28.52,2.93,1.51-2.84-.11-2.27,2.72.02,2.77,1.78.04,4.86-2.06,1.19-4.79-18.73-13.92-40.3,2.28-48.97,13.77Z"/>
          <path class="cls-1" d="m453.75,762.27c12.71,7.3,32.08,8.86,49.78-3.51,1.47-.04,2.13,1,2.47,2.12-2.84-.71-3.12,2.18-.81,2.73,1.75.42,5.56-.99,2.69-4.47-14.64-17.79-41.72-6.34-54.13,3.13Z"/>
          <path class="cls-1" d="m253.05,551.68c-.31,1.08.29,1.24,1.76.46,1.85-1.76-.11-2.11-5.89-.93-11.93,1.91-24.23,10.03-28.27,26.33,26.25,3.6,23.65-23.91,32.39-25.87Z"/>
          <path class="cls-1" d="m241.09,693.54c-4.31-12.43-18.43-32.25-39.62-22.67-4.15,1.88-2.02,4.49-.41,4.81,2.04.39,3.44-2.21.86-2.64.92-.83,2.01-1.46,3.1-.88,6.68,16.94,22.36,22.75,36.09,21.38Z"/>
          <path class="cls-1" d="m253.2,649.68c.62,1.08,1.36.9,2.18-.61.29-2.61-1.96-1.78-6.7,2.56-10.31,8.27-16.15,22-6.61,38.16,30.28-11.33,4.08-33.53,11.13-40.12Z"/>
          <path class="cls-1" d="m258.57,718.7c-5.72-11.85-22.32-30.13-42.33-19.42-3.91,2.1-1.47,4.51.13,4.69,2.13.24,3.2-2.34.6-2.59.76-.85,1.78-1.54,2.98-1.05,8.65,16.08,24.98,20.68,38.62,18.39Z"/>
          <path class="cls-1" d="m319.08,758.36c22.74-23.92-18.04-32.03-15.41-41.11,1.41.7,1.98.17,1.77-1.53-1.45-2.43-3.12-.65-4.99,5.32-4.77,12.01-1.42,26.89,18.63,37.31Z"/>
          <path class="cls-1" d="m247.44,623.65c.38,1.23,1.1,1.13,2.22-.36.84-2.63-1.47-2.07-7.02,1.67-11.75,7.05-20.32,20.37-14.55,38.13,31.74-7.32,11.12-33.67,19.35-39.43Z"/>
          <path class="cls-1" d="m226.31,666.77c-1.49-13.23-10.94-35.46-33.7-28.44-4.47,1.38-3.02,4.35-1.5,4.88,1.93.67,3.88-1.8,1.45-2.58,1.07-.72,2.28-1.24,3.24-.5,2.79,18.21,16.84,26.15,30.51,26.64Z"/>
          <path class="cls-1" d="m352.99,775.89c19.29-25.78-22.66-29.83-21.3-39.01,1.45.55,1.99,0,1.55-1.68-1.84-2.26-3.22-.34-4.26,5.76-3,12.3,2.48,26.62,24.01,34.92Z"/>
          <path class="cls-1" d="m259.16,714.96c29.24-13.37.03-32.95,6.35-39.88.76,1.02,1.45.77,2.09-.76,0-2.58-2.21-1.57-6.42,2.99-9.41,8.78-13.52,22.57-2.03,37.65Z"/>
          <path class="cls-1" d="m193.57,615.06c1.54.65,3.3-1.38,1.37-2.13.97-.59,1.98-.99,2.68-.36.86,15.58,11.76,22.84,22.86,23.77-.16-11.26-6.2-30.37-25.29-25.32-3.81,1.01-2.8,3.55-1.62,4.05Z"/>
          <path class="cls-1" d="m205.2,548.76c1.11-.37,2.22-.42,2.59.49-6.29,15.87.25,26.55,9.9,30.83,5-11.39,8.38-32.27-11.4-33.22-3.88-.19-4.11,2.77-3.26,3.6,1.12,1.1,3.6-.41,2.18-1.71Z"/>
          <path class="cls-1" d="m241.2,600.76c.2,1.04.78.95,1.85-.17.9-2.13-1.06-1.81-5.93,1.09-10.2,5.43-18.21,16.35-14.9,31.59,26.5-4.86,11.69-28.03,18.98-32.51Z"/>
          <path class="cls-1" d="m282.65,696.63c1.06.93,1.75.58,2.07-1.12-.64-2.61-2.71-1.26-6.18,4.05-7.9,10.45-9.22,25.2,6.24,39.12,27.94-18.19-7.22-34.01-2.13-42.05Z"/>
          <path class="cls-1" d="m244.49,575.28c-.06,1.04.53,1.1,1.85.11,1.34-2.06-.61-1.97-6.06.1l-.02.02c-11.2,3.84-21.42,13.74-21.48,29.92,26.76-1.06,17.58-26.83,25.71-30.14Z"/>
          <path class="cls-1" d="m196.79,580.6c1-.5,2.08-.74,2.62.02-2.53,16.15,6.42,25.15,17.03,27.7,2.29-11.65.58-32.14-19.05-29.7-3.87.48-3.46,3.27-2.38,3.96,1.34.86,3.45-.95,1.78-1.98Z"/>
          <path class="cls-1" d="m284.97,742.66c-8.67-11.49-30.24-27.69-48.97-13.77-3.66,2.72-.58,4.82,1.19,4.79,2.29-.05,2.86-2.88.02-2.77.65-.98,1.54-1.83,2.93-1.51,12.65,15.26,30.93,17.64,44.83,13.26Z"/>
          <path class="cls-1" d="m266.4,759.14c-2.86,3.48.94,4.89,2.69,4.47,2.31-.55,2.03-3.45-.81-2.73.35-1.11,1-2.16,2.48-2.12,17.71,12.38,37.06,10.82,49.78,3.51-12.41-9.47-39.5-20.92-54.14-3.13Z"/>
        </g>
        <path class="cls-1" d="m406.29,508.4v203.57h-38.36v-158.49l-24.78,9.38v-40.74l30.38-13.72h32.76Z"/>
      </g>
    </g>
      <g transform="translate(1700, 460)"> <!-- Adjust the translation values as needed -->
        <text x="0" y="0" font-family="Arial" font-size="100" font-weight="bold" fill="#c62828" text-anchor="middle">GAME WEEK @gw_number WINNER</text>
        <text x="0" y="150" font-family="Arial" font-size="150" font-weight="bold" fill="black" text-anchor="middle">@first_place_name</text>
        <text x="0" y="260" font-family="Arial" font-size="100" font-weight="bold" fill="black" text-anchor="middle">@team_name</text>
      </g>
  </g>
</svg>