<?xml version="1.0" encoding="UTF-8"?>
<svg id="Layer_2" data-name="Layer 2" xmlns="http://www.w3.org/2000/svg" viewBox="0 0 2306.54 546.05">
  <defs>
    <style>
      .cls-1 {
        fill: #fff;
      }

      .cls-2 {
        fill: #c62828;
      }
    </style>
  </defs>
  <g id="Layer_1-2" data-name="Layer 1">
    <g>
      <rect class="cls-1" x="99.17" y="90.11" width="2207.37" height="382.21"/>
      <rect class="cls-2" x="136.22" y="118.2" width="2139.45" height="326.03"/>
      <path class="cls-2" d="m198.84,546.05C81.37,491.02,0,371.78,0,233.5V47.35C114.72,47.35,198.84,0,198.84,0c0,0,84.14,47.35,198.85,47.35v186.15c0,138.28-81.37,257.51-198.83,312.55h-.02Z"/>
      <path class="cls-1" d="m198.84,536.11C87.25,483.08,9.96,368.18,9.96,234.94V55.57c108.97,0,188.88-45.63,188.88-45.63,0,0,79.93,45.63,188.89,45.63v179.37c0,133.24-77.3,248.13-188.87,301.17h-.01Z"/>
      <path class="cls-2" d="m198.84,518.22C97.32,468.8,26.99,361.71,26.99,237.53V70.36c99.14,0,171.85-42.53,171.85-42.53,0,0,72.72,42.53,171.85,42.53v167.17c0,124.18-70.33,231.26-171.84,280.69h-.01Z"/>
      <g>
        <path class="cls-1" d="m50.94,126.78s24.7,40.22,24.72,41.69c.11,7.22,0,27.25,0,26.4,0,0,1.02,7.61-5.73,9.33v1.46h28.84v-1.46s-5.85-.9-5.85-9.5c0-7.47.06-21.89.08-25.54,0-.56.15-1.1.44-1.59,3.19-5.4,22.96-38.86,24.54-40.79.9-.86,2.24-.73,2.24-.73v-2.41h-24.46v2.88s2.88-.13,2.88,1.46c-.56,2.11-14.23,25.96-14.23,25.96-2.8-4.71-10.95-21.63-12.69-25.27-.31-.65-.05-1.44.6-1.76.42-.21,1.03-.38,1.91-.43-.04-1.63.04-2.84.04-2.84h-25.75v2.24s1.87,0,2.41.9Z"/>
        <path class="cls-1" d="m119.66,205.69v-1.43s5.61-1.63,5.75-4.55c.14-2.91,0-83.13,0-83.13l56.06,58.62v-44.19s-.21-5.04-4.33-4.9l.07-2.34h24.51v2.49s-5.68.14-5.75,4.76,0,81.71,0,81.71l-54.78-58.9v44.62s.94,4.43,5.82,5.82c0,.98.03,1.43.03,1.43h-27.38Z"/>
        <g>
          <path class="cls-1" d="m236.12,145.95s0,0,0,0c-.21-.06-.43.06-.49.29-.29.98-1.02,1.75-1.95,2.06-1.56.51-3.21-.41-3.7-2.06,0,0,0,0,0,0-.07-.22-.29-.35-.5-.28-.21.07-.33.31-.27.53.37,1.24,1.29,2.22,2.47,2.61,1.99.66,4.1-.51,4.72-2.61,0,0,0,0,0,0,.06-.23-.06-.46-.27-.53Z"/>
          <path class="cls-1" d="m247.28,148.96c-.22-.05-.43.09-.48.32-.24.81-.83,1.44-1.6,1.68-1.28.42-2.63-.34-3.02-1.68,0-.02-.01-.04-.02-.06-.08-.22-.31-.33-.52-.24-.21.09-.31.33-.23.55.32,1.06,1.1,1.89,2.1,2.22,1.7.57,3.51-.43,4.05-2.22,0-.02.01-.04.02-.06.05-.23-.09-.46-.3-.51Z"/>
          <path class="cls-1" d="m240.36,168.97c.22,0,.4-.19.4-.43v-2.07c0-.24-.18-.43-.4-.43s-.4.19-.4.43v2.07c0,.24.18.43.4.43Z"/>
          <path class="cls-1" d="m263.35,142.25c-4.7-6.65-11.05-11.54-19.07-14.69-3.6-1.37-7.79-2.68-12.18-3.31-3.69-.53-4.71-.6-8.74-.6h-.02s-1.14,0-1.14,0h-15.92l-.06,2.35c3.39-.14,3.57,4.91,3.57,4.91v67.53s-.18,5.04-3.57,4.89l.06,2.35h16.91l.03-.02c.82-.01,1.61-.04,2.39-.06,4.76-.16,8.87-.56,12.28-1.24,4.54-.88,8.61-2.27,12.18-4.19,6.43-3.48,11.42-8.35,14.98-14.56,3.55-6.2,5.32-13.21,5.32-21.01,0-8.23-2.35-15.67-7.03-22.33Zm-14,43.78c0,2.8-6.35,4.2-12.71,4.2s-12.71-1.4-12.71-4.2v-29.69c.78.54,1.65.9,2.57,1.04v25.8c0,2.51,5.44,3.41,10.1,3.41s10.17-.87,10.17-3.41v-27.07h.04c.88,0,1.75-.22,2.54-.63v30.55Zm-16.31-12.73c1.37.07,2.54-1.05,2.6-2.5v-13.9c1.01-.2,1.95-.7,2.69-1.45.46.49,1.01.88,1.61,1.14v6.95c0,.24.18.43.4.43s.4-.19.4-.43v-6.7c.63.14,1.28.14,1.92,0v16.36c0,.24.18.43.4.43s.4-.19.4-.43v-16.6c.49-.2.94-.49,1.35-.85.37.14.75.24,1.14.3v27.14c0,1.44-4.11,2.58-9.36,2.58s-9.29-1.13-9.29-2.58v-25.71h.18c1.12,0,2.21-.3,3.19-.88v14.2c.06,1.35,1.09,2.44,2.37,2.5Zm13.77-18.05c-.75,0-1.48-.17-2.15-.52-.22.25-.47.47-.74.65-1.87,1.28-4.37.72-5.58-1.25-.8,1.22-2.1,1.97-3.51,2.02v14.66c-.05.9-.73,1.62-1.58,1.67-.93.06-1.72-.69-1.77-1.67v-15.91c-.79.82-1.79,1.39-2.87,1.62-3.08.65-6.07-1.45-6.69-4.7-.62-3.25,1.37-6.41,4.45-7.07-.09-.36-.13-.73-.13-1.1,0-1.65.94-3.14,2.38-3.78,1.98-.88,4.27.1,5.1,2.19.32-.08.64-.12.97-.11.71,0,1.41.18,2.05.52.52-2.04,2.29-3.45,4.29-3.42,2.42.04,4.35,2.14,4.32,4.69,0,.43-.06.86-.17,1.28.52-.19,1.07-.29,1.62-.29,2.76,0,5,2.35,5.01,5.27,0,2.9-2.23,5.25-4.98,5.26Zm3.33,4.43h3.54c.53,0,.96.46.96,1.02v8.24c0,.36-.15.7-.43.92l-4.07,3.41v-13.58Zm7.85,10.03c0,1.4-.59,2.73-1.61,3.62l-6.24,5.33v-4.33l4.58-3.82c.46-.38.72-.96.72-1.57v-8.24s0-.02,0-.02c0-1.03-.8-1.87-1.78-1.86h-3.52v-3.16h4.07c2.09.02,3.78,1.81,3.78,4.02v10.04Z"/>
        </g>
        <path class="cls-1" d="m327.92,166l-22.01-48.58s-7.61,15.31-22.84,49.05c-15.22,33.73-20.17,37.67-20.17,37.67v1.53l25.85.07s.05-.7,0-1.6c-5.02-3.65-1.48-8.62-1.48-8.62l4.41-8.62s25.53-.03,27.28-.03,2.03,1.02,5.76,8.75-2.81,8.4-2.81,8.4v1.73h27.25v-1.73c-11.38-17.11-21.23-38.01-21.23-38.01Zm-33.33,10.11l11.32-28.42,11.32,28.42h-22.64Z"/>
      </g>
      <g>
        <path class="cls-1" d="m267.72,313.35c4.49,1,3.16,15.13,16.64,13.28-2.07-8.37-8.39-12.54-14.52-13.52-2.96-.61-3.97-.43-3.02.48.75.4,1.06.32.9-.24Z"/>
        <path class="cls-1" d="m294.21,374.56c-10.89-4.92-18.14,5.26-20.35,11.64,7.05.71,15.1-2.28,18.53-10.98.56-.3,1.12.03,1.59.45-1.33.22-.61,1.56.44,1.36.82-.16,1.92-1.5-.21-2.47Z"/>
        <path class="cls-1" d="m273.36,384.29c4.9-8.3,1.9-15.35-3.39-19.6-2.43-2.23-3.59-2.66-3.44-1.32.42.78.8.87,1.12.31,3.62,3.39-9.84,14.79,5.72,20.61Z"/>
        <path class="cls-1" d="m286.62,389.16c-10.28-5.5-18.8,3.89-21.74,9.98,7.01,1.18,15.39-1.19,19.84-9.44.61-.25,1.14.1,1.53.54-1.33.13-.78,1.46.31,1.33.82-.09,2.08-1.33.07-2.41Z"/>
        <path class="cls-1" d="m243.37,400.34c-.96-3.07-1.82-3.98-2.56-2.73-.11.87.18,1.14.91.79,1.35,4.66-19.59,8.83-7.91,21.11,10.3-5.35,12.01-12.99,9.57-19.16Z"/>
        <path class="cls-1" d="m280.54,370.57c2.97-9.12-1.44-15.96-7.47-19.58-2.85-1.92-4.04-2.21-3.6-.86.58.76.94.82,1.14.19,4.22,2.96-6.37,16.49,9.94,20.25Z"/>
        <path class="cls-1" d="m298.76,357.85c-11.69-3.61-16.54,7.81-17.31,14.61,7.03-.25,14.24-4.33,15.67-13.68.49-.38,1.12-.12,1.66.25-1.25.4-.25,1.67.74,1.33.78-.27,1.53-1.8-.77-2.51Z"/>
        <path class="cls-1" d="m215.32,430.42c-4.69.36-10.81,2.84-16.48,6.54-5.68-3.7-11.79-6.18-16.48-6.54-7.09-4.18-21.81-8.6-28.03,1.15-1.21,1.9.84,2.43,1.73,2.12,1.14-.39.76-1.85-.64-1.34.09-.59.36-1.14,1.11-1.21,8.29,4.45,16.45,4.01,22.42,1.26.9-.12,1.72-.18,2.38-.03,5.19,1.17,10.04,3.73,14.13,6.96-6.71,5.16-12.17,11.95-12.81,18.76.27.71.67,1.33,1.2,1.85.54.52,1.25.9,2.13,1.1,1.19.27,2.75.2,4.76-.3-1.22-5.4,2.19-12.57,8.11-18.45,5.91,5.87,9.33,13.05,8.11,18.45,2.01.5,3.56.57,4.76.3.88-.19,1.59-.58,2.13-1.1.53-.51.92-1.14,1.2-1.85-.64-6.81-6.1-13.6-12.81-18.76,4.09-3.23,8.94-5.79,14.13-6.96.66-.15,1.48-.09,2.38.03,5.97,2.75,14.13,3.19,22.42-1.26.76.06,1.02.62,1.11,1.21-1.4-.52-1.78.94-.64,1.34.89.31,2.94-.22,1.73-2.12-6.21-9.75-20.94-5.33-28.03-1.15Z"/>
        <path class="cls-1" d="m228.72,410.57c-.53-3.13-1.24-4.12-2.19-2.96-.23.86.05,1.14.79.86.7,4.71-20.85,6.79-10.94,20.03,11.06-4.27,13.87-11.62,12.33-17.94Z"/>
        <path class="cls-1" d="m264.58,397.21c5.9-7.75,3.79-14.83-1.04-19.34-2.16-2.34-3.29-2.86-3.3-1.53.33.78.69.91,1.08.39,3.25,3.55-11.75,13.61,3.26,20.48Z"/>
        <path class="cls-1" d="m284.45,356.83c5.7-.47,11.3-4.21,11.74-12.21.36-.32.88-.12,1.38.19-.99.39-.09,1.43.7,1.09.61-.26,1.13-1.56-.83-2.08-9.8-2.59-12.9,7.22-12.99,13.01Z"/>
        <path class="cls-1" d="m290.96,312.1c.19-.47.76-.44,1.33-.25-.73.67.54,1.44,1.12.88.43-.43.32-1.95-1.68-1.85-10.16.49-8.43,11.21-5.86,17.06,4.96-2.2,8.32-7.69,5.08-15.84Z"/>
        <path class="cls-1" d="m275.9,339.04c-2.5-1.49-3.51-1.66-3.05-.56.55.57.85.62.95.09,3.74,2.3-3.86,14.2,9.75,16.7,1.7-7.83-2.41-13.44-7.65-16.23Z"/>
        <path class="cls-1" d="m251.42,409.4c7.94-7.15,7.26-14.73,3.2-20.09-1.78-2.73-2.85-3.42-3.17-2.08.17.87.52,1.06,1.06.58,2.61,4.13-15.44,12.26-1.09,21.6Z"/>
        <path class="cls-1" d="m274.28,325.59h0c-2.8-1.07-3.8-1.11-3.11-.06.68.51.98.48.95-.06,4.18,1.7-.54,14.94,13.2,15.48-.03-8.31-5.28-13.4-11.03-15.37Z"/>
        <path class="cls-1" d="m286.52,342.44c5.45-1.31,10.04-5.93,8.75-14.23.28-.39.83-.27,1.34-.01-.86.53.23,1.46.92,1.02.55-.36.77-1.79-1.22-2.04-10.09-1.25-10.96,9.27-9.79,15.25Z"/>
        <path class="cls-1" d="m251.32,411.44c7.14,2.25,16.53,1.03,23.03-6.81.71-.17,1.17.27,1.5.77-1.46-.06-1.17,1.4,0,1.42.91.02,2.5-1.06.61-2.46-9.62-7.15-20.7,1.17-25.15,7.07Z"/>
        <path class="cls-1" d="m233.05,421.51c6.53,3.75,16.47,4.55,25.57-1.81.76-.02,1.09.52,1.27,1.09-1.46-.37-1.6,1.12-.42,1.4.9.21,2.85-.51,1.38-2.3-7.52-9.14-21.43-3.25-27.8,1.61Z"/>
        <path class="cls-1" d="m129.97,313.35c-.16.56.15.64.9.24.95-.91-.06-1.08-3.02-.48-6.13.98-12.45,5.15-14.52,13.52,13.48,1.85,12.15-12.28,16.64-13.28Z"/>
        <path class="cls-1" d="m123.82,386.21c-2.21-6.39-9.46-16.57-20.35-11.64-2.13.96-1.04,2.31-.21,2.47,1.05.2,1.77-1.13.44-1.36.47-.42,1.03-.75,1.59-.45,3.43,8.7,11.48,11.69,18.53,10.98Z"/>
        <path class="cls-1" d="m130.05,363.68c.32.55.7.46,1.12-.31.15-1.34-1.01-.91-3.44,1.32-5.3,4.25-8.29,11.3-3.39,19.6,15.55-5.82,2.1-17.22,5.72-20.61Z"/>
        <path class="cls-1" d="m132.81,399.13c-2.94-6.09-11.46-15.47-21.74-9.98-2.01,1.08-.75,2.31.07,2.41,1.09.12,1.65-1.2.31-1.33.39-.44.92-.79,1.53-.54,4.44,8.26,12.83,10.62,19.84,9.44Z"/>
        <path class="cls-1" d="m163.88,419.51c11.68-12.29-9.26-16.45-7.91-21.11.72.36,1.01.09.91-.79-.74-1.25-1.6-.33-2.56,2.73-2.45,6.17-.73,13.81,9.57,19.16Z"/>
        <path class="cls-1" d="m127.09,350.31c.19.63.56.58,1.14-.19.43-1.35-.76-1.06-3.6.86-6.04,3.62-10.44,10.46-7.47,19.58,16.3-3.76,5.71-17.3,9.94-20.25Z"/>
        <path class="cls-1" d="m116.24,372.46c-.77-6.8-5.62-18.21-17.31-14.61-2.3.71-1.55,2.24-.77,2.51.99.34,1.99-.93.74-1.33.55-.37,1.17-.64,1.66-.25,1.43,9.35,8.65,13.43,15.67,13.68Z"/>
        <path class="cls-1" d="m181.3,428.51c9.91-13.24-11.64-15.32-10.94-20.03.75.28,1.02,0,.79-.86-.94-1.16-1.66-.17-2.19,2.96-1.54,6.32,1.27,13.67,12.33,17.94Z"/>
        <path class="cls-1" d="m133.11,397.21c15.02-6.87.02-16.92,3.26-20.48.39.52.75.4,1.08-.39,0-1.32-1.13-.81-3.3,1.53-4.83,4.51-6.95,11.59-1.04,19.34Z"/>
        <path class="cls-1" d="m99.42,345.9c.79.33,1.69-.71.7-1.09.5-.3,1.02-.51,1.38-.19.44,8,6.04,11.73,11.74,12.21-.08-5.79-3.18-15.6-12.99-13.01-1.96.52-1.44,1.82-.83,2.08Z"/>
        <path class="cls-1" d="m105.39,311.85c.57-.19,1.14-.22,1.33.25-3.23,8.15.13,13.64,5.08,15.84,2.57-5.85,4.3-16.57-5.86-17.06-1.99-.1-2.11,1.42-1.68,1.85.58.57,1.85-.21,1.12-.88Z"/>
        <path class="cls-1" d="m123.89,338.56c.11.53.4.49.95-.09.46-1.09-.54-.93-3.05.56-5.24,2.79-9.35,8.4-7.65,16.23,13.61-2.5,6.01-14.4,9.75-16.7Z"/>
        <path class="cls-1" d="m145.17,387.8c.54.48.9.3,1.06-.58-.33-1.34-1.39-.65-3.17,2.08-4.06,5.37-4.73,12.94,3.2,20.09,14.35-9.34-3.71-17.47-1.09-21.6Z"/>
        <path class="cls-1" d="m125.58,325.47c-.03.54.27.56.95.06.69-1.06-.31-1.01-3.11.05h0c-5.75,1.98-11,7.06-11.03,15.38,13.74-.54,9.03-13.78,13.21-15.48Z"/>
        <path class="cls-1" d="m101.08,328.2c.51-.26,1.07-.38,1.34.01-1.3,8.3,3.3,12.92,8.75,14.23,1.18-5.98.3-16.51-9.79-15.25-1.99.25-1.78,1.68-1.22,2.04.69.44,1.77-.49.92-1.02Z"/>
        <path class="cls-1" d="m146.37,411.44c-4.45-5.9-15.53-14.22-25.15-7.07-1.88,1.4-.3,2.48.61,2.46,1.18-.03,1.47-1.48,0-1.42.33-.51.79-.94,1.5-.77,6.5,7.84,15.89,9.06,23.03,6.81Z"/>
        <path class="cls-1" d="m136.83,419.9c-1.47,1.79.48,2.51,1.38,2.3,1.19-.28,1.04-1.77-.42-1.4.18-.57.51-1.11,1.27-1.09,9.09,6.36,19.04,5.56,25.57,1.81-6.38-4.86-20.29-10.75-27.81-1.61Z"/>
      </g>
      <g>
        <path class="cls-1" d="m269.79,246.47c-3-5.19-7.85-8.69-13.24-10.14-5.38-1.44-11.33-.83-16.52,2.17l-1.29.74c.13-3.28.2-6.49.23-9.57h-74.5c.03,3.08.1,6.29.23,9.57l-1.29-.74c-5.19-3-11.14-3.6-16.52-2.16-5.21,1.39-9.91,4.71-12.93,9.63l-.42.69-.42.78c-2.54,4.95-2.99,10.51-1.63,15.57,1.44,5.4,4.94,10.25,10.12,13.24l25.39,14.66.03.02,3.55,2.05c1.29.74,2.16,1.96,2.52,3.31.36,1.35.21,2.83-.53,4.12l-.16.28c-.75,1.13-1.89,1.9-3.15,2.24-1.36.36-2.85.22-4.14-.52l-3.81,6.64c3.12,1.81,6.7,2.17,9.93,1.3,3.23-.87,6.14-2.97,7.96-6.1l.13-.23c5.39,8.39,12.65,13.73,22.36,13.73s16.97-5.35,22.37-13.74l.13.23c1.81,3.13,4.73,5.23,7.95,6.1,3.23.87,6.81.5,9.93-1.3l-3.81-6.64c-1.29.74-2.78.89-4.13.52-1.26-.34-2.4-1.11-3.15-2.24l-.16-.28c-.74-1.28-.89-2.77-.53-4.12.36-1.35,1.23-2.57,2.52-3.32l3.59-2.07.07-.04,25.31-14.6c5.19-2.99,8.68-7.84,10.13-13.24,1.44-5.38.84-11.33-2.15-16.54Zm-124.32,23.14c-3.35-1.93-5.61-5.09-6.55-8.59-.94-3.5-.55-7.36,1.38-10.71l.26-.44c1.94-3.12,4.97-5.23,8.33-6.13,3.45-.92,7.24-.57,10.56,1.29l5.78,3.33c.88,12.15,2.63,24.81,5.8,35.98l-25.54-14.74Zm119.06-8.59c-.94,3.5-3.2,6.65-6.55,8.6l-25.55,14.74c3.17-11.17,4.92-23.83,5.8-35.98,0,0,5.61-3.23,5.61-3.23,3.36-1.94,7.22-2.32,10.73-1.39,3.5.94,6.65,3.2,8.6,6.56,1.92,3.35,2.31,7.21,1.37,10.71Z"/>
        <polygon class="cls-1" points="201.72 356.24 168.82 356.24 159.44 379.6 244 379.6 234.62 356.24 201.72 356.24"/>
        <path class="cls-1" d="m213.43,350.48c-2.53-4.2-3.79-9.04-3.84-14.23-.04-4.66.89-9.6,2.74-14.61-3.22,1.22-6.75,1.88-10.61,1.88s-7.39-.66-10.61-1.88c1.86,5.01,2.79,9.95,2.74,14.61-.05,5.2-1.31,10.04-3.84,14.24h23.42Z"/>
      </g>
      <g>
        <path class="cls-1" d="m2211.78,341.88l-5.09-13.54c-1.3-3.44-5.13-5.74-9.53-5.74h-16.09v-25.93h5.77c5.5,0,9.97-3.65,9.97-8.14v-56.1c0-4.48-4.47-8.13-9.97-8.13h-288.2c-5.5,0-9.97,3.65-9.97,8.13v56.11c0,4.49,4.47,8.13,9.97,8.13h5.77v25.93h-16.08c-4.4,0-8.23,2.31-9.53,5.76l-5.1,13.54c-.93,2.46-.37,5.16,1.51,7.23,1.87,2.06,4.87,3.29,8.02,3.29h5.45v37.15c0,4.49,4.47,8.13,9.97,8.13s9.97-3.65,9.97-8.13v-37.16h268.27v37.15c0,4.49,4.47,8.13,9.97,8.13s9.97-3.65,9.97-8.13v-37.15h5.43c3.17,0,6.17-1.24,7.97-3.26,1.88-2.03,2.47-4.72,1.56-7.28Zm-50.65-19.28h-236.78v-25.93h236.78s0,25.93,0,25.93Z"/>
        <path class="cls-1" d="m1880.57,170.06c1.01,3.11,2.47,10.1,2.69,12.94.4,5.07-.09,9.54-1.58,14.28-.58,1.88-1.63,4.48-2.42,6.04l-.59,1.15-.41-.63c-1.32-1.98-3.72-4.6-5.74-6.29-2.37-1.97-5.63-3.93-8.41-5.03-1.12-.44-4.37-1.47-4.56-1.43-.04,0,.28.64.7,1.41,3.3,6.05,5.57,11.88,6.64,17.03.84,4.11.93,8.1.28,12.51-.31,2.12-.55,5.25-.58,7.18,0,1.77.02,1.95.56,4.67.63,3.09.86,3.75,1.99,5.77.78,1.41,2.66,3.79,3.9,4.95.56.53,1.88,1.52,2.94,2.23,2.72,1.81,4.83,2.61,7.82,2.96,2.75.33,2.13.42,15.86-2.34,8.48-1.71,12.73-2.6,13.6-2.88,5.08-1.58,8.66-5.02,10.6-10.2,1.41-3.75,1.82-8.24,1.25-13.82-.61-5.99-.22-11.19,1.32-17.61.46-1.94,1.55-5.77,1.75-6.17s-.19-.26-1.55.54c-3.98,2.31-6.94,5.55-8.48,9.32-.22.55-.43,1.03-.45,1.07s-.2-.78-.37-1.82c-.23-1.31-.35-2.56-.41-4.08-.11-3.35-.25-4.5-.74-6.58-.82-3.41-2.37-6.13-5.06-8.88-1.13-1.16-3.31-3.03-3.6-3.09-.05-.01,0,.17.1.41.49,1.1,1.06,3.29,1.48,5.64.4,2.18.44,2.65.38,3.68-.12,2.1-.63,3.67-1.64,5.03-.42.56-1.65,1.76-1.85,1.8-.04,0-.22-.6-.42-1.36-2.91-10.9-10.01-20.1-20.92-27.13-2.13-1.38-4.25-2.62-4.41-2.59-.05,0,.1.6.33,1.3Zm11.53,17.01c2.9,3.48,5.49,7.99,7.03,12.26.26.72.79,2.69,1.25,4.64,1.1,4.66,1.55,5.75,4.57,11.03,2.78,4.86,3.59,6.86,4.1,10.01.96,6.06-1.73,11.99-6.68,14.74-2.74,1.51-6.16,1.96-9.17,1.18-3.89-.99-7.2-3.58-9.33-7.26-2.42-4.18-3.04-9.42-1.81-15.2.59-2.84,1.33-4.99,3.57-10.63,1.9-4.73,2.76-7.16,3.38-9.4,1.21-4.39,1.64-8.43,1.29-12.14l-.13-1.37.53.55c.29.29.92,1.01,1.4,1.59Zm-18.3,22.05c.87,1.11,1.56,2.56,2.11,4.4.72,2.45.98,4.94,1.02,9.8.01,1.67.1,3.73.2,4.56.58,5.11,3.33,9.47,7.88,12.5,1.54,1.03,2.39,1.44,4.45,2.19l1.35.49-.63.13c-1.09.22-2.97.26-4.36.1-3.24-.39-6.37-1.9-8.66-4.18-2.92-2.9-4.33-6.64-4.25-11.34.01-1.5.36-4.44.87-7.53.66-3.96.67-5.81.03-8.94-.26-1.26-.54-2.46-.63-2.66-.09-.19-.14-.36-.11-.37.04,0,.36.38.74.85Zm37.32-1.81c.47,2.66,1.19,4.22,3.47,7.51,2.14,3.09,2.88,4.61,3.51,7.17.87,3.54.6,6.96-.77,10.05-1.66,3.74-4.95,6.37-8.43,6.75-.49.05-.89.06-.9.02,0-.05.34-.41.79-.82,3.37-3.12,5.27-7.57,5.33-12.48,0-1.05-.06-1.63-.47-3.6-.46-2.24-.52-2.44-1.33-4.38-1.27-2.99-1.51-3.67-1.88-5.55-.37-1.8-.41-3-.15-4.5.1-.6.45-1.8.52-1.82.01,0,.15.73.32,1.62Z"/>
        <path class="cls-1" d="m2195.32,166.02c-1.14,3.06-2.89,9.99-3.23,12.82-.61,5.05-.3,9.53.99,14.34.5,1.9,1.44,4.54,2.17,6.13l.54,1.17.44-.61c1.4-1.92,3.91-4.44,6-6.04,2.45-1.87,5.79-3.69,8.61-4.68,1.14-.4,4.43-1.28,4.62-1.24.03,0-.3.63-.76,1.38-3.55,5.91-6.06,11.64-7.34,16.74-1.01,4.07-1.27,8.06-.8,12.48.22,2.13.33,5.27.28,7.19-.07,1.77-.1,1.95-.76,4.64-.76,3.06-1.02,3.71-2.23,5.68-.83,1.37-2.81,3.67-4.1,4.79-.58.51-1.94,1.45-3.03,2.1-2.79,1.69-4.93,2.41-7.94,2.64-2.76.22-2.14.33-15.74-2.99-8.4-2.06-12.61-3.13-13.47-3.44-5.01-1.79-8.45-5.38-10.17-10.64-1.25-3.81-1.47-8.31-.67-13.86.86-5.96.69-11.17-.58-17.65-.38-1.96-1.31-5.83-1.49-6.24s.2-.25,1.53.6c3.88,2.47,6.7,5.84,8.09,9.66.2.55.38,1.05.41,1.09s.23-.77.45-1.8c.29-1.3.46-2.54.57-4.06.25-3.35.43-4.49,1.02-6.54.96-3.37,2.62-6.03,5.42-8.66,1.18-1.12,3.43-2.89,3.73-2.94.05-.01,0,.17-.11.4-.54,1.08-1.2,3.25-1.72,5.58-.49,2.16-.55,2.63-.54,3.66.03,2.11.48,3.69,1.43,5.1.4.58,1.57,1.82,1.77,1.87.03,0,.25-.59.48-1.34,3.37-10.77,10.83-19.66,22.04-26.23,2.18-1.29,4.36-2.44,4.51-2.4.05.01-.12.6-.38,1.29Zm-12.23,16.51c-3.04,3.36-5.82,7.76-7.54,11.96-.29.71-.91,2.65-1.45,4.58-1.29,4.61-1.79,5.68-5.02,10.83-2.98,4.74-3.88,6.71-4.52,9.83-1.21,6.01,1.23,12.05,6.06,15,2.67,1.63,6.07,2.21,9.11,1.56,3.92-.83,7.35-3.28,9.62-6.86,2.59-4.07,3.43-9.29,2.44-15.12-.48-2.86-1.12-5.04-3.12-10.77-1.7-4.81-2.46-7.27-2.98-9.53-1.02-4.44-1.29-8.5-.78-12.19l.19-1.36-.55.53c-.3.28-.96.97-1.47,1.53Zm17.36,22.8c-.92,1.07-1.67,2.49-2.29,4.31-.82,2.41-1.19,4.89-1.43,9.75-.08,1.67-.26,3.73-.39,4.55-.79,5.08-3.72,9.33-8.39,12.16-1.59.96-2.45,1.34-4.53,2l-1.37.44.63.16c1.08.27,2.95.39,4.35.28,3.25-.26,6.45-1.64,8.83-3.81,3.04-2.78,4.6-6.45,4.72-11.15.05-1.49-.18-4.45-.56-7.56-.49-3.99-.43-5.84.34-8.93.31-1.24.64-2.43.74-2.63.1-.19.15-.36.13-.36-.03,0-.37.36-.77.82Zm-37.22-3.36c-.58,2.63-1.37,4.17-3.78,7.36-2.26,3-3.07,4.49-3.81,7.02-1.02,3.5-.89,6.93.35,10.08,1.5,3.81,4.68,6.57,8.14,7.1.49.07.89.1.9.06,0-.05-.33-.43-.75-.85-3.24-3.26-4.95-7.79-4.8-12.69.04-1.05.13-1.62.62-3.58.55-2.22.62-2.41,1.52-4.32,1.4-2.94,1.66-3.6,2.11-5.47.44-1.78.53-2.98.34-4.49-.07-.6-.38-1.82-.44-1.84-.01,0-.18.72-.39,1.61Z"/>
        <path class="cls-1" d="m2128.58,179.95c-.33,2.1-.54,6.75-.39,8.6.27,3.3,1.05,6.12,2.5,9.02.57,1.15,1.51,2.71,2.19,3.63l.5.68.2-.44c.65-1.41,1.91-3.34,3.04-4.64,1.32-1.52,3.22-3.11,4.88-4.11.67-.4,2.66-1.4,2.79-1.39.02,0-.11.44-.31.98-1.5,4.24-2.35,8.22-2.5,11.64-.11,2.73.24,5.31,1.12,8.07.42,1.33.9,3.32,1.11,4.56.19,1.14.19,1.26.12,3.06-.09,2.05-.17,2.5-.68,3.92-.35.99-1.32,2.71-1.99,3.59-.31.4-1.05,1.18-1.66,1.74-1.56,1.44-2.83,2.18-4.72,2.72-1.73.5-1.33.49-10.44.14-5.63-.22-8.46-.35-9.05-.44-3.43-.49-6.09-2.33-7.88-5.46-1.3-2.27-2.02-5.11-2.24-8.76-.23-3.92-1.02-7.22-2.67-11.19-.5-1.2-1.59-3.55-1.76-3.79s.09-.18,1.06.18c2.8,1.07,5.04,2.85,6.42,5.11.2.33.38.62.4.64s.05-.52.05-1.21c.01-.87-.04-1.68-.16-2.66-.28-2.17-.31-2.92-.2-4.31.17-2.27.89-4.19,2.33-6.23.61-.87,1.81-2.29,2-2.36.03-.01.02.11-.02.27-.2.76-.34,2.23-.37,3.78-.03,1.44-.01,1.75.13,2.4.3,1.34.79,2.29,1.58,3.07.33.32,1.24.96,1.37.96.02,0,.08-.41.13-.92.74-7.31,4.35-13.96,10.64-19.62,1.23-1.11,2.46-2.12,2.57-2.12.03,0,0,.4-.08.87Zm-5.65,12.14c-1.5,2.54-2.7,5.71-3.25,8.62-.09.49-.23,1.81-.33,3.11-.22,3.11-.4,3.86-1.79,7.57-1.28,3.42-1.6,4.79-1.6,6.86.01,3.99,2.36,7.53,5.82,8.78,1.92.69,4.16.62,6.02-.19,2.4-1.04,4.26-3.05,5.24-5.63,1.12-2.94.98-6.38-.41-9.97-.68-1.76-1.37-3.07-3.4-6.46-1.71-2.85-2.52-4.32-3.15-5.7-1.23-2.7-1.93-5.25-2.09-7.68l-.06-.89-.28.41c-.16.22-.48.75-.74,1.16Zm14.05,12.29c-.45.8-.74,1.81-.9,3.05-.21,1.65-.12,3.28.36,6.41.17,1.08.32,2.41.35,2.95.16,3.34-1.16,6.44-3.77,8.85-.89.82-1.39,1.18-2.63,1.87l-.82.46.42.02c.73.03,1.94-.14,2.81-.39,2.04-.59,3.9-1.88,5.14-3.58,1.58-2.17,2.1-4.72,1.56-7.73-.16-.96-.7-2.82-1.34-4.75-.83-2.48-1.03-3.67-.95-5.74.03-.83.09-1.64.13-1.78.04-.13.05-.25.03-.25-.02,0-.19.28-.39.62Zm-24.19,2.71c-.03,1.76-.33,2.84-1.45,5.19-1.05,2.21-1.37,3.26-1.51,4.98-.19,2.37.33,4.54,1.54,6.39,1.45,2.23,3.84,3.58,6.12,3.47.32-.02.58-.05.58-.08,0-.03-.26-.23-.59-.45-2.49-1.66-4.17-4.32-4.72-7.47-.11-.68-.13-1.05-.07-2.36.06-1.49.08-1.62.4-2.95.51-2.06.59-2.52.63-3.76.05-1.19-.05-1.97-.37-2.91-.13-.37-.48-1.11-.52-1.12,0,0-.02.48-.04,1.08Z"/>
        <path class="cls-1" d="m1945.13,180.19c.24,2.12.26,6.77.03,8.61-.41,3.29-1.3,6.07-2.87,8.91-.62,1.12-1.62,2.65-2.33,3.54l-.52.66-.18-.45c-.59-1.44-1.77-3.42-2.84-4.76-1.26-1.57-3.08-3.24-4.71-4.31-.66-.43-2.6-1.51-2.72-1.51-.02,0,.09.45.27.99,1.32,4.29,2.01,8.31,2.01,11.74,0,2.73-.46,5.29-1.45,8.02-.48,1.31-1.04,3.28-1.3,4.51-.23,1.13-.24,1.25-.25,3.05,0,2.05.06,2.51.52,3.94.31,1,1.2,2.76,1.84,3.67.29.41,1,1.22,1.59,1.8,1.5,1.51,2.74,2.3,4.61,2.91,1.71.57,1.3.55,10.42.58,5.64.02,8.46,0,9.06-.06,3.45-.34,6.18-2.08,8.1-5.13,1.39-2.21,2.23-5.02,2.6-8.66.39-3.9,1.32-7.17,3.14-11.06.55-1.18,1.74-3.48,1.92-3.71s-.09-.19-1.06.14c-2.84.95-5.15,2.64-6.63,4.84-.21.32-.41.6-.43.62s-.02-.52,0-1.21c.02-.87.11-1.68.27-2.65.37-2.16.43-2.9.38-4.29-.08-2.28-.71-4.22-2.07-6.32-.57-.89-1.72-2.37-1.9-2.44-.03-.02-.02.11,0,.27.17.77.25,2.24.21,3.79-.03,1.44-.06,1.75-.23,2.4-.35,1.33-.88,2.26-1.7,3-.34.3-1.28.91-1.41.91-.02,0-.06-.41-.09-.92-.44-7.34-3.76-14.13-9.81-20.04-1.18-1.16-2.37-2.23-2.48-2.23-.03,0-.02.4.04.87Zm5.14,12.36c1.4,2.6,2.46,5.82,2.89,8.74.07.49.16,1.82.2,3.12.09,3.12.24,3.87,1.48,7.64,1.14,3.47,1.4,4.85,1.31,6.93-.18,3.99-2.67,7.43-6.18,8.53-1.94.61-4.19.45-6-.45-2.35-1.14-4.13-3.22-5-5.85-1-2.98-.71-6.41.83-9.94.75-1.73,1.5-3.01,3.66-6.32,1.83-2.77,2.69-4.21,3.38-5.56,1.34-2.65,2.15-5.17,2.4-7.58l.09-.89.27.42c.15.23.45.77.69,1.19Zm-14.55,11.69c.41.82.66,1.83.77,3.08.14,1.66-.02,3.28-.62,6.39-.21,1.07-.42,2.4-.47,2.94-.3,3.33.89,6.48,3.4,9,.85.86,1.34,1.23,2.55,1.98l.8.49h-.42c-.73,0-1.93-.22-2.8-.51-2.01-.67-3.82-2.05-4.98-3.79-1.48-2.23-1.9-4.8-1.23-7.79.2-.95.81-2.79,1.54-4.69.94-2.44,1.19-3.62,1.19-5.7,0-.84-.02-1.64-.05-1.78-.03-.13-.04-.25-.02-.25.02,0,.18.29.36.64Zm24.06,3.72c-.05,1.76.21,2.85,1.23,5.25.96,2.25,1.23,3.32,1.3,5.04.09,2.37-.52,4.52-1.8,6.32-1.55,2.17-3.99,3.42-6.26,3.21-.32-.03-.58-.08-.58-.1,0-.03.27-.22.61-.42,2.56-1.55,4.35-4.15,5.03-7.27.14-.67.17-1.05.17-2.36,0-1.49-.02-1.62-.28-2.97-.42-2.08-.48-2.54-.48-3.79,0-1.19.13-1.97.49-2.89.14-.37.52-1.09.57-1.09,0,0,0,.48,0,1.08Z"/>
        <path class="cls-1" d="m2008.46,186.09c-1.02,1.87-2.78,6.18-3.26,7.97-.86,3.2-1.07,6.12-.68,9.34.15,1.27.51,3.06.84,4.15l.24.8.34-.35c1.08-1.11,2.93-2.5,4.42-3.35,1.75-.98,4.08-1.85,5.98-2.23.77-.15,2.98-.42,3.09-.37.02,0-.25.38-.62.82-2.84,3.48-4.98,6.95-6.27,10.12-1.03,2.53-1.56,5.08-1.66,7.98-.05,1.39-.27,3.43-.48,4.67-.21,1.14-.24,1.25-.91,2.92-.77,1.9-1,2.3-1.96,3.46-.66.81-2.15,2.11-3.09,2.71-.42.28-1.38.75-2.15,1.08-1.96.83-3.4,1.1-5.36.97-1.8-.11-1.41.02-9.88-3.38-5.23-2.1-7.84-3.18-8.37-3.46-3.07-1.61-4.95-4.25-5.58-7.79-.46-2.57-.18-5.49.84-9,1.1-3.76,1.47-7.14,1.24-11.43-.06-1.3-.31-3.88-.39-4.16s.15-.14.93.53c2.28,1.95,3.79,4.38,4.33,6.98.08.38.15.71.16.74s.22-.48.45-1.12c.3-.81.53-1.6.74-2.56.47-2.14.69-2.85,1.26-4.12.93-2.08,2.24-3.65,4.29-5.09.86-.61,2.48-1.55,2.68-1.55.03,0-.02.11-.11.25-.45.64-1.07,1.98-1.62,3.44-.51,1.35-.6,1.64-.68,2.31-.17,1.36-.03,2.42.45,3.42.2.41.85,1.32.97,1.37.02,0,.21-.36.43-.82,3.16-6.64,8.79-11.69,16.62-14.89,1.53-.63,3.04-1.17,3.13-1.13.03.01-.14.37-.36.8Zm-9.4,9.53c-2.27,1.89-4.46,4.47-5.96,7.02-.25.43-.83,1.63-1.35,2.82-1.26,2.85-1.68,3.5-4.23,6.52-2.36,2.79-3.12,3.97-3.82,5.93-1.33,3.77-.31,7.88,2.53,10.23,1.57,1.29,3.71,1.98,5.73,1.84,2.61-.17,5.04-1.44,6.83-3.54,2.05-2.39,3.07-5.67,2.96-9.52-.04-1.89-.26-3.36-1.02-7.23-.65-3.26-.92-4.91-1.05-6.42-.25-2.96-.05-5.6.62-7.93l.25-.86-.4.29c-.22.15-.71.54-1.09.85Zm9.1,16.3c-.69.6-1.3,1.45-1.87,2.57-.75,1.48-1.22,3.05-1.82,6.15-.21,1.07-.51,2.38-.67,2.9-.98,3.2-3.26,5.67-6.53,7.07-1.11.48-1.7.64-3.11.87l-.92.16.39.16c.67.27,1.87.52,2.78.58,2.12.13,4.31-.46,6.04-1.65,2.21-1.51,3.56-3.74,4.07-6.76.17-.96.29-2.89.34-4.93.05-2.62.26-3.8,1.04-5.73.31-.77.64-1.51.72-1.63.08-.11.13-.22.12-.22-.02,0-.27.2-.57.46Zm-23.69-5.59c-.62,1.65-1.27,2.56-3.11,4.4-1.73,1.72-2.39,2.61-3.1,4.18-.98,2.16-1.21,4.39-.7,6.53.62,2.59,2.41,4.67,4.6,5.33.31.09.56.14.57.12,0-.03-.17-.31-.41-.62-1.79-2.4-2.47-5.48-1.93-8.63.12-.68.23-1.03.73-2.25.56-1.38.62-1.5,1.37-2.64,1.17-1.77,1.4-2.17,1.86-3.33.45-1.11.62-1.87.63-2.86,0-.39-.07-1.21-.12-1.23,0,0-.18.45-.4,1Z"/>
        <path class="cls-1" d="m2064.61,183.19c.94,1.91,2.52,6.29,2.93,8.1.72,3.23.82,6.16.29,9.36-.2,1.27-.64,3.04-1.01,4.12l-.27.79-.32-.37c-1.03-1.16-2.82-2.62-4.28-3.53-1.71-1.05-3.99-2.01-5.88-2.47-.76-.18-2.96-.54-3.07-.5-.02,0,.24.39.58.84,2.69,3.6,4.68,7.15,5.85,10.37.92,2.57,1.35,5.14,1.33,8.04,0,1.4.13,3.44.29,4.68.16,1.14.19,1.26.79,2.96.69,1.93.9,2.34,1.81,3.54.63.84,2.06,2.2,2.97,2.84.41.29,1.35.81,2.1,1.17,1.92.91,3.35,1.24,5.32,1.19,1.8-.04,1.41.08,10.01-2.96,5.31-1.88,7.97-2.85,8.51-3.11,3.13-1.48,5.12-4.04,5.9-7.55.57-2.55.41-5.48-.46-9.03-.95-3.81-1.17-7.19-.77-11.47.12-1.29.47-3.87.56-4.14s-.14-.15-.95.49c-2.36,1.85-3.96,4.22-4.61,6.79-.09.37-.18.7-.19.73s-.2-.48-.41-1.14c-.27-.82-.46-1.62-.64-2.59-.38-2.15-.57-2.88-1.08-4.17-.84-2.12-2.09-3.74-4.08-5.26-.84-.65-2.41-1.65-2.61-1.66-.03,0,.01.11.1.25.42.66.99,2.03,1.48,3.5.46,1.37.53,1.67.59,2.34.12,1.37-.07,2.42-.59,3.4-.22.4-.9,1.28-1.03,1.33-.02,0-.2-.37-.4-.84-2.88-6.76-8.3-12.04-15.99-15.57-1.5-.69-2.98-1.3-3.08-1.26-.03.01.12.38.33.81Zm9,9.91c2.19,1.98,4.27,4.65,5.66,7.26.23.44.76,1.66,1.23,2.88,1.14,2.9,1.53,3.57,3.96,6.69,2.24,2.88,2.95,4.1,3.57,6.08,1.17,3.82-.02,7.89-2.95,10.12-1.63,1.23-3.79,1.83-5.8,1.6-2.6-.28-4.97-1.65-6.68-3.82-1.94-2.47-2.83-5.8-2.56-9.64.12-1.88.4-3.34,1.32-7.18.79-3.22,1.12-4.87,1.31-6.37.37-2.94.28-5.59-.29-7.95l-.21-.87.39.31c.22.16.68.57,1.05.89Zm-9.77,15.9c.67.63,1.24,1.5,1.77,2.64.69,1.51,1.09,3.09,1.56,6.22.16,1.08.41,2.4.55,2.92.84,3.24,3.02,5.8,6.23,7.34,1.09.52,1.67.71,3.07,1l.92.2-.4.14c-.68.24-1.89.44-2.8.46-2.12.05-4.28-.64-5.97-1.9-2.15-1.6-3.4-3.88-3.78-6.92-.13-.97-.17-2.9-.13-4.94.06-2.62-.1-3.81-.8-5.77-.28-.79-.57-1.54-.65-1.66-.07-.11-.12-.22-.11-.23.02,0,.27.21.55.48Zm23.9-4.59c.55,1.67,1.16,2.61,2.93,4.53,1.66,1.79,2.28,2.71,2.92,4.3.89,2.2,1.03,4.43.43,6.56-.73,2.56-2.61,4.56-4.82,5.13-.31.08-.57.12-.58.1,0-.03.18-.3.43-.6,1.89-2.32,2.7-5.37,2.29-8.54-.09-.68-.19-1.04-.63-2.28-.5-1.4-.56-1.52-1.26-2.7-1.1-1.81-1.31-2.23-1.72-3.41-.4-1.12-.54-1.9-.51-2.89,0-.39.12-1.21.17-1.22,0,0,.16.46.36,1.02Z"/>
      </g>
    </g>
      <g transform="translate(1100, 220)"> <!-- Adjust the translation values as needed -->
        <text x="0" y="0" font-family="Arial" font-size="70" font-weight="bold" fill="white" text-anchor="middle">@metric_name</text>
        <text x="0" y="100" font-family="Arial" font-size="90" font-weight="bold" fill="white" text-anchor="middle">@name</text>
        <text x="0" y="170" font-family="Arial" font-size="50" font-weight="regular" fill="white" text-anchor="middle">@value</text>
    </g>
  </g>
</svg>