<?xml version="1.0" encoding="UTF-8"?>
<svg id="Layer_2" data-name="Layer 2" xmlns="http://www.w3.org/2000/svg" viewBox="0 0 2306.54 546.05">
  <defs>
    <style>
      .cls-1 {
        fill: #fff;
      }

      .cls-2 {
        fill: #c62828;
      }
    </style>
  </defs>
  <g id="Layer_1-2" data-name="Layer 1">
    <g>
      <rect class="cls-1" x="99.17" y="90.11" width="2207.37" height="382.21"/>
      <rect class="cls-2" x="136.22" y="118.2" width="2139.45" height="326.03"/>
      <path class="cls-2" d="m198.84,546.05C81.37,491.02,0,371.78,0,233.5V47.35C114.72,47.35,198.84,0,198.84,0c0,0,84.14,47.35,198.85,47.35v186.15c0,138.28-81.37,257.51-198.83,312.55h-.02Z"/>
      <path class="cls-1" d="m198.84,536.11C87.25,483.08,9.96,368.18,9.96,234.94V55.57c108.97,0,188.88-45.63,188.88-45.63,0,0,79.93,45.63,188.89,45.63v179.37c0,133.24-77.3,248.13-188.87,301.17h-.01Z"/>
      <path class="cls-2" d="m198.84,518.22C97.32,468.8,26.99,361.71,26.99,237.53V70.36c99.14,0,171.85-42.53,171.85-42.53,0,0,72.72,42.53,171.85,42.53v167.17c0,124.18-70.33,231.26-171.84,280.69h-.01Z"/>
      <g>
        <path class="cls-1" d="m50.94,126.78s24.7,40.22,24.72,41.69c.11,7.22,0,27.25,0,26.4,0,0,1.02,7.61-5.73,9.33v1.46h28.84v-1.46s-5.85-.9-5.85-9.5c0-7.47.06-21.89.08-25.54,0-.56.15-1.1.44-1.59,3.19-5.4,22.96-38.86,24.54-40.79.9-.86,2.24-.73,2.24-.73v-2.41h-24.46v2.88s2.88-.13,2.88,1.46c-.56,2.11-14.23,25.96-14.23,25.96-2.8-4.71-10.95-21.63-12.69-25.27-.31-.65-.05-1.44.6-1.76.42-.21,1.03-.38,1.91-.43-.04-1.63.04-2.84.04-2.84h-25.75v2.24s1.87,0,2.41.9Z"/>
        <path class="cls-1" d="m119.66,205.69v-1.43s5.61-1.63,5.75-4.55c.14-2.91,0-83.13,0-83.13l56.06,58.62v-44.19s-.21-5.04-4.33-4.9l.07-2.34h24.51v2.49s-5.68.14-5.75,4.76,0,81.71,0,81.71l-54.78-58.9v44.62s.94,4.43,5.82,5.82c0,.98.03,1.43.03,1.43h-27.38Z"/>
        <g>
          <path class="cls-1" d="m236.12,145.95s0,0,0,0c-.21-.06-.43.06-.49.29-.29.98-1.02,1.75-1.95,2.06-1.56.51-3.21-.41-3.7-2.06,0,0,0,0,0,0-.07-.22-.29-.35-.5-.28-.21.07-.33.31-.27.53.37,1.24,1.29,2.22,2.47,2.61,1.99.66,4.1-.51,4.72-2.61,0,0,0,0,0,0,.06-.23-.06-.46-.27-.53Z"/>
          <path class="cls-1" d="m247.28,148.96c-.22-.05-.43.09-.48.32-.24.81-.83,1.44-1.6,1.68-1.28.42-2.63-.34-3.02-1.68,0-.02-.01-.04-.02-.06-.08-.22-.31-.33-.52-.24-.21.09-.31.33-.23.55.32,1.06,1.1,1.89,2.1,2.22,1.7.57,3.51-.43,4.05-2.22,0-.02.01-.04.02-.06.05-.23-.09-.46-.3-.51Z"/>
          <path class="cls-1" d="m240.36,168.97c.22,0,.4-.19.4-.43v-2.07c0-.24-.18-.43-.4-.43s-.4.19-.4.43v2.07c0,.24.18.43.4.43Z"/>
          <path class="cls-1" d="m263.35,142.25c-4.7-6.65-11.05-11.54-19.07-14.69-3.6-1.37-7.79-2.68-12.18-3.31-3.69-.53-4.71-.6-8.74-.6h-.02s-1.14,0-1.14,0h-15.92l-.06,2.35c3.39-.14,3.57,4.91,3.57,4.91v67.53s-.18,5.04-3.57,4.89l.06,2.35h16.91l.03-.02c.82-.01,1.61-.04,2.39-.06,4.76-.16,8.87-.56,12.28-1.24,4.54-.88,8.61-2.27,12.18-4.19,6.43-3.48,11.42-8.35,14.98-14.56,3.55-6.2,5.32-13.21,5.32-21.01,0-8.23-2.35-15.67-7.03-22.33Zm-14,43.78c0,2.8-6.35,4.2-12.71,4.2s-12.71-1.4-12.71-4.2v-29.69c.78.54,1.65.9,2.57,1.04v25.8c0,2.51,5.44,3.41,10.1,3.41s10.17-.87,10.17-3.41v-27.07h.04c.88,0,1.75-.22,2.54-.63v30.55Zm-16.31-12.73c1.37.07,2.54-1.05,2.6-2.5v-13.9c1.01-.2,1.95-.7,2.69-1.45.46.49,1.01.88,1.61,1.14v6.95c0,.24.18.43.4.43s.4-.19.4-.43v-6.7c.63.14,1.28.14,1.92,0v16.36c0,.24.18.43.4.43s.4-.19.4-.43v-16.6c.49-.2.94-.49,1.35-.85.37.14.75.24,1.14.3v27.14c0,1.44-4.11,2.58-9.36,2.58s-9.29-1.13-9.29-2.58v-25.71h.18c1.12,0,2.21-.3,3.19-.88v14.2c.06,1.35,1.09,2.44,2.37,2.5Zm13.77-18.05c-.75,0-1.48-.17-2.15-.52-.22.25-.47.47-.74.65-1.87,1.28-4.37.72-5.58-1.25-.8,1.22-2.1,1.97-3.51,2.02v14.66c-.05.9-.73,1.62-1.58,1.67-.93.06-1.72-.69-1.77-1.67v-15.91c-.79.82-1.79,1.39-2.87,1.62-3.08.65-6.07-1.45-6.69-4.7-.62-3.25,1.37-6.41,4.45-7.07-.09-.36-.13-.73-.13-1.1,0-1.65.94-3.14,2.38-3.78,1.98-.88,4.27.1,5.1,2.19.32-.08.64-.12.97-.11.71,0,1.41.18,2.05.52.52-2.04,2.29-3.45,4.29-3.42,2.42.04,4.35,2.14,4.32,4.69,0,.43-.06.86-.17,1.28.52-.19,1.07-.29,1.62-.29,2.76,0,5,2.35,5.01,5.27,0,2.9-2.23,5.25-4.98,5.26Zm3.33,4.43h3.54c.53,0,.96.46.96,1.02v8.24c0,.36-.15.7-.43.92l-4.07,3.41v-13.58Zm7.85,10.03c0,1.4-.59,2.73-1.61,3.62l-6.24,5.33v-4.33l4.58-3.82c.46-.38.72-.96.72-1.57v-8.24s0-.02,0-.02c0-1.03-.8-1.87-1.78-1.86h-3.52v-3.16h4.07c2.09.02,3.78,1.81,3.78,4.02v10.04Z"/>
        </g>
        <path class="cls-1" d="m327.92,166l-22.01-48.58s-7.61,15.31-22.84,49.05c-15.22,33.73-20.17,37.67-20.17,37.67v1.53l25.85.07s.05-.7,0-1.6c-5.02-3.65-1.48-8.62-1.48-8.62l4.41-8.62s25.53-.03,27.28-.03,2.03,1.02,5.76,8.75-2.81,8.4-2.81,8.4v1.73h27.25v-1.73c-11.38-17.11-21.23-38.01-21.23-38.01Zm-33.33,10.11l11.32-28.42,11.32,28.42h-22.64Z"/>
      </g>
      <g>
        <path class="cls-1" d="m267.72,313.35c4.49,1,3.16,15.13,16.64,13.28-2.07-8.37-8.39-12.54-14.52-13.52-2.96-.61-3.97-.43-3.02.48.75.4,1.06.32.9-.24Z"/>
        <path class="cls-1" d="m294.21,374.56c-10.89-4.92-18.14,5.26-20.35,11.64,7.05.71,15.1-2.28,18.53-10.98.56-.3,1.12.03,1.59.45-1.33.22-.61,1.56.44,1.36.82-.16,1.92-1.5-.21-2.47Z"/>
        <path class="cls-1" d="m273.36,384.29c4.9-8.3,1.9-15.35-3.39-19.6-2.43-2.23-3.59-2.66-3.44-1.32.42.78.8.87,1.12.31,3.62,3.39-9.84,14.79,5.72,20.61Z"/>
        <path class="cls-1" d="m286.62,389.16c-10.28-5.5-18.8,3.89-21.74,9.98,7.01,1.18,15.39-1.19,19.84-9.44.61-.25,1.14.1,1.53.54-1.33.13-.78,1.46.31,1.33.82-.09,2.08-1.33.07-2.41Z"/>
        <path class="cls-1" d="m243.37,400.34c-.96-3.07-1.82-3.98-2.56-2.73-.11.87.18,1.14.91.79,1.35,4.66-19.59,8.83-7.91,21.11,10.3-5.35,12.01-12.99,9.57-19.16Z"/>
        <path class="cls-1" d="m280.54,370.57c2.97-9.12-1.44-15.96-7.47-19.58-2.85-1.92-4.04-2.21-3.6-.86.58.76.94.82,1.14.19,4.22,2.96-6.37,16.49,9.94,20.25Z"/>
        <path class="cls-1" d="m298.76,357.85c-11.69-3.61-16.54,7.81-17.31,14.61,7.03-.25,14.24-4.33,15.67-13.68.49-.38,1.12-.12,1.66.25-1.25.4-.25,1.67.74,1.33.78-.27,1.53-1.8-.77-2.51Z"/>
        <path class="cls-1" d="m215.32,430.42c-4.69.36-10.81,2.84-16.48,6.54-5.68-3.7-11.79-6.18-16.48-6.54-7.09-4.18-21.81-8.6-28.03,1.15-1.21,1.9.84,2.43,1.73,2.12,1.14-.39.76-1.85-.64-1.34.09-.59.36-1.14,1.11-1.21,8.29,4.45,16.45,4.01,22.42,1.26.9-.12,1.72-.18,2.38-.03,5.19,1.17,10.04,3.73,14.13,6.96-6.71,5.16-12.17,11.95-12.81,18.76.27.71.67,1.33,1.2,1.85.54.52,1.25.9,2.13,1.1,1.19.27,2.75.2,4.76-.3-1.22-5.4,2.19-12.57,8.11-18.45,5.91,5.87,9.33,13.05,8.11,18.45,2.01.5,3.56.57,4.76.3.88-.19,1.59-.58,2.13-1.1.53-.51.92-1.14,1.2-1.85-.64-6.81-6.1-13.6-12.81-18.76,4.09-3.23,8.94-5.79,14.13-6.96.66-.15,1.48-.09,2.38.03,5.97,2.75,14.13,3.19,22.42-1.26.76.06,1.02.62,1.11,1.21-1.4-.52-1.78.94-.64,1.34.89.31,2.94-.22,1.73-2.12-6.21-9.75-20.94-5.33-28.03-1.15Z"/>
        <path class="cls-1" d="m228.72,410.57c-.53-3.13-1.24-4.12-2.19-2.96-.23.86.05,1.14.79.86.7,4.71-20.85,6.79-10.94,20.03,11.06-4.27,13.87-11.62,12.33-17.94Z"/>
        <path class="cls-1" d="m264.58,397.21c5.9-7.75,3.79-14.83-1.04-19.34-2.16-2.34-3.29-2.86-3.3-1.53.33.78.69.91,1.08.39,3.25,3.55-11.75,13.61,3.26,20.48Z"/>
        <path class="cls-1" d="m284.45,356.83c5.7-.47,11.3-4.21,11.74-12.21.36-.32.88-.12,1.38.19-.99.39-.09,1.43.7,1.09.61-.26,1.13-1.56-.83-2.08-9.8-2.59-12.9,7.22-12.99,13.01Z"/>
        <path class="cls-1" d="m290.96,312.1c.19-.47.76-.44,1.33-.25-.73.67.54,1.44,1.12.88.43-.43.32-1.95-1.68-1.85-10.16.49-8.43,11.21-5.86,17.06,4.96-2.2,8.32-7.69,5.08-15.84Z"/>
        <path class="cls-1" d="m275.9,339.04c-2.5-1.49-3.51-1.66-3.05-.56.55.57.85.62.95.09,3.74,2.3-3.86,14.2,9.75,16.7,1.7-7.83-2.41-13.44-7.65-16.23Z"/>
        <path class="cls-1" d="m251.42,409.4c7.94-7.15,7.26-14.73,3.2-20.09-1.78-2.73-2.85-3.42-3.17-2.08.17.87.52,1.06,1.06.58,2.61,4.13-15.44,12.26-1.09,21.6Z"/>
        <path class="cls-1" d="m274.28,325.59h0c-2.8-1.07-3.8-1.11-3.11-.06.68.51.98.48.95-.06,4.18,1.7-.54,14.94,13.2,15.48-.03-8.31-5.28-13.4-11.03-15.37Z"/>
        <path class="cls-1" d="m286.52,342.44c5.45-1.31,10.04-5.93,8.75-14.23.28-.39.83-.27,1.34-.01-.86.53.23,1.46.92,1.02.55-.36.77-1.79-1.22-2.04-10.09-1.25-10.96,9.27-9.79,15.25Z"/>
        <path class="cls-1" d="m251.32,411.44c7.14,2.25,16.53,1.03,23.03-6.81.71-.17,1.17.27,1.5.77-1.46-.06-1.17,1.4,0,1.42.91.02,2.5-1.06.61-2.46-9.62-7.15-20.7,1.17-25.15,7.07Z"/>
        <path class="cls-1" d="m233.05,421.51c6.53,3.75,16.47,4.55,25.57-1.81.76-.02,1.09.52,1.27,1.09-1.46-.37-1.6,1.12-.42,1.4.9.21,2.85-.51,1.38-2.3-7.52-9.14-21.43-3.25-27.8,1.61Z"/>
        <path class="cls-1" d="m129.97,313.35c-.16.56.15.64.9.24.95-.91-.06-1.08-3.02-.48-6.13.98-12.45,5.15-14.52,13.52,13.48,1.85,12.15-12.28,16.64-13.28Z"/>
        <path class="cls-1" d="m123.82,386.21c-2.21-6.39-9.46-16.57-20.35-11.64-2.13.96-1.04,2.31-.21,2.47,1.05.2,1.77-1.13.44-1.36.47-.42,1.03-.75,1.59-.45,3.43,8.7,11.48,11.69,18.53,10.98Z"/>
        <path class="cls-1" d="m130.05,363.68c.32.55.7.46,1.12-.31.15-1.34-1.01-.91-3.44,1.32-5.3,4.25-8.29,11.3-3.39,19.6,15.55-5.82,2.1-17.22,5.72-20.61Z"/>
        <path class="cls-1" d="m132.81,399.13c-2.94-6.09-11.46-15.47-21.74-9.98-2.01,1.08-.75,2.31.07,2.41,1.09.12,1.65-1.2.31-1.33.39-.44.92-.79,1.53-.54,4.44,8.26,12.83,10.62,19.84,9.44Z"/>
        <path class="cls-1" d="m163.88,419.51c11.68-12.29-9.26-16.45-7.91-21.11.72.36,1.01.09.91-.79-.74-1.25-1.6-.33-2.56,2.73-2.45,6.17-.73,13.81,9.57,19.16Z"/>
        <path class="cls-1" d="m127.09,350.31c.19.63.56.58,1.14-.19.43-1.35-.76-1.06-3.6.86-6.04,3.62-10.44,10.46-7.47,19.58,16.3-3.76,5.71-17.3,9.94-20.25Z"/>
        <path class="cls-1" d="m116.24,372.46c-.77-6.8-5.62-18.21-17.31-14.61-2.3.71-1.55,2.24-.77,2.51.99.34,1.99-.93.74-1.33.55-.37,1.17-.64,1.66-.25,1.43,9.35,8.65,13.43,15.67,13.68Z"/>
        <path class="cls-1" d="m181.3,428.51c9.91-13.24-11.64-15.32-10.94-20.03.75.28,1.02,0,.79-.86-.94-1.16-1.66-.17-2.19,2.96-1.54,6.32,1.27,13.67,12.33,17.94Z"/>
        <path class="cls-1" d="m133.11,397.21c15.02-6.87.02-16.92,3.26-20.48.39.52.75.4,1.08-.39,0-1.32-1.13-.81-3.3,1.53-4.83,4.51-6.95,11.59-1.04,19.34Z"/>
        <path class="cls-1" d="m99.42,345.9c.79.33,1.69-.71.7-1.09.5-.3,1.02-.51,1.38-.19.44,8,6.04,11.73,11.74,12.21-.08-5.79-3.18-15.6-12.99-13.01-1.96.52-1.44,1.82-.83,2.08Z"/>
        <path class="cls-1" d="m105.39,311.85c.57-.19,1.14-.22,1.33.25-3.23,8.15.13,13.64,5.08,15.84,2.57-5.85,4.3-16.57-5.86-17.06-1.99-.1-2.11,1.42-1.68,1.85.58.57,1.85-.21,1.12-.88Z"/>
        <path class="cls-1" d="m123.89,338.56c.11.53.4.49.95-.09.46-1.09-.54-.93-3.05.56-5.24,2.79-9.35,8.4-7.65,16.23,13.61-2.5,6.01-14.4,9.75-16.7Z"/>
        <path class="cls-1" d="m145.17,387.8c.54.48.9.3,1.06-.58-.33-1.34-1.39-.65-3.17,2.08-4.06,5.37-4.73,12.94,3.2,20.09,14.35-9.34-3.71-17.47-1.09-21.6Z"/>
        <path class="cls-1" d="m125.58,325.47c-.03.54.27.56.95.06.69-1.06-.31-1.01-3.11.05h0c-5.75,1.98-11,7.06-11.03,15.38,13.74-.54,9.03-13.78,13.21-15.48Z"/>
        <path class="cls-1" d="m101.08,328.2c.51-.26,1.07-.38,1.34.01-1.3,8.3,3.3,12.92,8.75,14.23,1.18-5.98.3-16.51-9.79-15.25-1.99.25-1.78,1.68-1.22,2.04.69.44,1.77-.49.92-1.02Z"/>
        <path class="cls-1" d="m146.37,411.44c-4.45-5.9-15.53-14.22-25.15-7.07-1.88,1.4-.3,2.48.61,2.46,1.18-.03,1.47-1.48,0-1.42.33-.51.79-.94,1.5-.77,6.5,7.84,15.89,9.06,23.03,6.81Z"/>
        <path class="cls-1" d="m136.83,419.9c-1.47,1.79.48,2.51,1.38,2.3,1.19-.28,1.04-1.77-.42-1.4.18-.57.51-1.11,1.27-1.09,9.09,6.36,19.04,5.56,25.57,1.81-6.38-4.86-20.29-10.75-27.81-1.61Z"/>
      </g>
      <g>
        <path class="cls-1" d="m269.79,246.47c-3-5.19-7.85-8.69-13.24-10.14-5.38-1.44-11.33-.83-16.52,2.17l-1.29.74c.13-3.28.2-6.49.23-9.57h-74.5c.03,3.08.1,6.29.23,9.57l-1.29-.74c-5.19-3-11.14-3.6-16.52-2.16-5.21,1.39-9.91,4.71-12.93,9.63l-.42.69-.42.78c-2.54,4.95-2.99,10.51-1.63,15.57,1.44,5.4,4.94,10.25,10.12,13.24l25.39,14.66.03.02,3.55,2.05c1.29.74,2.16,1.96,2.52,3.31.36,1.35.21,2.83-.53,4.12l-.16.28c-.75,1.13-1.89,1.9-3.15,2.24-1.36.36-2.85.22-4.14-.52l-3.81,6.64c3.12,1.81,6.7,2.17,9.93,1.3,3.23-.87,6.14-2.97,7.96-6.1l.13-.23c5.39,8.39,12.65,13.73,22.36,13.73s16.97-5.35,22.37-13.74l.13.23c1.81,3.13,4.73,5.23,7.95,6.1,3.23.87,6.81.5,9.93-1.3l-3.81-6.64c-1.29.74-2.78.89-4.13.52-1.26-.34-2.4-1.11-3.15-2.24l-.16-.28c-.74-1.28-.89-2.77-.53-4.12.36-1.35,1.23-2.57,2.52-3.32l3.59-2.07.07-.04,25.31-14.6c5.19-2.99,8.68-7.84,10.13-13.24,1.44-5.38.84-11.33-2.15-16.54Zm-124.32,23.14c-3.35-1.93-5.61-5.09-6.55-8.59-.94-3.5-.55-7.36,1.38-10.71l.26-.44c1.94-3.12,4.97-5.23,8.33-6.13,3.45-.92,7.24-.57,10.56,1.29l5.78,3.33c.88,12.15,2.63,24.81,5.8,35.98l-25.54-14.74Zm119.06-8.59c-.94,3.5-3.2,6.65-6.55,8.6l-25.55,14.74c3.17-11.17,4.92-23.83,5.8-35.98,0,0,5.61-3.23,5.61-3.23,3.36-1.94,7.22-2.32,10.73-1.39,3.5.94,6.65,3.2,8.6,6.56,1.92,3.35,2.31,7.21,1.37,10.71Z"/>
        <polygon class="cls-1" points="201.72 356.24 168.82 356.24 159.44 379.6 244 379.6 234.62 356.24 201.72 356.24"/>
        <path class="cls-1" d="m213.43,350.48c-2.53-4.2-3.79-9.04-3.84-14.23-.04-4.66.89-9.6,2.74-14.61-3.22,1.22-6.75,1.88-10.61,1.88s-7.39-.66-10.61-1.88c1.86,5.01,2.79,9.95,2.74,14.61-.05,5.2-1.31,10.04-3.84,14.24h23.42Z"/>
      </g>
      <path class="cls-1" d="m2154.81,197.45c0,17.88-14.49,32.37-32.37,32.37s-32.37-14.49-32.37-32.37,14.49-32.37,32.37-32.37h0c17.87.02,32.35,14.5,32.37,32.37Zm96.19,199.91l-38.04-147.05c-2.52-9.69-11.28-16.46-21.3-16.44h-22.36c20.18-25.88,15.57-63.22-10.31-83.4-25.88-20.18-63.22-15.57-83.4,10.31-16.76,21.48-16.76,51.61,0,73.09h-22.32c-10.02-.03-18.79,6.74-21.3,16.44l-38.08,147.05c-1.68,6.48-.24,13.38,3.88,18.66,4.19,5.41,10.66,8.56,17.51,8.52h214.35c6.84.04,13.32-3.11,17.51-8.52,4.12-5.28,5.55-12.17,3.88-18.66Z"/>
    </g>
      <g transform="translate(1100, 220)"> <!-- Adjust the translation values as needed -->
        <text x="0" y="0" font-family="Arial" font-size="70" font-weight="bold" fill="white" text-anchor="middle">@metric_name</text>
        <text x="0" y="100" font-family="Arial" font-size="90" font-weight="bold" fill="white" text-anchor="middle">@name</text>
        <text x="0" y="170" font-family="Arial" font-size="50" font-weight="regular" fill="white" text-anchor="middle">@value</text>
    </g>
  </g>
</svg>