<?xml version="1.0" encoding="UTF-8"?>
<svg id="Layer_2" data-name="Layer 2" xmlns="http://www.w3.org/2000/svg" viewBox="0 0 489.33 156.41">
  <defs>
    <style>
      .cls-1 {
        fill: #fff;
      }

      .cls-2 {
        fill: #c62828;
      }
    </style>
  </defs>
  <g id="Layer_1-2" data-name="Layer 1">
    <g>
      <path class="cls-2" d="m3.93,16.59s40.18,65.44,40.22,67.83c.18,11.74,0,44.33,0,42.95,0,0,1.66,12.39-9.32,15.19v2.38h46.93v-2.38s-9.51-1.47-9.51-15.46c0-12.16.11-35.62.13-41.55,0-.92.24-1.79.71-2.58,5.19-8.79,37.36-63.23,39.93-66.37,1.47-1.4,3.64-1.19,3.64-1.19v-3.92h-39.8v4.69s4.69-.21,4.69,2.38c-.91,3.43-23.15,42.24-23.15,42.24-4.55-7.66-17.81-35.2-20.65-41.12-.51-1.06-.09-2.35.97-2.87.68-.34,1.67-.61,3.11-.7-.07-2.66.07-4.62.07-4.62H0v3.64s3.04.02,3.93,1.47Z"/>
      <path class="cls-2" d="m115.74,144.98v-2.32s9.13-2.66,9.36-7.4c.23-4.74,0-135.26,0-135.26l91.21,95.37V23.47s-.35-8.21-7.05-7.98l.12-3.81h39.88v4.05s-9.25.23-9.36,7.75c-.12,7.51,0,132.94,0,132.94l-89.13-95.83v72.6s1.53,7.21,9.47,9.48c0,1.6.05,2.32.05,2.32h-44.54Z"/>
      <path class="cls-2" d="m318.5,17.84c-5.85-2.22-12.67-4.35-19.81-5.38-6-.87-7.67-.97-14.23-.98h-.02s-1.85,0-1.85,0c-.55,0-1.12,0-1.73,0h-24.17l-.1,3.82c5.52-.23,5.81,7.98,5.81,7.98v109.87s-.29,8.19-5.81,7.96l.1,3.82h27.52l.05-.04c1.33-.02,2.62-.06,3.89-.1,7.75-.26,14.43-.91,19.98-2.01,7.39-1.43,14.01-3.7,19.81-6.81,10.47-5.67,18.58-13.58,24.37-23.69,5.77-10.09,8.66-21.49,8.66-34.18,0-13.39-3.82-25.5-11.43-36.34-7.64-10.82-17.97-18.78-31.02-23.9Zm10.72,87.24c-5.25,8.48-12.5,15.01-21.71,19.62-3.52,1.83-7.2,3.21-11.05,4.12-3.85.94-7.86,1.38-12.04,1.38h-1.04V25.6c15.57-.18,29.43,6.46,39.13,16.43,9.73,9.95,14.59,22.3,14.59,37.08,0,10.32-2.64,17.52-7.89,25.97Z"/>
      <g>
        <path class="cls-1" d="m424,44.18c-.05-.2-.18-.62-.48-1.11-.29-.48-2.55-.64-4.37-.64s-4.07.16-4.36.64c-.3.5-.43.92-.48,1.11-.02.04-.03.08-.03.13,0,.16.11.29.26.29h9.24c.14,0,.26-.13.26-.29,0-.05-.01-.09-.03-.13Z"/>
        <g>
          <path class="cls-2" d="m454.78,80.26L418.96,1.23s-12.39,24.91-37.16,79.8c-24.77,54.89-32.83,61.29-32.83,61.29v2.48l42.06.12s.09-1.15,0-2.61c-8.17-5.94-2.41-14.02-2.41-14.02l7.18-14.03s41.54-.05,44.39-.05,3.31,1.65,9.37,14.23-4.58,13.66-4.58,13.66v2.81h44.33v-2.81c-18.52-27.83-34.55-61.84-34.55-61.84Zm-25.37,23.06s0,0,0,0c-1.48,1.6-6.96,1.9-9.56,1.95h0s-.26.01-.69,0c-.43,0-.69,0-.69,0h0c-2.59-.06-8.08-.35-9.56-1.95,0,0,0,0,0,0-.82-.74-1.34-1.81-1.34-3,0-4.82.34-4.6.34-4.6.04-.06.09-.11.15-.15v-20.63c-.26,0-.46-.22-.46-.47v-2.36c0-.52.1-1.02.27-1.48h0c.2-1,2.6-4.5,4.4-7.02.04-.06.08-.12.13-.17.23-.41.74-1.69,1.19-5.51,0,0,0,0,0,0l1.29-10.91c-.3,0-.53-.25-.53-.55s.25-.55.55-.55h.11l.07-.59h8.18l.07.59h.11c.3,0,.55.25.55.55s-.24.54-.53.55l1.29,10.91s0,0,0,0c.45,3.82.96,5.1,1.19,5.51.04.06.08.12.13.17h0c1.8,2.52,4.21,6.01,4.4,7.01h0c.17.46.27.96.27,1.48v2.36c0,.26-.2.47-.46.47v20.63c.06.04.11.09.15.15,0,0,.34-.22.34,4.6,0,1.19-.52,2.26-1.34,3Z"/>
          <path class="cls-2" d="m427.78,88.46c.2,0,.37-.08.37-.17v-11.25c0-.1-.17-.17-.37-.17s-.37.08-.37.17v11.25c0,.1.17.17.37.17Z"/>
          <path class="cls-2" d="m409.85,74.78c-.23,0-.42.19-.42.42s.19.42.42.42.42-.19.42-.42-.19-.42-.42-.42Z"/>
          <path class="cls-2" d="m414.35,64.36l-.13.17c-2.79,3.9-4.29,6.3-4.46,7.15-.18.51-.27,1.03-.27,1.56,0,.2.16.37.37.37s.37-.17.37-.37c0-.46.08-.91.25-1.35l.14-.4h-.01c.29-.68,1.24-2.37,4.22-6.53l.13-.17c.12-.17.08-.39-.08-.51-.17-.12-.39-.08-.51.08Z"/>
          <path class="cls-2" d="m427.78,89.88c-.23,0-.42.19-.42.42s.19.42.42.42.42-.19.42-.42c0-.23-.19-.42-.42-.42Z"/>
        </g>
      </g>
    </g>
  </g>
</svg>