<?xml version="1.0" encoding="UTF-8"?>
<svg id="Layer_2" data-name="Layer 2" xmlns="http://www.w3.org/2000/svg" viewBox="0 0 12329.47 1342.23">
  <defs>
    <style>
      .cls-1 {
        stroke-width: 17px;
      }

      .cls-1, .cls-2, .cls-3, .cls-4 {
        fill: #c62828;
      }

      .cls-1, .cls-3, .cls-4 {
        stroke: #fff;
        stroke-miterlimit: 10;
      }

      .cls-5 {
        fill: #fff;
      }

      .cls-3 {
        stroke-width: 30px;
      }

      .cls-4 {
        stroke-width: 25px;
      }
    </style>
  </defs>
  <g id="Layer_1-2" data-name="Layer 1">
    <g>
      <rect class="cls-5" x="0" y="80" width="12246" height="1010"/>
      <rect class="cls-2" x="40" y="120" width="12166" height="930"/>
      <g>
        <path class="cls-1" d="m694,341.04h-86.13v63.26h74.53c20.67-.06,37.48,16.64,37.55,37.32,0,.15,0,.3,0,.46v164.98c.08,12.28-5.5,23.91-15.13,31.52l-96.94,76.57v86.81l131.87-106.73c21.7-17.84,34.24-44.5,34.13-72.59v-201.05c0-44.22-35.65-80.18-79.87-80.56Z"/>
        <path class="cls-1" d="m702.88,607.05v-164.98c0-11.2-9.05-20.3-20.25-20.37h-74.75v272.05l86.02-68.27c5.75-4.37,9.09-11.21,8.99-18.43Z"/>
        <path class="cls-1" d="m536.64,350.37v542.16c0,50.75-115.83,68.27-214.93,68.27h0c-98.53,0-213.45-17.98-213.45-68.27V375.85c-19.43-2.89-38-9.99-54.39-20.82v594.5c0,56.09,134.26,84.2,268.63,84.2s268.63-28.1,268.63-84.2V337.74c-16.7,8.26-35.07,12.58-53.7,12.63h-.8Z"/>
        <path class="cls-1" d="m128.97,377.67h-3.75v514.85c0,29.01,86.24,51.66,196.38,51.66h0c110.93,0,197.86-22.76,197.86-51.66V349c-8.18-1.2-16.23-3.22-24.01-6.03-8.51,7.14-18.12,12.86-28.44,16.95v332.46c0,4.71-3.82,8.53-8.53,8.53s-8.53-3.82-8.53-8.53v-327.57c-13.36,2.73-27.14,2.73-40.51,0v134.15c0,4.71-3.82,8.53-8.53,8.53s-8.53-3.82-8.53-8.53v-139.15c-12.79-5.22-24.4-12.96-34.13-22.76-15.73,15.03-35.5,25.15-56.89,29.13v278.3c-1.35,29-25.95,51.41-54.95,50.06-27.11-1.26-48.8-22.95-50.06-50.06v-284.45c-20.54,11.64-43.75,17.72-67.36,17.64Zm263.51,180.23c0-4.71,3.82-8.53,8.53-8.53s8.53,3.82,8.53,8.53v41.42c0,4.71-3.82,8.53-8.53,8.53s-8.53-3.82-8.53-8.53v-41.42Z"/>
        <path class="cls-1" d="m642.8,227.71c-.14-58.38-47.57-105.59-105.95-105.45-11.65.03-23.21,1.98-34.23,5.78,2.43-8.32,3.65-16.94,3.64-25.6.73-51.15-40.14-93.2-91.28-93.93-42.38-.61-79.76,27.63-90.77,68.56-13.44-6.82-28.28-10.41-43.35-10.47-6.89-.06-13.77.71-20.48,2.28-17.69-41.91-66.02-61.55-107.93-43.85-30.45,12.85-50.27,42.66-50.34,75.71.01,7.45.97,14.86,2.84,22.07C39.91,135.9-2.21,199.25,10.89,264.31c13.09,65.05,76.44,107.17,141.5,94.08,22.99-4.63,44.12-15.88,60.79-32.37v318.58c1.11,19.57,17.88,34.54,37.45,33.43,18.02-1.02,32.41-15.41,33.43-33.43v-293.55c29.73-.97,57.24-15.95,74.18-40.39,25.66,39.53,78.5,50.78,118.04,25.12,5.72-3.71,10.98-8.1,15.65-13.06,14.18,6.89,29.75,10.43,45.51,10.35,58.14-.13,105.23-47.22,105.36-105.36Zm-325.64-70.09c-13.15,41.98-57.83,65.35-99.81,52.2-24.9-7.8-44.4-27.3-52.2-52.2-1.33-4.52,1.2-9.28,5.69-10.7,4.5-1.39,9.28,1.12,10.68,5.63,0,.02.01.04.02.06,10.19,32.96,45.17,51.42,78.13,41.23,19.71-6.09,35.13-21.52,41.23-41.23,1.3-4.46,5.97-7.03,10.44-5.73.05.01.1.03.15.04,4.51,1.36,7.07,6.12,5.71,10.63,0,.02-.01.04-.02.06Zm236.32,60.87c-11.38,35.94-49.75,55.85-85.69,44.47-21.18-6.71-37.76-23.3-44.47-44.47-1.7-4.39.48-9.34,4.87-11.04,4.39-1.7,9.34.48,11.04,4.87.15.38.27.77.36,1.17,8.33,26.96,36.93,42.06,63.89,33.73,16.13-4.98,28.75-17.61,33.73-33.73,1.06-4.59,5.64-7.45,10.23-6.39,4.59,1.06,7.45,5.64,6.39,10.23-.09.4-.21.79-.36,1.17Z"/>
      </g>
      <circle class="cls-5" cx="2626.66" cy="578.61" r="434.69"/>
      <path class="cls-2" d="m3020.99,545.4c-14.53-173.3-140.1-315.48-306.14-353.87-29.06-6.23-59.15-10.38-89.25-10.38-143.21,0-269.81,76.79-339.34,190.95-36.32,61.23-57.08,131.79-57.08,206.51,0,163.96,100.66,306.14,243.87,366.32,46.7,19.72,98.59,31.13,153.59,31.13s105.85-11.42,153.59-31.13c141.13-60.19,241.8-202.36,241.8-366.32,0-11.42,0-21.79-1.04-33.21Zm-96.51-194.06l-41.51-20.75c-10.38-10.38-28.02-26.98-47.74-40.47-19.72-13.49-40.47-25.94-52.93-32.17l-33.21-34.25c70.57,24.91,131.79,69.53,175.38,127.64Zm-292.64-39.43l140.1-45.66c11.42,6.23,34.25,18.68,56.04,33.21,21.79,15.57,40.47,33.21,49.81,42.55v147.36l-111.04,37.36-134.91-97.55v-117.27Zm-129.72-88.21l-32.17,33.21c-12.45,6.23-34.25,18.68-53.96,33.21-19.72,14.53-36.32,30.09-46.7,40.47l-42.55,20.75c43.59-58.11,104.81-102.74,175.38-127.64Zm117.27,88.21v117.27l-134.91,97.55-111.04-36.32v-147.36c9.34-9.34,28.02-26.98,49.81-43.59,20.75-15.57,44.62-28.02,56.04-33.21l140.1,45.66Zm-370.48,273.97l22.83,41.51c2.08,14.53,7.26,38.4,14.53,61.23,8.3,22.83,17.64,44.62,23.87,57.08l6.23,46.7c-40.47-59.15-65.38-129.72-67.45-206.51Zm214.81,205.47l-140.1-45.66c-6.23-11.42-16.6-35.28-25.94-60.19-8.3-24.91-13.49-50.85-14.53-64.34l86.13-119.34,111.04,36.32,51.89,157.74-68.49,95.47Zm159.81,163.96c-38.4,0-72.64-6.23-106.89-16.6l45.66-8.3c13.49,2.08,35.28,5.19,58.11,5.19h4.15c23.87,0,47.74-3.11,61.23-5.19l46.7,8.3c-34.25,10.38-70.57,16.6-108.96,16.6Zm67.45-38.4c-12.45,2.08-38.4,6.23-65.38,6.23s-52.93-3.11-65.38-5.19l-87.17-119.34,69.53-95.47h166.04l68.49,94.43-86.13,119.34Zm96.51-125.57l-68.49-95.47,51.89-157.74,111.04-36.32,86.13,119.34c-2.08,12.45-7.26,38.4-14.53,64.34-8.3,24.91-19.72,48.77-25.94,60.19l-140.1,45.66Zm146.32,3.11l7.26-46.7c6.23-12.45,16.6-34.25,23.87-58.11,7.26-22.83,11.42-46.7,14.53-60.19l21.79-41.51c-2.08,76.79-25.94,147.36-67.45,206.51Z"/>
      <path class="cls-3" d="m5397.39,931.93c-5.36,52.96-47.91,91-95.09,84.98l-401.46-51.37c-47.15-6.06-81.01-53.85-75.65-106.81l70.17-691.95c5.39-52.96,47.94-90.99,95.13-84.95l401.45,51.35c47.17,6.05,81.02,53.85,75.64,106.81l-70.18,691.94Z"/>
      <g>
        <path class="cls-2" d="m5112.89,784.36c-88.23-55.22-141.49-158.08-128.09-268.21,1.36-11.14,14.97-123.02,18.04-148.27,91.37,11.12,162.96-18.45,162.96-18.45,0,0,62.43,45.87,153.79,56.99-3.07,25.25-16.68,137.13-18.04,148.27-13.4,110.14-89.77,197.22-188.66,229.68h-.01Z"/>
        <path class="cls-5" d="m5113.85,776.44c-83.74-53.05-134.17-152.06-121.26-258.18,1.31-10.73,14.42-118.54,17.38-142.87,86.8,10.56,154.87-18.04,154.87-18.04,0,0,59.24,44.09,146.03,54.65-2.96,24.33-16.08,132.13-17.38,142.87-12.91,106.13-85.61,190.14-179.62,221.58h-.01Z"/>
        <path class="cls-2" d="m5115.58,762.19c-76.07-49.21-121.71-141.31-109.67-240.22,1.22-10,13.44-110.48,16.2-133.15,78.97,9.61,141-17.22,141-17.22,0,0,53.8,40.92,132.76,50.53-2.76,22.67-14.98,123.15-16.2,133.15-12.03,98.91-78.43,177.38-164.07,206.92h-.01Z"/>
        <g>
          <path class="cls-5" d="m5035.72,436.08s15.77,34.43,15.65,35.6c-.61,5.76-2.64,21.7-2.56,21.02,0,0,.08,6.16-5.47,6.88l-.14,1.16,22.97,2.8.14-1.16s-4.57-1.29-3.74-8.13c.72-5.95,2.17-17.43,2.54-20.33.06-.45.23-.86.5-1.22,3.06-3.99,22.05-28.73,23.5-30.11.8-.6,1.85-.36,1.85-.36l.23-1.92-19.48-2.37-.28,2.29s2.31.18,2.15,1.44c-.65,1.62-13.85,19.3-13.85,19.3-1.77-4.02-6.62-18.29-7.66-21.36-.19-.55.1-1.15.65-1.35.35-.12.85-.2,1.56-.16.12-1.31.31-2.26.31-2.26l-20.51-2.5-.22,1.78s1.49.19,1.84.95Z"/>
          <path class="cls-5" d="m5082.8,505.59l.14-1.14s4.63-.76,5.02-3.06,8.06-66.21,8.06-66.21l38.97,52.12,4.28-35.2s.32-4.04-2.98-4.32l.28-1.86,19.52,2.38-.24,1.98s-4.54-.44-5.05,3.23c-.5,3.67-7.92,65.08-7.92,65.08l-37.92-52.22-4.32,35.54s.32,3.62,4.07,5.2c-.1.78-.11,1.14-.11,1.14l-21.81-2.65Z"/>
          <g>
            <path class="cls-5" d="m5181.35,469.29s0,0,0,0c-.16-.07-.35,0-.42.18-.32.76-.98,1.3-1.75,1.45-1.29.25-2.52-.64-2.74-2,0,0,0,0,0,0-.03-.19-.2-.31-.37-.27-.18.04-.29.21-.27.4.17,1.03.81,1.89,1.71,2.32,1.52.72,3.31,0,4.01-1.62,0,0,0,0,0,0,.07-.17,0-.37-.16-.45Z"/>
            <path class="cls-5" d="m5189.95,472.77c-.17-.06-.35.03-.42.21-.27.62-.8,1.06-1.43,1.19-1.06.21-2.06-.52-2.24-1.63,0-.02,0-.03,0-.05-.04-.18-.22-.29-.39-.24-.17.05-.28.23-.24.42.15.87.69,1.61,1.46,1.97,1.3.62,2.84,0,3.44-1.38,0-.01.01-.03.02-.04.06-.18-.02-.37-.19-.44Z"/>
            <path class="cls-5" d="m5182.5,488.03c.18.02.34-.11.36-.3l.2-1.65c.02-.19-.1-.36-.28-.38s-.34.11-.36.3l-.2,1.65c-.02.19.1.36.28.38Z"/>
            <path class="cls-5" d="m5203.4,468.98c-3.1-5.75-7.68-10.26-13.76-13.55-2.73-1.44-5.94-2.89-9.38-3.82-2.89-.78-3.7-.93-6.91-1.33h-.01s-.91-.11-.91-.11l-.85-.1-.34-.04-11.5-1.4-.27,1.86c2.71.21,2.37,4.25,2.37,4.25l-4.3,35.38-2.24,18.41s-.63,3.99-3.32,3.55l-.18,1.87,13.47,1.64h.03c.65.05,1.29.11,1.91.17,3.81.34,7.12.41,9.9.2,3.7-.26,7.08-.98,10.1-2.16,5.46-2.15,9.9-5.54,13.34-10.15,3.43-4.6,5.52-10.01,6.27-16.22.8-6.56-.35-12.71-3.43-18.47Zm-15.4,33.52c-.27,2.23-5.47,2.73-10.53,2.12-5.06-.62-9.98-2.35-9.71-4.58l2.88-23.64c.57.51,1.23.87,1.95,1.08l-2.5,20.55c-.24,2,4,3.24,7.71,3.69s8.18.29,8.43-1.73l2.62-21.56h.03c.7.09,1.42,0,2.08-.25l-2.96,24.33Zm-11.75-11.72c1.09.19,2.12-.59,2.31-1.74l1.35-11.07c.82-.06,1.62-.37,2.28-.9.32.43.72.8,1.18,1.06l-.67,5.53c-.02.19.1.36.28.38s.34-.11.36-.3l.65-5.34c.49.17,1.01.23,1.53.19l-1.59,13.03c-.02.19.1.36.28.38s.34-.11.36-.3l1.61-13.22c.41-.12.8-.3,1.15-.54.28.15.57.26.88.35l-2.63,21.62c-.14,1.15-3.52,1.66-7.7,1.15s-7.29-1.8-7.15-2.95l2.49-20.48.14.02c.89.11,1.79-.02,2.62-.39l-1.38,11.31c-.08,1.08.63,2.05,1.64,2.22Zm12.71-13.04c-.59-.07-1.16-.28-1.66-.62-.2.18-.42.33-.65.45-1.61.84-3.55.15-4.32-1.54-.76.89-1.87,1.36-2.99,1.27l-1.42,11.68c-.13.71-.74,1.22-1.42,1.18-.74-.05-1.3-.72-1.25-1.5l1.54-12.67c-.71.58-1.56.93-2.45,1.01-2.51.22-4.7-1.74-4.88-4.39-.18-2.65,1.71-4.97,4.23-5.2-.04-.3-.04-.59,0-.89.16-1.31,1.05-2.41,2.26-2.78,1.66-.51,3.39.49,3.85,2.24.26-.03.52-.03.78,0,.57.07,1.11.28,1.58.62.61-1.58,2.16-2.53,3.75-2.31,1.92.26,3.26,2.12,2.98,4.15-.04.34-.13.68-.26,1,.43-.1.88-.13,1.32-.07,2.2.26,3.76,2.36,3.48,4.68-.29,2.31-2.29,3.97-4.48,3.71Zm2.22,3.85l2.82.34c.42.05.72.46.66.9l-.8,6.56c-.03.29-.19.54-.43.69l-3.57,2.32,1.32-10.82Zm5.28,8.75c-.13,1.12-.73,2.12-1.64,2.73l-5.48,3.64.42-3.45,4.02-2.6c.4-.26.67-.7.72-1.18l.8-6.56s0-.01,0-.02c.1-.82-.45-1.56-1.23-1.66l-2.81-.34.31-2.52,3.24.39c1.66.22,2.83,1.81,2.62,3.57l-.97,8Z"/>
          </g>
          <path class="cls-5" d="m5252.53,494.15l-12.83-40.82s-7.55,11.46-22.94,36.85c-15.39,25.39-19.72,28.05-19.72,28.05l-.15,1.22,20.58,2.56s.11-.56.16-1.28c-3.65-3.39-.34-7.01-.34-7.01l4.35-6.44s20.34,2.45,21.73,2.62,1.52,1.01,3.74,7.52c2.22,6.52-3.05,6.42-3.05,6.42l-.17,1.38,21.7,2.64.17-1.38c-7.41-14.73-13.23-32.33-13.23-32.33Zm-27.53,4.82l11.77-21.54,6.26,23.73-18.03-2.19Z"/>
        </g>
        <g>
          <path class="cls-5" d="m5190.3,605.68c3.48,1.24,1.05,12.36,11.96,12.19-.84-6.87-5.47-10.8-10.25-12.18-2.3-.77-3.12-.73-2.45.09.56.39.81.36.74-.1Z"/>
          <path class="cls-5" d="m5205.47,657.01c-8.19-4.97-14.96,2.43-17.34,7.3,5.55,1.25,12.25-.35,15.83-6.95.47-.18.89.13,1.22.51-1.08.05-.64,1.18.22,1.12.67-.04,1.67-1.01.07-1.99Z"/>
          <path class="cls-5" d="m5187.91,662.73c4.71-6.14,3-12.04-.8-15.94-1.72-2.01-2.6-2.46-2.61-1.38.26.66.56.77.86.36,2.55,3.05-9.27,10.83,2.56,16.97Z"/>
          <path class="cls-5" d="m5198.01,667.9c-7.65-5.37-15.35,1.28-18.28,5.84,5.47,1.62,12.38.55,16.71-5.6.51-.14.9.19,1.17.58-1.08-.03-.76,1.09.12,1.09.66,0,1.78-.86.29-1.91Z"/>
          <path class="cls-5" d="m5162.48,672.61c-.47-2.54-1.07-3.35-1.78-2.43-.17.68.04.93.65.71.62,3.84-16.46,5.13-8.35,16.05,8.72-3.26,10.83-9.18,9.48-14.34Z"/>
          <path class="cls-5" d="m5194.96,652.5c3.25-6.98.4-12.85-4.05-16.32-2.08-1.81-3-2.15-2.79-1.03.38.66.67.74.89.26,3.08,2.76-6.67,12.52,5.95,17.09Z"/>
          <path class="cls-5" d="m5210.71,644.14c-8.96-4.01-13.93,4.62-15.2,9.96,5.62.48,11.76-2.07,13.81-9.38.43-.26.9.02,1.3.36-1.03.2-.36,1.31.46,1.13.65-.14,1.39-1.29-.37-2.07Z"/>
          <path class="cls-5" d="m5137.22,693.85c-3.77-.17-8.88,1.21-13.76,3.61-4.16-3.5-8.79-6.06-12.49-6.81-5.24-4.02-16.54-8.96-22.44-1.8-1.15,1.39.44,2.02,1.17,1.86.95-.2.79-1.4-.38-1.13.13-.46.39-.88,1-.85,6.18,4.35,12.71,4.79,17.74,3.18.73-.01,1.38.02,1.9.2,4.02,1.44,7.64,3.95,10.58,6.91-5.85,3.46-10.85,8.34-12.02,13.7.15.59.4,1.13.77,1.59.38.47.91.84,1.59,1.08.92.33,2.17.42,3.82.22-.45-4.42,2.97-9.8,8.25-13.91,4.14,5.25,6.16,11.3,4.67,15.48,1.55.6,2.78.8,3.76.7.72-.07,1.32-.3,1.8-.67.47-.36.85-.82,1.13-1.36.15-5.49-3.54-11.42-8.39-16.19,3.57-2.17,7.69-3.74,11.93-4.17.54-.06,1.19.07,1.89.26,4.49,2.77,10.94,3.91,17.98,1.17.6.12.75.59.77,1.07-1.07-.55-1.51.58-.64,1,.68.33,2.36.11,1.58-1.52-4-8.37-16.16-6.28-22.21-3.63Z"/>
          <path class="cls-5" d="m5149.81,679.34c-.12-2.55-.59-3.4-1.46-2.57-.27.66-.07.92.55.76.1,3.82-17.26,3.39-10.65,14.9,9.22-2.33,12.18-7.91,11.56-13.09Z"/>
          <path class="cls-5" d="m5179.67,672.18c5.45-5.6,4.46-11.44,1.04-15.5-1.5-2.07-2.34-2.59-2.48-1.54.19.66.46.79.82.41,2.24,3.15-10.68,9.7.61,16.63Z"/>
          <path class="cls-5" d="m5199.41,641.94c4.59.18,9.41-2.25,10.54-8.59.32-.22.71,0,1.08.28-.83.21-.21,1.13.45.94.51-.15,1.05-1.13-.46-1.74-7.56-3.01-10.98,4.5-11.61,9.1Z"/>
          <path class="cls-5" d="m5208.94,606.94c.19-.35.65-.28,1.08-.07-.64.46.29,1.2.81.81.39-.3.44-1.52-1.16-1.64-8.14-.6-7.8,8.11-6.32,13.02,4.16-1.27,7.37-5.32,5.58-12.12Z"/>
          <path class="cls-5" d="m5194.32,626.94c-1.85-1.43-2.63-1.66-2.37-.74.38.51.61.58.75.16,2.76,2.2-4.45,10.94,6.15,14.25,2.11-6.07-.62-10.94-4.52-13.67Z"/>
          <path class="cls-5" d="m5168.01,680.61c7.01-4.93,7.21-11.03,4.5-15.69-1.15-2.35-1.93-3-2.33-1.97.05.71.31.89.79.56,1.68,3.54-13.49,8.27-2.96,17.1Z"/>
          <path class="cls-5" d="m5194.34,616.07h0c-2.13-1.13-2.92-1.26-2.47-.35.49.47.73.48.76.05,3.16,1.76-1.87,11.85,9.02,13.61.78-6.63-2.91-11.18-7.3-13.31Z"/>
          <path class="cls-5" d="m5202.46,630.68c4.47-.52,8.57-3.75,8.34-10.48.26-.28.69-.13,1.07.12-.73.34.04,1.19.63.9.48-.23.78-1.35-.77-1.74-7.91-1.98-9.63,6.32-9.27,11.2Z"/>
          <path class="cls-5" d="m5167.73,682.22c5.47,2.48,13.06,2.42,19-3.19.58-.07.91.33,1.12.76-1.16-.19-1.06,1-.13,1.13.72.1,2.09-.6.73-1.9-6.97-6.63-16.6-1.07-20.72,3.2Z"/>
          <path class="cls-5" d="m5152.21,688.47c4.84,3.62,12.68,5.22,20.54,1.04.6.06.82.52.91.99-1.12-.43-1.39.74-.47,1.08.7.26,2.32-.13,1.32-1.69-5.1-8.01-16.75-4.67-22.3-1.41Z"/>
          <path class="cls-5" d="m5080.58,592.34c-.18.43.06.52.7.28.85-.63.06-.87-2.36-.67-4.97.19-10.41,2.9-12.87,9.37,10.56,2.78,10.87-8.6,14.54-8.97Z"/>
          <path class="cls-5" d="m5068.63,649.77c-1.14-5.3-5.93-14.11-15.08-11.25-1.79.56-1.05,1.74-.41,1.95.82.26,1.52-.73.48-1.04.42-.29.9-.5,1.31-.2,1.89,7.26,8.01,10.42,13.7,10.54Z"/>
          <path class="cls-5" d="m5075.76,632.43c.2.47.51.44.92-.14.25-1.05-.71-.82-2.87.72-4.63,2.87-7.7,8.2-4.6,15.28,12.95-3.13,3.34-13.51,6.55-15.86Z"/>
          <path class="cls-5" d="m5074.53,660.94c-1.75-5.13-7.63-13.44-16.35-10.05-1.71.66-.82,1.77-.18,1.92.86.2,1.43-.8.37-1.03.35-.31.81-.54,1.27-.28,2.74,7.01,9.19,9.7,14.88,9.44Z"/>
          <path class="cls-5" d="m5097.31,680.17c10.49-8.65-5.79-14-4.26-17.58.54.35.8.17.8-.54-.47-1.06-1.24-.42-2.31,1.93-2.55,4.68-1.92,10.93,5.76,16.19Z"/>
          <path class="cls-5" d="m5074.7,621.5c.09.52.39.52.92-.04.47-1.03-.5-.92-2.95.33-5.16,2.3-9.33,7.32-7.85,14.87,13.35-1.41,6.23-13.22,9.88-15.17Z"/>
          <path class="cls-5" d="m5063.92,638.08c.05-5.49-2.71-15.05-12.37-13.31-1.9.34-1.45,1.63-.86,1.92.75.37,1.68-.54.72-.99.47-.24.99-.39,1.35-.04.24,7.59,5.59,11.54,11.16,12.42Z"/>
          <path class="cls-5" d="m5110.31,689.03c9.17-9.59-7.78-13.33-6.77-17.02.57.3.82.1.72-.61-.64-1.02-1.3-.3-2.03,2.14-1.84,4.88-.31,11.01,8.08,15.48Z"/>
          <path class="cls-5" d="m5074.95,659.44c12.63-4.02,1.65-13.48,4.58-16,.26.46.56.39.89-.21.12-1.05-.82-.75-2.77.9-4.29,3.12-6.66,8.56-2.7,15.3Z"/>
          <path class="cls-5" d="m5053.09,615.3c.6.34,1.42-.4.66-.8.43-.19.86-.31,1.11-.01-.42,6.42,3.67,9.93,8.17,10.86.49-4.62-1.02-12.73-9.09-11.62-1.61.22-1.32,1.31-.86,1.58Z"/>
          <path class="cls-5" d="m5061.15,588.76c.47-.1.93-.06,1.03.33-3.36,6.18-1.22,10.88,2.52,13.11,2.61-4.41,5.03-12.78-3.01-14.16-1.58-.27-1.82.93-1.51,1.31.4.51,1.49.01.98-.59Z"/>
          <path class="cls-5" d="m5073.29,611.83c.03.43.27.43.77.02.47-.82-.34-.79-2.48.15-4.45,1.71-8.26,5.78-7.67,12.18,11.08-.67,6.18-10.89,9.38-12.36Z"/>
          <path class="cls-5" d="m5085.48,653.11c.39.43.69.32.9-.36-.13-1.1-1.05-.65-2.73,1.35-3.75,3.88-5.02,9.85.6,16.32,12.34-6.05-1.26-14.27,1.22-17.31Z"/>
          <path class="cls-5" d="m5075.91,601.57c-.08.42.16.48.75.14.65-.77-.15-.84-2.48-.26h0c-4.77,1.02-9.45,4.56-10.28,11.18,11,.9,8.53-10.1,12.02-11.05Z"/>
          <path class="cls-5" d="m5056.13,601.37c.43-.16.89-.2,1.07.14-1.84,6.48,1.37,10.61,5.59,12.18,1.52-4.65,1.84-13.12-6.32-13.1-1.61,0-1.58,1.16-1.17,1.5.51.42,1.46-.22.83-.72Z"/>
          <path class="cls-5" d="m5084.14,672.05c-2.97-5.13-10.99-12.83-19.35-8.07-1.63.93-.48,1.94.25,2.02.94.09,1.31-1.04.15-1.13.32-.37.72-.67,1.27-.47,4.42,6.87,11.78,8.75,17.68,7.65Z"/>
          <path class="cls-5" d="m5075.72,677.87c-1.34,1.28.14,2.05.88,1.96.97-.11,1-1.31-.2-1.16.2-.44.52-.83,1.12-.74,6.63,5.95,14.62,6.27,20.19,3.92-4.61-4.49-15.12-10.52-21.99-3.98Z"/>
        </g>
        <g>
          <path class="cls-5" d="m5198.43,552.62c-1.89-4.43-5.41-7.68-9.57-9.36-4.14-1.67-8.94-1.76-13.37.12l-1.1.47c.42-2.6.79-5.15,1.11-7.6l-59.34-7.22c-.28,2.46-.53,5.02-.74,7.65l-.96-.72c-3.85-2.89-8.52-3.95-12.95-3.32-4.28.61-8.35,2.79-11.23,6.42l-.4.51-.41.58c-2.5,3.7-3.4,8.08-2.81,12.24.63,4.44,2.94,8.64,6.78,11.53l18.8,14.13.02.02,2.63,1.98c.96.72,1.53,1.77,1.69,2.88.16,1.11-.1,2.28-.82,3.23l-.16.21c-.7.83-1.69,1.33-2.72,1.48-1.12.16-2.29-.1-3.24-.82l-3.68,4.92c2.31,1.74,5.13,2.38,7.78,2,2.66-.38,5.18-1.77,6.93-4.09l.13-.17c3.48,7.2,8.75,12.16,16.48,13.1s14.04-2.62,19.15-8.77l.08.2c1.14,2.67,3.26,4.63,5.74,5.63,2.49,1,5.37,1.06,8.04-.08l-2.39-5.66c-1.1.47-2.3.44-3.34.02-.97-.39-1.81-1.12-2.29-2.09l-.1-.24c-.47-1.09-.44-2.29-.02-3.33.42-1.04,1.23-1.92,2.33-2.4l3.06-1.3.06-.03,21.58-9.18c4.42-1.88,7.68-5.41,9.35-9.56,1.67-4.15,1.77-8.94-.11-13.38Zm-101.27,6.38c-2.48-1.87-3.98-4.59-4.39-7.47-.41-2.88.27-5.92,2.13-8.39l.25-.32c1.85-2.29,4.47-3.68,7.23-4.07,2.84-.4,5.82.25,8.28,2.05l4.28,3.21c-.48,9.77-.31,20.02,1.13,29.22l-18.91-14.22Zm95.67,4.7c-1.09,2.7-3.2,4.99-6.05,6.21l-21.77,9.26c3.61-8.59,6.23-18.5,8.11-28.1,0,0,4.78-2.03,4.78-2.03,2.86-1.22,5.98-1.15,8.68-.06,2.7,1.09,4.99,3.2,6.21,6.06,1.21,2.85,1.14,5.97.05,8.67Z"/>
          <polygon class="cls-5" points="5133.58 633.45 5107.37 630.26 5097.64 647.96 5164.99 656.15 5159.78 636.64 5133.58 633.45"/>
          <path class="cls-5" d="m5143.46,629.99c-1.61-3.59-2.14-7.57-1.68-11.71.42-3.72,1.64-7.56,3.6-11.37-2.69.66-5.56.85-8.64.47s-5.82-1.24-8.27-2.53c.99,4.17,1.26,8.2.77,11.9-.55,4.13-2.01,7.87-4.44,10.97l18.65,2.27Z"/>
        </g>
      </g>
      <path class="cls-4" d="m9926.96,151.01l-37.73-21.77c-21.67-12.11-46.44-14.45-68.97-8.41-21.95,5.87-41.73,19.68-54.44,40.04l-1.67,2.87c-12.61,21.85-15.12,47.06-9,69.94,6.13,22.88,20.93,43.46,42.81,56.1l166.86,96.31c-20.71-72.96-32.13-155.67-37.86-235.08Zm92.45,363.55l-.85,1.48c-11.87,20.43-30.92,34.17-52.01,39.84-21.09,5.65-44.48,3.28-64.89-8.52l24.91-43.36c8.4,4.84,18.16,5.79,27.02,3.41,8.24-2.21,15.68-7.25,20.56-14.65l1.05-1.84c4.84-8.37,5.8-18.09,3.44-26.89-2.36-8.83-8.07-16.76-16.49-21.63l-23.23-13.41-.21-.11-165.86-95.75c-33.86-19.56-56.72-51.25-66.14-86.5-8.85-33.05-5.92-69.34,10.65-101.71l2.75-5.09,2.73-4.53c19.73-32.16,50.44-53.84,84.46-62.94,35.16-9.41,74-5.45,107.93,14.13l8.43,4.87c-.85-21.45-1.33-42.4-1.51-62.53h486.7c-.17,20.13-.65,41.08-1.51,62.53l8.41-4.85c33.94-19.6,72.8-23.56,107.94-14.15,35.24,9.44,66.92,32.3,86.51,66.22,19.56,34.02,23.51,72.89,14.08,108.05-9.43,35.25-32.28,66.94-66.16,86.5l-165.36,95.41-.48.28-23.48,13.55c-8.39,4.91-14.09,12.84-16.45,21.67-2.36,8.8-1.4,18.52,3.44,26.89l1.05,1.84c4.88,7.4,12.32,12.44,20.57,14.65,8.87,2.37,18.61,1.43,27.01-3.41l24.91,43.36c-20.41,11.77-43.78,14.17-64.89,8.52-21.09-5.67-40.14-19.41-51.97-39.86l-.87-1.51c-35.25,54.8-82.67,89.75-146.12,89.75s-110.85-34.92-146.08-89.7h0Zm346.74-128.46l166.9-96.27c21.87-12.69,36.66-33.26,42.8-56.16,6.13-22.89,3.63-48.13-8.95-70-12.72-21.92-33.28-36.73-56.16-42.85-22.91-6.13-48.14-3.6-70.08,9.05l-36.62,21.13c-5.72,79.42-17.19,162.14-37.89,235.09h0Zm-131.31,243.52c-21.07,8-44.1,12.31-69.34,12.31s-48.28-4.31-69.33-12.29c12.12,32.72,18.21,65.01,17.91,95.43-.35,33.96-8.53,65.57-25.06,93.01h152.99c-16.53-27.44-24.73-59.05-25.08-92.99-.29-30.44,5.8-62.73,17.92-95.46h0Zm-69.34,226.12h-214.93l-61.3,152.59h552.47l-61.3-152.59h-214.93Z"/>
      <g>
        <path class="cls-5" d="m10173.58,204.97s-.02,0-.03,0c-.78-.24-1.6.24-1.83,1.06-1.07,3.65-3.78,6.51-7.24,7.64-5.79,1.89-11.93-1.53-13.72-7.64,0,0,0,0,0-.01-.25-.83-1.08-1.3-1.88-1.04-.79.26-1.23,1.15-1,1.98,1.37,4.62,4.79,8.23,9.17,9.68,7.37,2.44,15.22-1.9,17.53-9.68,0,0,0,0,0-.01.24-.84-.21-1.72-1-1.97Z"/>
        <path class="cls-5" d="m10215.03,216.13c-.81-.2-1.61.33-1.8,1.19-.88,2.99-3.09,5.33-5.92,6.26-4.73,1.54-9.76-1.26-11.22-6.26-.02-.07-.04-.15-.06-.22-.3-.81-1.17-1.22-1.94-.9-.77.32-1.15,1.23-.86,2.05,1.18,3.93,4.09,7,7.81,8.25,6.31,2.11,13.05-1.58,15.05-8.25.03-.07.05-.14.06-.22.19-.85-.32-1.7-1.12-1.9Z"/>
        <path class="cls-5" d="m10189.31,290.44c.83,0,1.5-.71,1.5-1.58v-7.68c0-.87-.67-1.58-1.5-1.58s-1.5.71-1.5,1.58v7.68c0,.87.67,1.58,1.5,1.58Z"/>
        <path class="cls-5" d="m10274.7,191.22c-17.43-24.69-41.02-42.85-70.81-54.56-13.36-5.08-28.91-9.94-45.22-12.29-13.71-1.98-17.51-2.21-32.47-2.24h-.06s-4.22,0-4.22,0h-59.13l-.22,8.71c12.59-.53,13.25,18.22,13.25,18.22v250.76s-.66,18.7-13.25,18.17l.22,8.71h62.8l.11-.08c3.03-.05,5.99-.13,8.88-.24,17.69-.59,32.93-2.08,45.59-4.6,16.87-3.26,31.98-8.44,45.22-15.55,23.89-12.93,42.39-30.99,55.63-54.07,13.17-23.03,19.75-49.05,19.75-78.01,0-30.56-8.72-58.19-26.09-82.93Zm-52,162.58c0,10.4-23.58,15.61-47.18,15.61s-47.18-5.21-47.18-15.61v-110.24c2.88,2.01,6.14,3.33,9.55,3.86v95.81c0,9.33,20.18,12.66,37.49,12.66s37.75-3.25,37.75-12.66v-100.53h.14c3.27,0,6.5-.81,9.43-2.34v113.44Zm-60.55-47.28c5.09.25,9.41-3.91,9.65-9.28v-51.61c3.76-.74,7.23-2.61,9.99-5.4,1.71,1.82,3.75,3.25,5.99,4.22v25.8c0,.87.67,1.58,1.5,1.58s1.5-.71,1.5-1.58v-24.87c2.35.51,4.77.51,7.11,0v60.74c0,.87.67,1.58,1.5,1.58s1.5-.71,1.5-1.58v-61.65c1.81-.76,3.5-1.82,5-3.14,1.37.52,2.78.9,4.22,1.12v100.79c0,5.36-15.27,9.58-34.75,9.58s-34.49-4.2-34.49-9.58v-95.47h.66c4.15.02,8.22-1.11,11.83-3.27v52.75c.22,5.03,4.03,9.05,8.79,9.28Zm51.12-67.03c-2.77.01-5.5-.64-7.99-1.92-.82.92-1.74,1.73-2.75,2.42-6.94,4.76-16.22,2.67-20.73-4.66-2.98,4.53-7.81,7.31-13.03,7.49v54.43c-.18,3.34-2.71,6.01-5.87,6.2-3.44.21-6.38-2.57-6.58-6.2v-59.07c-2.93,3.06-6.64,5.14-10.68,6-11.43,2.43-22.55-5.38-24.85-17.45-2.3-12.06,5.1-23.81,16.52-26.24-.33-1.34-.5-2.71-.5-4.09.01-6.13,3.49-11.66,8.84-14.04,7.36-3.28,15.85.36,18.96,8.13,1.18-.29,2.39-.43,3.6-.42,2.65.01,5.25.68,7.61,1.94,1.93-7.59,8.5-12.83,15.94-12.71,8.98.14,16.16,7.93,16.03,17.42,0,1.61-.21,3.2-.64,4.75,1.93-.7,3.97-1.07,6.01-1.07,10.25-.03,18.58,8.73,18.61,19.55-.02,10.78-8.29,19.51-18.5,19.54Zm12.37,16.44h13.13c1.97.01,3.56,1.7,3.56,3.78v30.59c.02,1.34-.57,2.61-1.58,3.42l-15.11,12.66v-50.45Zm29.16,37.26c.02,5.21-2.18,10.15-5.99,13.46l-23.16,19.79v-16.1l17.03-14.2c1.69-1.41,2.67-3.57,2.66-5.84v-30.59s0-.06,0-.08c-.01-3.83-2.96-6.93-6.59-6.92h-13.09v-11.73h15.13c7.77.07,14.03,6.74,14.03,14.94v37.28Z"/>
      </g>
      <g>
        <g>
          <path class="cls-2" d="m7355.09,952.17c-57.95,0-109.74-12.47-153.93-37.07-44.93-25-80.29-60.72-105.08-106.18-24.32-44.58-36.66-96.67-36.66-154.8v-196.41c0-58.46,12.34-110.64,36.69-155.1,24.79-45.26,60.13-80.88,105.05-105.88,44.2-24.6,95.99-37.07,153.92-37.07s109.71,12.47,153.92,37.07c44.93,25.01,80.27,60.63,105.05,105.88,24.35,44.46,36.69,96.64,36.69,155.1v196.41c0,58.13-12.33,110.21-36.66,154.8-24.79,45.44-60.14,81.17-105.08,106.18-44.19,24.6-95.98,37.07-153.92,37.07Z"/>
          <path class="cls-2" d="m7355.09,909.65c-50.85,0-95.27-10.56-133.24-31.7-37.98-21.13-67.46-50.93-88.43-89.39-20.98-38.45-31.46-83.26-31.46-134.44v-196.41c0-51.49,10.49-96.37,31.46-134.68,20.98-38.29,50.45-68.01,88.43-89.15,37.97-21.13,82.39-31.7,133.24-31.7s95.26,10.57,133.24,31.7c37.97,21.14,67.46,50.85,88.43,89.15,20.98,38.3,31.46,83.19,31.46,134.68v196.41c0,51.17-10.49,95.99-31.46,134.44-20.98,38.46-50.46,68.25-88.43,89.39-37.98,21.14-82.4,31.7-133.24,31.7Zm0-130.62c35.59,0,64.12-11.12,85.57-33.37,21.45-22.24,32.18-51.64,32.18-88.19v-203.08c0-36.86-10.73-66.34-32.18-88.43-21.45-22.08-49.98-33.13-85.57-33.13s-64.12,11.05-85.57,33.13c-21.45,22.09-32.18,51.57-32.18,88.43v203.08c0,36.55,10.73,65.95,32.18,88.19,21.45,22.25,49.97,33.37,85.57,33.37Z"/>
          <path class="cls-2" d="m7909.58,952.17c-57.92,0-109.74-11.83-154.03-35.18-45.33-23.88-81.06-58.11-106.17-101.74-24.8-43.06-37.37-93.42-37.37-149.69v-204.51c0-59.02,12.31-111.7,36.58-156.57,24.72-45.69,59.81-81.71,104.31-107.06,43.98-25.05,95.73-37.75,153.82-37.75,48.38,0,93.33,10.16,133.6,30.2,40.19,20,74.46,48.35,101.86,84.25,27.36,35.87,46.05,78.15,55.56,125.67l10.18,50.86h-224.32l-9.28-29.93c-3.83-12.36-11.03-21.3-22.65-28.14-14.3-8.4-29.01-12.49-44.95-12.49-23.59,0-40.73,6.52-53.93,20.51-13.69,14.51-20.35,34.28-20.35,60.45v204.51c0,20.64,6.01,35.69,18.92,47.38,13.96,12.65,33,18.79,58.22,18.79s41.4-6.23,54.68-19.61c7.46-7.52,12.75-17.06,15.94-28.83h-101.23v-210.89h325.31v177.91c0,59-12.3,111.74-36.55,156.75-24.71,45.87-59.82,81.99-104.34,107.35-43.98,25.05-95.73,37.75-153.82,37.75Z"/>
          <path class="cls-2" d="m7921.5,514.92h240.27v135.39c0,52.13-10.49,97.65-31.46,136.58-20.98,38.93-50.3,69.12-87.96,90.58-37.66,21.45-81.92,32.18-132.77,32.18s-95.9-10.09-134.2-30.27c-38.3-20.18-68.02-48.63-89.15-85.33-21.14-36.71-31.7-79.53-31.7-128.48v-204.51c0-52.12,10.49-97.56,31.46-136.34,20.98-38.77,50.3-68.89,87.96-90.34,37.66-21.45,81.92-32.18,132.77-32.18,41.95,0,80.16,8.58,114.65,25.74,34.48,17.16,63.48,41.16,87,71.99,23.52,30.83,39.4,66.91,47.67,108.22h-141.11c-6.99-22.56-20.9-39.96-41.71-52.2-20.82-12.23-42.99-18.35-66.5-18.35-35.28,0-63.57,11.28-84.86,33.85-21.3,22.57-31.94,52.44-31.94,89.62v204.51c0,32.74,10.96,59.04,32.89,78.9,21.93,19.87,50.85,29.8,86.76,29.8s63.56-10.73,84.86-32.18c21.29-21.45,31.94-51.41,31.94-89.86v-11.44h-104.88v-125.86Z"/>
        </g>
        <g>
          <path class="cls-5" d="m7355.09,909.65c-50.85,0-95.27-10.56-133.24-31.7-37.98-21.13-67.46-50.93-88.43-89.39-20.98-38.45-31.46-83.26-31.46-134.44v-196.41c0-51.49,10.49-96.37,31.46-134.68,20.98-38.29,50.45-68.01,88.43-89.15,37.97-21.13,82.39-31.7,133.24-31.7s95.26,10.57,133.24,31.7c37.97,21.14,67.46,50.85,88.43,89.15,20.98,38.3,31.46,83.19,31.46,134.68v196.41c0,51.17-10.49,95.99-31.46,134.44-20.98,38.46-50.46,68.25-88.43,89.39-37.98,21.14-82.4,31.7-133.24,31.7Zm0-130.62c35.59,0,64.12-11.12,85.57-33.37,21.45-22.24,32.18-51.64,32.18-88.19v-203.08c0-36.86-10.73-66.34-32.18-88.43-21.45-22.08-49.98-33.13-85.57-33.13s-64.12,11.05-85.57,33.13c-21.45,22.09-32.18,51.57-32.18,88.43v203.08c0,36.55,10.73,65.95,32.18,88.19,21.45,22.25,49.97,33.37,85.57,33.37Z"/>
          <path class="cls-5" d="m7921.5,514.92h240.27v135.39c0,52.13-10.49,97.65-31.46,136.58-20.98,38.93-50.3,69.12-87.96,90.58-37.66,21.45-81.92,32.18-132.77,32.18s-95.9-10.09-134.2-30.27c-38.3-20.18-68.02-48.63-89.15-85.33-21.14-36.71-31.7-79.53-31.7-128.48v-204.51c0-52.12,10.49-97.56,31.46-136.34,20.98-38.77,50.3-68.89,87.96-90.34,37.66-21.45,81.92-32.18,132.77-32.18,41.95,0,80.16,8.58,114.65,25.74,34.48,17.16,63.48,41.16,87,71.99,23.52,30.83,39.4,66.91,47.67,108.22h-141.11c-6.99-22.56-20.9-39.96-41.71-52.2-20.82-12.23-42.99-18.35-66.5-18.35-35.28,0-63.57,11.28-84.86,33.85-21.3,22.57-31.94,52.44-31.94,89.62v204.51c0,32.74,10.96,59.04,32.89,78.9,21.93,19.87,50.85,29.8,86.76,29.8s63.56-10.73,84.86-32.18c21.29-21.45,31.94-51.41,31.94-89.86v-11.44h-104.88v-125.86Z"/>
        </g>

      </g>
    </g>
      <g transform="translate(1350, 350)"> <!-- Adjust the translation values as needed -->
        <text x="0" y="100" font-family="Arial" font-size="150" font-weight="bold" fill="white" text-anchor="middle">Beer Drank</text>
        <text x="0" y="400" font-family="Arial" font-size="300" font-weight="bold" fill="white" text-anchor="middle">@litres ℓ</text>

        <text x="2400" y="100" font-family="Arial" font-size="150" font-weight="bold" fill="white" text-anchor="middle">Missed Pens</text>
        <text x="2400" y="400" font-family="Arial" font-size="300" font-weight="bold" fill="white" text-anchor="middle">@missed_pens</text>

        <text x="4800" y="100" font-family="Arial" font-size="150" font-weight="bold" fill="white" text-anchor="middle">Red Cards</text>
        <text x="4800" y="400" font-family="Arial" font-size="300" font-weight="bold" fill="white" text-anchor="middle">@red_cards</text>

        <text x="7500" y="100" font-family="Arial" font-size="150" font-weight="bold" fill="white" text-anchor="middle">Own Goals</text>
        <text x="7500" y="400" font-family="Arial" font-size="300" font-weight="bold" fill="white" text-anchor="middle">@own_goals</text>

        <text x="10000" y="100" font-family="Arial" font-size="150" font-weight="bold" fill="white" text-anchor="middle">Nominations</text>
        <text x="10000" y="400" font-family="Arial" font-size="300" font-weight="bold" fill="white" text-anchor="middle">@nominations</text>
      </g>
  </g>
</svg>