<svg width="2685" height="1064" viewBox="0 0 2685 1064" fill="none" xmlns="http://www.w3.org/2000/svg">
<g id="Group 4">
<g id="banner_short 1" clip-path="url(#clip0_7_289)">
<g id="Layer 1">
<g id="Group">
<path id="Vector" d="M2620 181H378C350.386 181 328 203.386 328 231V898C328 925.614 350.386 948 378 948H2620C2647.61 948 2670 925.614 2670 898V231C2670 203.386 2647.61 181 2620 181Z" fill="white" stroke="#C62828" stroke-width="29" stroke-miterlimit="10"/>
<g id="Group_2">
<path id="Vector_2" d="M387.14 1063.16C158.43 956 0 723.85 0 454.62V92.2C223.36 92.2 387.14 0 387.14 0C387.14 0 550.97 92.2 774.29 92.2V454.63C774.29 723.86 615.86 955.99 387.17 1063.16H387.14Z" fill="#C62828"/>
<path id="Vector_3" d="M387.14 1043.8C169.88 940.55 19.3901 716.85 19.3901 457.43V108.2C231.56 108.2 387.14 19.3599 387.14 19.3599C387.14 19.3599 542.76 108.2 754.91 108.2V457.43C754.91 716.85 604.41 940.54 387.17 1043.8H387.14Z" fill="white"/>
<path id="Vector_4" d="M387.14 1008.97C189.48 912.74 52.5601 704.25 52.5601 462.47V136.98C245.59 136.98 387.14 54.1802 387.14 54.1802C387.14 54.1802 528.73 136.98 721.73 136.98V462.46C721.73 704.24 584.81 912.72 387.16 1008.96H387.13L387.14 1008.97Z" fill="#C62828"/>
<g id="Group_3">
<path id="Vector_5" d="M99.19 246.84C99.19 246.84 147.27 325.15 147.32 328.01C147.54 342.06 147.32 381.06 147.32 379.4C147.32 379.4 149.31 394.22 136.17 397.57V400.42H192.33V397.57C192.33 397.57 180.95 395.81 180.95 379.07C180.95 364.52 181.08 336.45 181.11 329.35C181.11 328.25 181.4 327.2 181.96 326.26C188.17 315.74 226.66 250.6 229.74 246.84C231.5 245.17 234.09 245.42 234.09 245.42V240.73H186.47V246.34C186.47 246.34 192.08 246.09 192.08 249.19C190.99 253.29 164.38 299.74 164.38 299.74C158.94 290.57 143.07 257.62 139.67 250.54C139.06 249.27 139.56 247.73 140.83 247.1C141.65 246.7 142.83 246.36 144.55 246.26C144.47 243.08 144.63 240.74 144.63 240.74H94.5V245.09C94.5 245.09 98.14 245.11 99.2 246.84H99.19Z" fill="white"/>
<path id="Vector_6" d="M232.98 400.48V397.7C232.98 397.7 243.91 394.52 244.18 388.85C244.46 383.18 244.18 227 244.18 227L353.32 341.12V255.08C353.32 255.08 352.91 245.26 344.88 245.54L345.02 240.98H392.74V245.82C392.74 245.82 381.67 246.1 381.54 255.09C381.4 264.08 381.54 414.17 381.54 414.17L274.89 299.49V386.36C274.89 386.36 276.72 394.99 286.22 397.7C286.22 399.61 286.28 400.48 286.28 400.48H232.98Z" fill="white"/>
<g id="Group_4">
<path id="Vector_7" d="M459.73 284.17C459.73 284.17 459.73 284.17 459.72 284.17C459.31 284.04 458.88 284.29 458.76 284.73C458.2 286.65 456.78 288.15 454.96 288.74C451.93 289.73 448.7 287.94 447.77 284.73C447.64 284.29 447.2 284.05 446.79 284.18C446.38 284.32 446.14 284.78 446.27 285.22C446.99 287.64 448.78 289.54 451.08 290.29C454.95 291.57 459.06 289.3 460.27 285.22C460.4 284.78 460.16 284.32 459.74 284.19L459.73 284.17Z" fill="white"/>
<path id="Vector_8" d="M481.45 290.02C481.03 289.92 480.61 290.2 480.51 290.64C480.05 292.21 478.89 293.44 477.4 293.92C474.92 294.73 472.28 293.26 471.52 290.64C471.52 290.6 471.5 290.56 471.49 290.53C471.33 290.1 470.88 289.89 470.47 290.06C470.07 290.23 469.86 290.71 470.02 291.13C470.64 293.19 472.17 294.8 474.11 295.45C477.42 296.56 480.95 294.62 482 291.13C482.01 291.09 482.02 291.06 482.03 291.02C482.13 290.57 481.86 290.13 481.44 290.02H481.45Z" fill="white"/>
<path id="Vector_9" d="M467.97 328.98C468.4 328.98 468.76 328.61 468.76 328.15V324.12C468.76 323.66 468.41 323.29 467.97 323.29C467.53 323.29 467.18 323.66 467.18 324.12V328.15C467.18 328.61 467.53 328.98 467.97 328.98Z" fill="white"/>
<path id="Vector_10" d="M512.74 276.96C503.6 264.02 491.24 254.49 475.62 248.36C468.62 245.7 460.46 243.15 451.91 241.92C444.72 240.88 442.73 240.76 434.89 240.75H434.86H432.65H401.65L401.53 245.32C408.13 245.04 408.48 254.87 408.48 254.87V386.35C408.48 386.35 408.13 396.16 401.53 395.88L401.65 400.45H434.58L434.64 400.41C436.23 400.38 437.78 400.34 439.3 400.28C448.57 399.97 456.56 399.19 463.2 397.87C472.05 396.16 479.97 393.44 486.91 389.72C499.44 382.94 509.14 373.47 516.08 361.37C522.98 349.3 526.44 335.65 526.44 320.47C526.44 304.45 521.87 289.96 512.76 276.99L512.74 276.96ZM485.48 362.2C485.48 367.65 473.12 370.39 460.74 370.39C448.36 370.39 436 367.66 436 362.2V304.4C437.51 305.45 439.22 306.14 441.01 306.42V356.65C441.01 361.54 451.59 363.29 460.67 363.29C469.75 363.29 480.46 361.59 480.46 356.65V303.94H480.53C482.25 303.94 483.94 303.52 485.48 302.71V362.19V362.2ZM453.73 337.41C456.4 337.54 458.67 335.36 458.79 332.54V305.48C460.76 305.09 462.58 304.11 464.03 302.65C464.93 303.6 466 304.35 467.17 304.86V318.39C467.17 318.85 467.52 319.22 467.96 319.22C468.4 319.22 468.75 318.85 468.75 318.39V305.35C469.98 305.62 471.25 305.62 472.48 305.35V337.2C472.48 337.66 472.83 338.03 473.27 338.03C473.71 338.03 474.06 337.66 474.06 337.2V304.88C475.01 304.48 475.9 303.93 476.68 303.23C477.4 303.5 478.14 303.7 478.89 303.82V356.66C478.89 359.47 470.89 361.68 460.67 361.68C450.45 361.68 442.59 359.48 442.59 356.66V306.61H442.94C445.11 306.61 447.25 306.03 449.14 304.9V332.55C449.26 335.19 451.25 337.29 453.75 337.42L453.73 337.41ZM480.53 302.27C479.08 302.27 477.64 301.93 476.34 301.26C475.91 301.74 475.43 302.17 474.9 302.53C471.26 305.02 466.39 303.93 464.03 300.09C462.47 302.47 459.94 303.92 457.2 304.02V332.56C457.11 334.31 455.78 335.71 454.12 335.81C452.32 335.92 450.77 334.46 450.67 332.56V301.59C449.13 303.19 447.19 304.29 445.07 304.74C439.08 306.01 433.25 301.92 432.04 295.59C430.83 289.27 434.71 283.11 440.7 281.83C440.53 281.13 440.44 280.41 440.44 279.68C440.44 276.47 442.27 273.57 445.08 272.32C448.94 270.6 453.39 272.51 455.02 276.58C455.64 276.43 456.27 276.35 456.91 276.36C458.3 276.36 459.66 276.71 460.9 277.38C461.91 273.4 465.36 270.66 469.26 270.71C473.97 270.78 477.73 274.87 477.67 279.84C477.67 280.68 477.56 281.52 477.33 282.33C478.34 281.96 479.41 281.77 480.48 281.77C485.86 281.76 490.22 286.35 490.24 292.02C490.23 297.67 485.89 302.25 480.54 302.26L480.53 302.27ZM487.02 310.89H493.9C494.93 310.89 495.76 311.78 495.76 312.87V328.91C495.76 329.61 495.46 330.28 494.93 330.7L487.01 337.34V310.89H487.02ZM502.31 330.43C502.31 333.16 501.17 335.75 499.17 337.49L487.03 347.87V339.43L495.96 331.99C496.85 331.25 497.36 330.12 497.35 328.93V312.89C497.35 312.89 497.35 312.86 497.35 312.85C497.35 310.84 495.8 309.22 493.89 309.22H487.03V303.07H494.96C499.03 303.11 502.32 306.6 502.32 310.9V330.45L502.31 330.43Z" fill="white"/>
</g>
<path id="Vector_11" d="M638.46 323.2L595.6 228.62C595.6 228.62 580.78 258.43 551.14 324.11C521.5 389.79 511.86 397.45 511.86 397.45V400.42L562.19 400.56C562.19 400.56 562.29 399.19 562.19 397.44C552.41 390.34 559.31 380.66 559.31 380.66L567.9 363.88C567.9 363.88 617.6 363.82 621.02 363.82C624.44 363.82 624.98 365.8 632.23 380.85C639.48 395.9 626.75 397.2 626.75 397.2V400.57H679.8V397.2C657.64 363.89 638.46 323.2 638.46 323.2ZM573.57 342.88L595.61 287.54L617.65 342.88H573.58H573.57Z" fill="white"/>
</g>
<g id="Group_5">
<path id="Vector_12" d="M521.24 551.68C529.98 553.64 527.38 581.14 553.63 577.55C549.6 561.24 537.29 553.13 525.36 551.22C519.59 550.04 517.62 550.38 519.47 552.15C520.93 552.93 521.54 552.77 521.23 551.69L521.24 551.68Z" fill="white"/>
<path id="Vector_13" d="M572.83 670.86C551.63 661.28 537.51 681.1 533.21 693.53C546.94 694.91 562.61 689.09 569.3 672.15C570.39 671.57 571.48 672.2 572.4 673.03C569.81 673.46 571.22 676.07 573.26 675.67C574.86 675.37 577 672.74 572.85 670.87L572.83 670.86Z" fill="white"/>
<path id="Vector_14" d="M532.22 689.8C541.76 673.64 535.93 659.91 525.61 651.64C520.87 647.3 518.62 646.47 518.91 649.08C519.73 650.59 520.48 650.77 521.09 649.69C528.14 656.29 501.94 678.48 532.22 689.81V689.8Z" fill="white"/>
<path id="Vector_15" d="M558.04 699.28C538.03 688.58 521.44 706.85 515.71 718.7C529.35 721 545.68 716.39 554.33 700.31C555.52 699.82 556.55 700.51 557.31 701.36C554.71 701.61 555.79 704.2 557.91 703.95C559.5 703.77 561.95 701.36 558.04 699.26V699.28Z" fill="white"/>
<path id="Vector_16" d="M473.85 721.05C471.97 715.08 470.3 713.3 468.86 715.73C468.65 717.43 469.22 717.96 470.63 717.26C473.26 726.34 432.49 734.45 455.22 758.37C475.27 747.95 478.61 733.07 473.85 721.06V721.05Z" fill="white"/>
<path id="Vector_17" d="M546.21 663.08C551.99 645.32 543.41 632 531.66 624.95C526.12 621.21 523.8 620.66 524.64 623.28C525.76 624.76 526.48 624.87 526.86 623.64C535.08 629.4 514.46 655.75 546.21 663.07V663.08Z" fill="white"/>
<path id="Vector_18" d="M581.68 638.33C558.92 631.31 549.48 653.53 547.98 666.77C561.66 666.28 575.7 658.34 578.49 640.14C579.45 639.4 580.66 639.91 581.73 640.64C579.3 641.42 581.25 643.9 583.18 643.22C584.7 642.69 586.15 639.71 581.68 638.33Z" fill="white"/>
<path id="Vector_19" d="M419.24 779.61C410.1 780.31 398.2 785.14 387.15 792.34C376.1 785.14 364.2 780.31 355.06 779.61C341.26 771.46 312.59 762.86 300.49 781.85C298.14 785.54 302.13 786.58 303.85 785.98C306.07 785.21 305.34 782.37 302.61 783.38C302.79 782.24 303.3 781.15 304.77 781.03C320.92 789.69 336.8 788.84 348.43 783.49C350.17 783.25 351.77 783.14 353.06 783.43C363.16 785.71 372.61 790.7 380.57 796.98C367.5 807.03 356.88 820.25 355.63 833.51C356.16 834.89 356.93 836.11 357.96 837.11C359.01 838.13 360.39 838.87 362.11 839.25C364.43 839.77 367.46 839.64 371.37 838.66C368.99 828.15 375.64 814.18 387.16 802.74C398.68 814.18 405.32 828.15 402.94 838.65C406.85 839.63 409.88 839.75 412.2 839.24C413.92 838.86 415.3 838.12 416.35 837.1C417.38 836.1 418.15 834.88 418.68 833.5C417.43 820.24 406.8 807.02 393.74 796.97C401.7 790.69 411.15 785.7 421.25 783.42C422.54 783.13 424.14 783.24 425.88 783.48C437.51 788.83 453.39 789.68 469.54 781.02C471.01 781.15 471.52 782.23 471.7 783.37C468.97 782.37 468.24 785.2 470.46 785.97C472.19 786.57 476.18 785.53 473.82 781.84C461.72 762.85 433.05 771.45 419.25 779.6L419.24 779.61Z" fill="white"/>
<path id="Vector_20" d="M445.31 740.97C444.27 734.87 442.89 732.95 441.05 735.21C440.6 736.88 441.15 737.44 442.6 736.89C443.96 746.07 402.01 750.11 421.3 775.9C442.83 767.59 448.31 753.27 445.31 740.98V740.97Z" fill="white"/>
<path id="Vector_21" d="M515.13 714.96C526.62 699.88 522.51 686.09 513.1 677.31C508.89 672.75 506.7 671.75 506.68 674.32C507.32 675.85 508.02 676.1 508.77 675.08C515.09 682 485.89 701.58 515.12 714.96H515.13Z" fill="white"/>
<path id="Vector_22" d="M553.82 636.34C564.93 635.42 575.82 628.15 576.68 612.57C577.38 611.94 578.39 612.34 579.36 612.93C577.43 613.68 579.19 615.71 580.73 615.06C581.91 614.56 582.92 612.02 579.11 611.01C560.02 605.97 553.98 625.07 553.82 636.33V636.34Z" fill="white"/>
<path id="Vector_23" d="M566.51 549.25C566.87 548.34 567.99 548.39 569.1 548.76C567.68 550.06 570.16 551.57 571.28 550.47C572.13 549.63 571.89 546.68 568.02 546.87C548.24 547.82 551.62 568.7 556.62 580.09C566.27 575.8 572.81 565.13 566.52 549.26L566.51 549.25Z" fill="white"/>
<path id="Vector_24" d="M537.17 601.69C532.3 598.78 530.34 598.47 531.24 600.6C532.31 601.72 532.89 601.81 533.09 600.77C540.38 605.25 525.58 628.42 552.07 633.29C555.37 618.04 547.37 607.12 537.17 601.69Z" fill="white"/>
<path id="Vector_25" d="M489.51 738.69C504.96 724.77 503.65 710.01 495.75 699.57C492.28 694.25 490.21 692.91 489.57 695.52C489.89 697.22 490.58 697.58 491.64 696.64C496.73 704.69 461.57 720.5 489.51 738.69Z" fill="white"/>
<path id="Vector_26" d="M534.03 575.51L534.01 575.49C528.56 573.42 526.61 573.34 527.95 575.39C529.27 576.38 529.86 576.32 529.8 575.28C537.93 578.59 528.76 604.36 555.51 605.42C555.45 589.23 545.23 579.33 534.03 575.5V575.51Z" fill="white"/>
<path id="Vector_27" d="M557.85 608.32C568.46 605.77 577.4 596.77 574.88 580.62C575.42 579.86 576.5 580.1 577.5 580.6C575.83 581.63 577.94 583.45 579.28 582.58C580.36 581.88 580.77 579.09 576.9 578.62C557.26 576.18 555.56 596.67 557.85 608.32Z" fill="white"/>
<path id="Vector_28" d="M489.32 742.66C503.22 747.04 521.5 744.67 534.15 729.4C535.53 729.07 536.43 729.92 537.08 730.91C534.24 730.8 534.81 733.63 537.1 733.68C538.88 733.72 541.96 731.62 538.29 728.89C519.56 714.97 497.99 731.17 489.32 742.66Z" fill="white"/>
<path id="Vector_29" d="M453.75 762.27C466.46 769.57 485.83 771.13 503.53 758.76C505 758.72 505.66 759.76 506 760.88C503.16 760.17 502.88 763.06 505.19 763.61C506.94 764.03 510.75 762.62 507.88 759.14C493.24 741.35 466.16 752.8 453.75 762.27Z" fill="white"/>
<path id="Vector_30" d="M253.05 551.68C252.74 552.76 253.34 552.92 254.81 552.14C256.66 550.38 254.7 550.03 248.92 551.21C236.99 553.12 224.69 561.24 220.65 577.54C246.9 581.14 244.3 553.63 253.04 551.67L253.05 551.68Z" fill="white"/>
<path id="Vector_31" d="M241.09 693.54C236.78 681.11 222.66 661.29 201.47 670.87C197.32 672.75 199.45 675.36 201.06 675.68C203.1 676.07 204.5 673.47 201.92 673.04C202.84 672.21 203.93 671.58 205.02 672.16C211.7 689.1 227.38 694.91 241.11 693.54H241.09Z" fill="white"/>
<path id="Vector_32" d="M253.2 649.68C253.82 650.76 254.56 650.58 255.38 649.07C255.67 646.46 253.42 647.29 248.68 651.63C238.37 659.9 232.53 673.63 242.07 689.79C272.35 678.46 246.15 656.26 253.2 649.67V649.68Z" fill="white"/>
<path id="Vector_33" d="M258.57 718.7C252.85 706.85 236.25 688.57 216.24 699.28C212.33 701.38 214.77 703.79 216.37 703.97C218.5 704.21 219.57 701.63 216.97 701.38C217.73 700.53 218.75 699.84 219.95 700.33C228.6 716.41 244.93 721.01 258.57 718.72V718.7Z" fill="white"/>
<path id="Vector_34" d="M319.08 758.36C341.82 734.44 301.04 726.33 303.67 717.25C305.08 717.95 305.65 717.42 305.44 715.72C303.99 713.29 302.32 715.07 300.45 721.04C295.68 733.05 299.03 747.93 319.08 758.35V758.36Z" fill="white"/>
<path id="Vector_35" d="M247.44 623.65C247.82 624.88 248.54 624.78 249.66 623.29C250.5 620.66 248.19 621.22 242.64 624.96C230.89 632.01 222.32 645.33 228.09 663.09C259.83 655.77 239.21 629.42 247.44 623.66V623.65Z" fill="white"/>
<path id="Vector_36" d="M226.31 666.77C224.82 653.54 215.37 631.31 192.61 638.33C188.14 639.71 189.59 642.68 191.11 643.21C193.04 643.88 194.99 641.41 192.56 640.63C193.63 639.91 194.84 639.39 195.8 640.13C198.59 658.34 212.64 666.28 226.31 666.77Z" fill="white"/>
<path id="Vector_37" d="M352.99 775.89C372.28 750.11 330.33 746.06 331.69 736.88C333.14 737.43 333.68 736.88 333.24 735.2C331.4 732.94 330.02 734.86 328.98 740.96C325.98 753.26 331.46 767.58 352.99 775.88V775.89Z" fill="white"/>
<path id="Vector_38" d="M259.16 714.96C288.4 701.59 259.19 682.01 265.51 675.08C266.27 676.1 266.96 675.85 267.6 674.32C267.6 671.74 265.39 672.75 261.18 677.31C251.77 686.09 247.66 699.88 259.15 714.96H259.16Z" fill="white"/>
<path id="Vector_39" d="M193.57 615.06C195.11 615.71 196.87 613.68 194.94 612.93C195.91 612.34 196.92 611.94 197.62 612.57C198.48 628.15 209.38 635.41 220.48 636.34C220.32 625.08 214.28 605.97 195.19 611.02C191.38 612.03 192.39 614.57 193.57 615.07V615.06Z" fill="white"/>
<path id="Vector_40" d="M205.2 548.76C206.31 548.39 207.42 548.34 207.79 549.25C201.5 565.12 208.04 575.8 217.69 580.08C222.69 568.69 226.07 547.81 206.29 546.86C202.41 546.67 202.18 549.63 203.03 550.46C204.15 551.56 206.63 550.05 205.21 548.75L205.2 548.76Z" fill="white"/>
<path id="Vector_41" d="M241.2 600.76C241.4 601.8 241.98 601.71 243.05 600.59C243.95 598.46 241.99 598.78 237.12 601.68C226.92 607.11 218.91 618.03 222.22 633.27C248.72 628.41 233.91 605.24 241.2 600.76Z" fill="white"/>
<path id="Vector_42" d="M282.65 696.63C283.71 697.56 284.4 697.21 284.72 695.51C284.08 692.9 282.01 694.25 278.54 699.56C270.64 710.01 269.32 724.76 284.78 738.68C312.72 720.49 277.56 704.67 282.65 696.63Z" fill="white"/>
<path id="Vector_43" d="M244.49 575.28C244.43 576.32 245.02 576.38 246.34 575.39C247.68 573.33 245.73 573.42 240.28 575.49L240.26 575.51C229.06 579.35 218.84 589.25 218.78 605.43C245.54 604.37 236.36 578.6 244.49 575.29V575.28Z" fill="white"/>
<path id="Vector_44" d="M196.79 580.6C197.79 580.1 198.87 579.86 199.41 580.62C196.88 596.77 205.83 605.77 216.44 608.32C218.73 596.67 217.02 576.18 197.39 578.62C193.52 579.1 193.93 581.89 195.01 582.58C196.35 583.44 198.46 581.63 196.79 580.6Z" fill="white"/>
<path id="Vector_45" d="M284.97 742.66C276.3 731.17 254.73 714.97 236 728.89C232.34 731.61 235.42 733.71 237.19 733.68C239.48 733.63 240.05 730.8 237.21 730.91C237.86 729.93 238.75 729.08 240.14 729.4C252.79 744.66 271.07 747.04 284.97 742.66Z" fill="white"/>
<path id="Vector_46" d="M266.4 759.14C263.54 762.62 267.34 764.03 269.09 763.61C271.4 763.06 271.12 760.16 268.28 760.88C268.63 759.77 269.28 758.72 270.76 758.76C288.47 771.14 307.82 769.58 320.54 762.27C308.13 752.8 281.04 741.35 266.4 759.14Z" fill="white"/>
</g>
<path id="Vector_47" d="M406.29 508.4V711.97H367.93V553.48L343.15 562.86V522.12L373.53 508.4H406.29Z" fill="white"/>
</g>
</g>
</g>
</g>
</g>
<defs>
<clipPath id="clip0_7_289">
<rect width="2684.8" height="1063.16" fill="white"/>
</clipPath>
</defs>
<g transform="translate(1700, 460)"> <!-- Adjust the translation values as needed -->
<text x="0" y="0" font-family="Arial" font-size="100" font-weight="bold" fill="#c62828" text-anchor="middle">GAME WEEK @gw_number WINNER</text>
<text x="0" y="150" font-family="Arial" font-size="150" font-weight="bold" fill="black" text-anchor="middle">@first_place_name</text>
<text x="0" y="260" font-family="Arial" font-size="100" font-weight="bold" fill="black" text-anchor="middle">@team_name</text>
</g>
</svg>
