<?xml version="1.0" encoding="UTF-8"?>
<svg id="Layer_2" data-name="Layer 2" xmlns="http://www.w3.org/2000/svg" viewBox="0 0 489.14 156.41">
  <defs>
    <style>
      .cls-1 {
        fill: #c62828;
      }
    </style>
  </defs>
  <g id="Layer_1-2" data-name="Layer 1">
    <g>
      <path class="cls-1" d="m3.93,16.59s40.18,65.44,40.22,67.83c.18,11.74,0,44.33,0,42.95,0,0,1.66,12.39-9.32,15.19v2.38h46.93v-2.38s-9.51-1.47-9.51-15.46c0-12.16.11-35.62.13-41.55,0-.92.24-1.79.71-2.58,5.19-8.79,37.36-63.23,39.93-66.37,1.47-1.4,3.64-1.19,3.64-1.19v-3.92h-39.8v4.69s4.69-.21,4.69,2.38c-.91,3.43-23.15,42.24-23.15,42.24-4.55-7.66-17.81-35.2-20.65-41.12-.51-1.06-.09-2.35.97-2.87.68-.34,1.67-.61,3.11-.7-.07-2.66.07-4.62.07-4.62H0v3.64s3.04.02,3.93,1.47Z"/>
      <path class="cls-1" d="m115.74,144.98v-2.32s9.13-2.66,9.36-7.4c.23-4.74,0-135.26,0-135.26l91.21,95.37V23.47s-.35-8.21-7.05-7.98l.12-3.81h39.88v4.05s-9.25.23-9.36,7.75c-.12,7.51,0,132.94,0,132.94l-89.13-95.83v72.6s1.53,7.21,9.47,9.48c0,1.6.05,2.32.05,2.32h-44.54Z"/>
      <g>
        <path class="cls-1" d="m305.22,47.78s0,0-.01,0c-.34-.11-.7.1-.8.47-.47,1.6-1.66,2.85-3.17,3.35-2.54.83-5.23-.67-6.01-3.35,0,0,0,0,0,0-.11-.37-.48-.57-.82-.46-.35.12-.54.5-.44.87.6,2.02,2.1,3.61,4.02,4.24,3.23,1.07,6.67-.83,7.68-4.24,0,0,0,0,0,0,.1-.37-.09-.75-.44-.86Z"/>
        <path class="cls-1" d="m323.38,52.67c-.35-.09-.71.15-.79.52-.38,1.31-1.35,2.34-2.6,2.74-2.07.68-4.28-.55-4.92-2.74,0-.03-.02-.06-.03-.09-.13-.36-.51-.53-.85-.4-.34.14-.51.54-.37.9.52,1.72,1.79,3.07,3.42,3.61,2.77.92,5.72-.69,6.59-3.61.01-.03.02-.06.03-.09.08-.37-.14-.75-.49-.83Z"/>
        <path class="cls-1" d="m312.11,85.23c.36,0,.66-.31.66-.69v-3.36c0-.38-.29-.69-.66-.69s-.66.31-.66.69v3.36c0,.38.29.69.66.69Z"/>
        <path class="cls-1" d="m349.53,41.75c-7.64-10.82-17.97-18.78-31.02-23.9-5.85-2.22-12.67-4.35-19.81-5.38-6-.87-7.67-.97-14.23-.98h-.02s-1.85,0-1.85,0h-25.91l-.1,3.82c5.52-.23,5.81,7.98,5.81,7.98v109.87s-.29,8.19-5.81,7.96l.1,3.82h27.52l.05-.04c1.33-.02,2.62-.06,3.89-.1,7.75-.26,14.43-.91,19.98-2.01,7.39-1.43,14.01-3.7,19.81-6.81,10.47-5.67,18.58-13.58,24.37-23.69,5.77-10.09,8.66-21.49,8.66-34.18,0-13.39-3.82-25.5-11.43-36.34Zm-22.78,71.24c0,4.56-10.33,6.84-20.67,6.84s-20.67-2.28-20.67-6.84v-48.3c1.26.88,2.69,1.46,4.19,1.69v41.98c0,4.09,8.84,5.55,16.43,5.55s16.54-1.42,16.54-5.55v-44.05h.06c1.43,0,2.85-.35,4.13-1.03v49.71Zm-26.53-20.72c2.23.11,4.12-1.71,4.23-4.07v-22.61c1.65-.32,3.17-1.15,4.38-2.37.75.8,1.64,1.42,2.63,1.85v11.31c0,.38.29.69.66.69s.66-.31.66-.69v-10.9c1.03.22,2.09.22,3.12,0v26.61c0,.38.29.69.66.69s.66-.31.66-.69v-27.01c.79-.33,1.53-.8,2.19-1.38.6.23,1.22.39,1.85.49v44.16c0,2.35-6.69,4.2-15.23,4.2s-15.11-1.84-15.11-4.2v-41.83h.29c1.82,0,3.6-.49,5.18-1.43v23.11c.1,2.2,1.77,3.96,3.85,4.07Zm22.4-29.37c-1.21,0-2.41-.28-3.5-.84-.36.4-.76.76-1.2,1.06-3.04,2.08-7.11,1.17-9.08-2.04-1.3,1.99-3.42,3.2-5.71,3.28v23.85c-.08,1.46-1.19,2.63-2.57,2.72-1.51.09-2.8-1.13-2.88-2.72v-25.88c-1.28,1.34-2.91,2.25-4.68,2.63-5.01,1.06-9.88-2.36-10.89-7.64-1.01-5.29,2.23-10.43,7.24-11.5-.14-.59-.22-1.19-.22-1.79,0-2.69,1.53-5.11,3.87-6.15,3.23-1.44,6.94.16,8.31,3.56.52-.13,1.05-.19,1.58-.18,1.16,0,2.3.3,3.34.85.85-3.33,3.72-5.62,6.98-5.57,3.94.06,7.08,3.48,7.02,7.63,0,.7-.09,1.4-.28,2.08.85-.31,1.74-.47,2.63-.47,4.49-.01,8.14,3.82,8.15,8.57,0,4.72-3.63,8.55-8.11,8.56Zm5.42,7.2h5.75c.86,0,1.56.74,1.56,1.65v13.4c0,.59-.25,1.14-.69,1.5l-6.62,5.55v-22.1Zm12.77,16.33c0,2.28-.96,4.45-2.63,5.9l-10.15,8.67v-7.05l7.46-6.22c.74-.62,1.17-1.56,1.16-2.56v-13.4s0-.02,0-.04c0-1.68-1.3-3.04-2.89-3.03h-5.73v-5.14h6.63c3.4.03,6.15,2.95,6.15,6.54v16.33Z"/>
      </g>
      <path class="cls-1" d="m454.59,80.4L418.77,1.36s-12.39,24.91-37.16,79.8c-24.77,54.89-32.83,61.29-32.83,61.29v2.48l42.06.12s.09-1.15,0-2.61c-8.17-5.94-2.41-14.02-2.41-14.02l7.18-14.03s41.54-.05,44.39-.05,3.31,1.65,9.37,14.23-4.58,13.66-4.58,13.66v2.81h44.33v-2.81c-18.52-27.83-34.55-61.84-34.55-61.84Zm-54.23,16.45l18.42-46.24,18.42,46.24h-36.83Z"/>
    </g>
  </g>
</svg>