<svg id="Layer_2" data-name="Layer 2" xmlns="http://www.w3.org/2000/svg" viewBox="0 0 12000 2100">
<rect width="12000" height="1800" rx="100" fill="white"/>
<rect x="50" y="50" width="11900" height="1700" rx="50" fill="#C62828"/>
<path d="M815.798 759.486H745.336V808.849H806.308C823.218 808.802 836.97 821.833 837.027 837.97C837.027 838.087 837.027 838.204 837.027 838.329V967.065C837.093 976.647 832.528 985.722 824.65 991.661L745.344 1051.41V1119.15L853.226 1035.87C870.978 1021.94 881.237 1001.14 881.147 979.222V822.341C881.147 787.835 851.982 759.775 815.806 759.479L815.798 759.486Z" fill="#C62828" stroke="white" stroke-width="17" stroke-miterlimit="10"/>
<path d="M823.063 967.055V838.319C823.063 829.579 815.659 822.478 806.496 822.424H745.344V1034.71L815.716 981.436C820.42 978.026 823.153 972.689 823.071 967.055H823.063Z" fill="#C62828" stroke="white" stroke-width="17" stroke-miterlimit="10"/>
<path d="M687.064 766.766V1189.82C687.064 1229.42 592.305 1243.09 511.232 1243.09C430.626 1243.09 336.611 1229.06 336.611 1189.82V786.648C320.716 784.393 305.524 778.853 292.115 770.402V1234.3C292.115 1278.07 401.952 1300 511.878 1300C621.805 1300 731.642 1278.07 731.642 1234.3V756.91C717.98 763.356 702.951 766.726 687.71 766.766H687.056H687.064Z" fill="#C62828" stroke="white" stroke-width="17" stroke-miterlimit="10"/>
<path d="M353.553 788.067H350.485V1189.81C350.485 1212.45 421.037 1230.12 511.142 1230.12C601.892 1230.12 673.009 1212.36 673.009 1189.81V765.696C666.317 764.759 659.731 763.183 653.366 760.991C646.404 766.562 638.543 771.025 630.1 774.217V1033.64C630.1 1037.31 626.975 1040.3 623.122 1040.3C619.268 1040.3 616.143 1037.31 616.143 1033.64V778.033C605.214 780.163 593.94 780.163 583.003 778.033V882.712C583.003 886.387 579.877 889.368 576.024 889.368C572.171 889.368 569.046 886.387 569.046 882.712V774.131C558.583 770.058 549.085 764.018 541.125 756.371C528.256 768.099 512.082 775.996 494.584 779.102V996.263C493.479 1018.89 473.354 1036.38 449.63 1035.33C427.451 1034.34 409.707 1017.42 408.676 996.263V774.303C391.872 783.386 372.885 788.13 353.57 788.067H353.553ZM569.128 928.703C569.128 925.028 572.253 922.047 576.106 922.047C579.959 922.047 583.084 925.028 583.084 928.703V961.024C583.084 964.699 579.959 967.68 576.106 967.68C572.253 967.68 569.128 964.699 569.128 961.024V928.703Z" fill="#C62828" stroke="white" stroke-width="17" stroke-miterlimit="10"/>
<path d="M773.912 671.052C773.797 625.497 734.995 588.659 687.235 588.768C677.705 588.792 668.248 590.313 659.232 593.278C661.22 586.786 662.218 580.06 662.21 573.302C662.807 533.389 629.372 500.577 587.535 500.008C552.864 499.532 522.284 521.568 513.277 553.506C502.282 548.184 490.141 545.383 477.813 545.336C472.176 545.289 466.548 545.89 461.058 547.115C446.586 514.412 407.048 499.087 372.762 512.898C347.851 522.925 331.637 546.186 331.579 571.976C331.588 577.789 332.373 583.571 333.903 589.197C280.694 599.412 246.236 648.844 256.953 699.612C267.662 750.371 319.488 783.238 372.713 773.023C391.521 769.411 408.807 760.632 422.445 747.765V996.357C423.353 1011.63 437.072 1023.31 453.082 1022.44C467.824 1021.65 479.596 1010.42 480.431 996.357V767.296C504.753 766.539 527.258 754.85 541.117 735.779C562.109 766.625 605.337 775.403 637.684 755.38C642.363 752.486 646.666 749.06 650.487 745.19C662.087 750.566 674.825 753.328 687.718 753.266C735.282 753.164 773.806 716.419 773.912 671.052ZM507.509 616.36C496.752 649.118 460.199 667.353 425.856 657.092C405.486 651.006 389.533 635.79 383.152 616.36C382.064 612.833 384.133 609.119 387.807 608.011C391.488 606.926 395.399 608.885 396.544 612.404C396.544 612.419 396.552 612.435 396.56 612.451C404.897 638.17 433.513 652.574 460.478 644.623C476.602 639.871 489.217 627.831 494.207 612.451C495.271 608.97 499.091 606.965 502.748 607.979C502.789 607.987 502.83 608.003 502.871 608.011C506.56 609.072 508.655 612.786 507.542 616.305C507.542 616.321 507.534 616.337 507.526 616.352L507.509 616.36ZM700.84 663.858C691.53 691.902 660.14 707.438 630.738 698.558C613.411 693.322 599.847 680.377 594.358 663.858C592.967 660.432 594.75 656.569 598.342 655.243C601.933 653.916 605.983 655.618 607.374 659.043C607.496 659.34 607.594 659.644 607.668 659.956C614.483 680.993 637.88 692.776 659.936 686.276C673.132 682.39 683.456 672.535 687.53 659.956C688.397 656.374 692.144 654.143 695.899 654.97C699.654 655.797 701.994 659.371 701.127 662.952C701.053 663.265 700.955 663.569 700.832 663.865L700.84 663.858Z" fill="#C62828" stroke="white" stroke-width="17" stroke-miterlimit="10"/>
<path d="M2881.15 1300C3102.06 1300 3281.15 1120.91 3281.15 900C3281.15 679.086 3102.06 500 2881.15 500C2660.23 500 2481.15 679.086 2481.15 900C2481.15 1120.91 2660.23 1300 2881.15 1300Z" fill="white"/>
<path d="M3263.95 867.832C3249.87 699.969 3128.24 562.25 2967.41 525.064C2939.26 519.03 2910.12 515.01 2880.96 515.01C2742.25 515.01 2619.62 589.391 2552.27 699.969C2517.09 759.278 2496.98 827.625 2496.98 900C2496.98 1058.82 2594.48 1196.54 2733.2 1254.83C2778.43 1273.93 2828.7 1284.98 2881.97 1284.98C2935.24 1284.98 2984.5 1273.92 3030.74 1254.83C3167.44 1196.53 3264.96 1058.82 3264.96 900C3264.96 888.939 3264.96 878.894 3263.95 867.832ZM3170.47 679.86L3130.26 659.761C3120.2 649.707 3103.12 633.628 3084.02 620.561C3064.91 607.494 3044.82 595.435 3032.75 589.4L3000.58 556.225C3068.93 580.353 3128.23 623.574 3170.46 679.86H3170.47ZM2887.01 641.667L3022.71 597.44C3033.77 603.474 3055.89 615.534 3076.99 629.608C3098.1 644.69 3116.19 661.776 3125.24 670.823V813.56L3017.68 849.748L2887.01 755.258V641.667ZM2761.36 556.225L2730.2 588.393C2718.14 594.428 2697.02 606.487 2677.93 620.561C2658.83 634.635 2642.75 649.707 2632.69 659.761L2591.48 679.86C2633.7 623.574 2693 580.344 2761.36 556.225ZM2874.95 641.667V755.258L2744.27 849.748L2636.71 814.567V671.831C2645.76 662.784 2663.85 645.697 2684.96 629.608C2705.06 614.527 2728.18 602.467 2739.24 597.44L2874.95 641.667ZM2516.09 907.042L2538.2 947.25C2540.22 961.324 2545.24 984.445 2552.28 1006.56C2560.32 1028.67 2569.36 1049.78 2575.4 1061.85L2581.43 1107.08C2542.23 1049.79 2518.11 981.433 2516.1 907.052L2516.09 907.042ZM2724.16 1106.07L2588.46 1061.84C2582.42 1050.78 2572.38 1027.67 2563.33 1003.54C2555.29 979.408 2550.26 954.282 2549.26 941.215L2632.68 825.619L2740.24 860.8L2790.5 1013.59L2724.16 1106.07ZM2878.96 1264.88C2841.76 1264.88 2808.6 1258.85 2775.42 1248.8L2819.65 1240.76C2832.72 1242.78 2853.82 1245.79 2875.94 1245.79H2879.96C2903.08 1245.79 2926.2 1242.78 2939.26 1240.76L2984.5 1248.8C2951.32 1258.86 2916.14 1264.88 2878.96 1264.88ZM2944.29 1227.69C2932.23 1229.7 2907.1 1233.72 2880.96 1233.72C2854.83 1233.72 2829.69 1230.71 2817.63 1228.69L2733.2 1113.1L2800.55 1020.62H2961.38L3027.72 1112.09L2944.29 1227.69ZM3037.77 1106.06L2971.43 1013.58L3021.69 860.79L3129.25 825.61L3212.68 941.206C3210.66 953.265 3205.65 978.401 3198.6 1003.53C3190.57 1027.66 3179.5 1050.77 3173.48 1061.83L3037.77 1106.06ZM3179.5 1109.07L3186.54 1063.83C3192.57 1051.77 3202.61 1030.66 3209.66 1007.55C3216.69 985.433 3220.72 962.312 3223.73 949.245L3244.84 909.038C3242.82 983.419 3219.71 1051.77 3179.5 1109.07Z" fill="#C62828"/>
<path d="M5370.68 1226.86C5366.1 1272.11 5329.73 1304.61 5289.4 1299.46L4946.28 1255.57C4905.98 1250.4 4877.04 1209.57 4881.62 1164.32L4941.6 573.119C4946.2 527.871 4982.57 495.378 5022.9 500.539L5366.02 544.412C5406.33 549.581 5435.27 590.421 5430.67 635.67L5370.69 1226.86H5370.68Z" fill="#C62828" stroke="white" stroke-width="34" stroke-miterlimit="10"/>
<path d="M5127.44 1100.9C5052.04 1053.71 5006.52 965.806 5017.97 871.69C5019.14 862.17 5030.77 766.558 5033.39 744.98C5111.47 754.483 5172.65 729.213 5172.65 729.213C5172.65 729.213 5226.01 768.413 5304.08 777.916C5301.46 799.494 5289.83 895.106 5288.66 904.626C5277.21 998.75 5211.95 1073.17 5127.44 1100.91H5127.43L5127.44 1100.9Z" fill="#C62828"/>
<path d="M5128.26 1094.13C5056.7 1048.8 5013.6 964.183 5024.63 873.494C5025.75 864.325 5036.95 772.191 5039.48 751.399C5113.66 760.424 5171.83 735.982 5171.83 735.982C5171.83 735.982 5222.46 773.661 5296.63 782.686C5294.1 803.478 5282.89 895.603 5281.78 904.781C5270.75 995.479 5208.62 1067.27 5128.28 1094.14H5128.27L5128.26 1094.13Z" fill="white"/>
<path d="M5129.74 1081.95C5064.73 1039.9 5025.73 961.19 5036.01 876.663C5037.06 868.117 5047.5 782.248 5049.86 762.874C5117.35 771.087 5170.36 748.158 5170.36 748.158C5170.36 748.158 5216.33 783.128 5283.81 791.341C5281.45 810.714 5271.01 896.583 5269.97 905.129C5259.69 989.657 5202.94 1056.72 5129.75 1081.96H5129.75L5129.74 1081.95Z" fill="#C62828"/>
<path d="M5061.49 803.263C5061.49 803.263 5074.97 832.687 5074.86 833.687C5074.34 838.609 5072.61 852.231 5072.68 851.65C5072.68 851.65 5072.74 856.915 5068 857.53L5067.88 858.521L5087.51 860.914L5087.63 859.923C5087.63 859.923 5083.73 858.82 5084.44 852.975C5085.05 847.89 5086.29 838.079 5086.61 835.601C5086.66 835.217 5086.8 834.866 5087.03 834.559C5089.65 831.149 5105.88 810.006 5107.12 808.827C5107.8 808.314 5108.7 808.519 5108.7 808.519L5108.89 806.878L5092.25 804.853L5092.01 806.81C5092.01 806.81 5093.98 806.964 5093.84 808.041C5093.29 809.425 5082.01 824.534 5082.01 824.534C5080.5 821.099 5076.35 808.904 5075.46 806.28C5075.3 805.81 5075.55 805.297 5076.02 805.126C5076.32 805.024 5076.74 804.956 5077.35 804.99C5077.45 803.87 5077.62 803.058 5077.62 803.058L5060.09 800.922L5059.9 802.443C5059.9 802.443 5061.17 802.605 5061.47 803.255L5061.49 803.263Z" fill="white"/>
<path d="M5101.72 862.666L5101.84 861.692C5101.84 861.692 5105.8 861.042 5106.13 859.077C5106.47 857.111 5113.02 802.494 5113.02 802.494L5146.33 847.035L5149.98 816.954C5149.98 816.954 5150.26 813.501 5147.44 813.262L5147.67 811.672L5164.36 813.706L5164.15 815.398C5164.15 815.398 5160.27 815.022 5159.84 818.159C5159.41 821.295 5153.07 873.775 5153.07 873.775L5120.66 829.149L5116.97 859.521C5116.97 859.521 5117.24 862.615 5120.45 863.965C5120.36 864.631 5120.35 864.939 5120.35 864.939L5101.72 862.674L5101.72 862.666Z" fill="white"/>
<path d="M5185.94 831.643C5185.81 831.584 5185.64 831.643 5185.59 831.797C5185.31 832.447 5184.75 832.908 5184.09 833.036C5182.99 833.25 5181.94 832.489 5181.75 831.327C5181.72 831.165 5181.58 831.062 5181.43 831.096C5181.28 831.131 5181.18 831.276 5181.2 831.438C5181.35 832.318 5181.89 833.053 5182.66 833.421C5183.96 834.036 5185.49 833.421 5186.09 832.036C5186.15 831.891 5186.09 831.72 5185.95 831.652L5185.94 831.643Z" fill="white"/>
<path d="M5193.29 834.619C5193.15 834.567 5192.99 834.644 5192.93 834.798C5192.7 835.328 5192.25 835.704 5191.71 835.815C5190.81 835.995 5189.95 835.371 5189.8 834.422C5189.8 834.405 5189.8 834.397 5189.8 834.379C5189.76 834.226 5189.61 834.132 5189.46 834.174C5189.32 834.217 5189.23 834.371 5189.26 834.533C5189.39 835.277 5189.85 835.909 5190.51 836.217C5191.62 836.747 5192.93 836.217 5193.45 835.038C5193.45 835.029 5193.46 835.012 5193.46 835.003C5193.52 834.85 5193.45 834.687 5193.3 834.627L5193.29 834.619Z" fill="white"/>
<path d="M5186.93 847.659C5187.08 847.676 5187.22 847.565 5187.23 847.403L5187.41 845.992C5187.42 845.83 5187.32 845.685 5187.17 845.668C5187.01 845.651 5186.88 845.762 5186.86 845.924L5186.69 847.334C5186.67 847.497 5186.77 847.642 5186.93 847.659Z" fill="white"/>
<path d="M5204.79 831.379C5202.14 826.465 5198.22 822.611 5193.03 819.799C5190.7 818.569 5187.95 817.33 5185.01 816.535C5182.54 815.868 5181.85 815.74 5179.11 815.398H5179.1L5178.32 815.304L5177.59 815.219L5177.3 815.185L5167.48 813.988L5167.25 815.578C5169.56 815.757 5169.27 819.21 5169.27 819.21L5165.6 849.445L5163.68 865.178C5163.68 865.178 5163.14 868.588 5160.84 868.212L5160.69 869.81L5172.2 871.212H5172.23C5172.78 871.254 5173.33 871.306 5173.86 871.357C5177.12 871.647 5179.94 871.707 5182.32 871.528C5185.48 871.306 5188.37 870.69 5190.95 869.682C5195.62 867.844 5199.41 864.947 5202.35 861.008C5205.28 857.077 5207.07 852.453 5207.71 847.146C5208.39 841.54 5207.41 836.285 5204.78 831.362L5204.79 831.379ZM5191.63 860.025C5191.4 861.931 5186.95 862.358 5182.63 861.837C5178.3 861.307 5174.1 859.828 5174.33 857.923L5176.79 837.72C5177.28 838.156 5177.84 838.464 5178.46 838.643L5176.32 856.205C5176.12 857.914 5179.74 858.974 5182.91 859.358C5186.08 859.743 5189.9 859.606 5190.11 857.88L5192.35 839.455H5192.38C5192.98 839.532 5193.59 839.455 5194.16 839.241L5191.63 860.034V860.025ZM5181.59 850.009C5182.52 850.172 5183.4 849.505 5183.56 848.522L5184.71 839.062C5185.41 839.011 5186.1 838.746 5186.66 838.293C5186.93 838.66 5187.28 838.976 5187.67 839.199L5187.1 843.925C5187.08 844.087 5187.18 844.232 5187.34 844.249C5187.49 844.266 5187.63 844.155 5187.64 843.993L5188.2 839.429C5188.62 839.575 5189.06 839.626 5189.51 839.592L5188.15 850.727C5188.13 850.889 5188.23 851.035 5188.39 851.052C5188.54 851.069 5188.68 850.958 5188.7 850.795L5190.07 839.498C5190.42 839.395 5190.76 839.241 5191.05 839.036C5191.29 839.164 5191.54 839.258 5191.81 839.335L5189.56 857.812C5189.44 858.794 5186.55 859.23 5182.98 858.794C5179.41 858.359 5176.75 857.256 5176.87 856.273L5179 838.771L5179.12 838.788C5179.88 838.882 5180.65 838.771 5181.35 838.455L5180.18 848.121C5180.11 849.044 5180.71 849.872 5181.58 850.018L5181.59 850.009ZM5192.45 838.865C5191.94 838.806 5191.46 838.626 5191.03 838.336C5190.86 838.489 5190.67 838.618 5190.47 838.72C5189.1 839.438 5187.44 838.848 5186.78 837.404C5186.13 838.165 5185.18 838.566 5184.23 838.489L5183.01 848.471C5182.9 849.078 5182.38 849.514 5181.8 849.479C5181.17 849.437 5180.69 848.864 5180.73 848.197L5182.05 837.37C5181.44 837.865 5180.71 838.165 5179.95 838.233C5177.81 838.421 5175.94 836.746 5175.78 834.481C5175.63 832.217 5177.24 830.234 5179.4 830.037C5179.36 829.781 5179.36 829.533 5179.4 829.277C5179.53 828.157 5180.3 827.217 5181.33 826.901C5182.75 826.465 5184.23 827.32 5184.62 828.815C5184.84 828.79 5185.06 828.79 5185.29 828.815C5185.77 828.875 5186.23 829.055 5186.64 829.345C5187.16 827.995 5188.48 827.183 5189.84 827.371C5191.48 827.593 5192.63 829.183 5192.39 830.918C5192.35 831.208 5192.28 831.499 5192.17 831.772C5192.53 831.687 5192.92 831.661 5193.29 831.712C5195.17 831.935 5196.51 833.729 5196.27 835.712C5196.02 837.686 5194.31 839.105 5192.44 838.882L5192.45 838.865ZM5194.34 842.156L5196.75 842.446C5197.11 842.489 5197.37 842.839 5197.32 843.215L5196.63 848.821C5196.61 849.069 5196.47 849.283 5196.27 849.411L5193.22 851.394L5194.34 842.147V842.156ZM5198.86 849.633C5198.75 850.59 5198.23 851.445 5197.45 851.966L5192.77 855.077L5193.13 852.129L5196.57 849.907C5196.91 849.684 5197.14 849.308 5197.18 848.898L5197.87 843.292C5197.87 843.292 5197.87 843.284 5197.87 843.275C5197.95 842.574 5197.48 841.942 5196.81 841.856L5194.41 841.566L5194.68 839.412L5197.45 839.746C5198.87 839.934 5199.87 841.292 5199.69 842.796L5198.86 849.633Z" fill="white"/>
<path d="M5246.77 852.89L5235.81 818.006C5235.81 818.006 5229.36 827.799 5216.2 849.497C5203.05 871.196 5199.35 873.469 5199.35 873.469L5199.22 874.511L5216.81 876.699C5216.81 876.699 5216.91 876.22 5216.95 875.605C5213.83 872.708 5216.66 869.615 5216.66 869.615L5220.37 864.111C5220.37 864.111 5237.76 866.205 5238.95 866.35C5240.13 866.495 5240.24 867.213 5242.14 872.776C5244.04 878.348 5239.53 878.263 5239.53 878.263L5239.39 879.442L5257.93 881.698L5258.08 880.519C5251.75 867.931 5246.77 852.89 5246.77 852.89ZM5223.25 857.009L5233.3 838.601L5238.65 858.881L5223.25 857.009Z" fill="white"/>
<path d="M5193.59 948.202C5196.57 949.261 5194.49 958.764 5203.81 958.619C5203.1 952.748 5199.14 949.39 5195.05 948.21C5193.09 947.552 5192.39 947.586 5192.96 948.287C5193.44 948.62 5193.65 948.595 5193.59 948.202Z" fill="white"/>
<path d="M5206.56 992.068C5199.56 987.821 5193.77 994.145 5191.74 998.307C5196.48 999.375 5202.21 998.008 5205.27 992.367C5205.67 992.214 5206.03 992.479 5206.31 992.803C5205.39 992.846 5205.76 993.812 5206.5 993.76C5207.07 993.726 5207.92 992.897 5206.56 992.06V992.068Z" fill="white"/>
<path d="M5191.55 996.957C5195.57 991.71 5194.11 986.668 5190.87 983.335C5189.4 981.617 5188.64 981.233 5188.64 982.155C5188.86 982.719 5189.11 982.814 5189.37 982.463C5191.55 985.07 5181.45 991.718 5191.56 996.966L5191.55 996.957Z" fill="white"/>
<path d="M5200.18 1001.37C5193.64 996.786 5187.06 1002.47 5184.56 1006.37C5189.23 1007.75 5195.14 1006.84 5198.84 1001.58C5199.28 1001.46 5199.61 1001.74 5199.84 1002.08C5198.92 1002.05 5199.19 1003.01 5199.94 1003.01C5200.51 1003.01 5201.46 1002.27 5200.19 1001.37H5200.18Z" fill="white"/>
<path d="M5169.82 1005.4C5169.42 1003.23 5168.9 1002.54 5168.3 1003.32C5168.15 1003.9 5168.33 1004.12 5168.85 1003.93C5169.38 1007.21 5154.79 1008.31 5161.72 1017.65C5169.17 1014.86 5170.97 1009.8 5169.82 1005.39V1005.4Z" fill="white"/>
<path d="M5197.57 988.213C5200.35 982.248 5197.92 977.232 5194.11 974.266C5192.34 972.72 5191.55 972.429 5191.73 973.386C5192.05 973.95 5192.3 974.019 5192.49 973.608C5195.12 975.967 5186.79 984.308 5197.57 988.213Z" fill="white"/>
<path d="M5211.03 981.069C5203.38 977.643 5199.13 985.018 5198.04 989.581C5202.85 989.991 5208.09 987.812 5209.85 981.565C5210.21 981.343 5210.62 981.582 5210.96 981.873C5210.08 982.044 5210.65 982.992 5211.35 982.838C5211.91 982.719 5212.54 981.736 5211.03 981.069Z" fill="white"/>
<path d="M5148.23 1023.55C5145.01 1023.41 5140.64 1024.59 5136.47 1026.64C5132.92 1023.65 5128.96 1021.46 5125.8 1020.82C5121.32 1017.38 5111.66 1013.16 5106.62 1019.28C5105.64 1020.47 5107 1021 5107.62 1020.87C5108.43 1020.7 5108.3 1019.67 5107.3 1019.9C5107.41 1019.51 5107.63 1019.15 5108.15 1019.18C5113.43 1022.89 5119.01 1023.27 5123.31 1021.89C5123.93 1021.89 5124.49 1021.91 5124.93 1022.06C5128.37 1023.3 5131.46 1025.44 5133.98 1027.97C5128.98 1030.93 5124.7 1035.1 5123.7 1039.68C5123.83 1040.18 5124.05 1040.64 5124.36 1041.04C5124.69 1041.44 5125.14 1041.75 5125.72 1041.96C5126.51 1042.24 5127.58 1042.32 5128.99 1042.15C5128.6 1038.37 5131.52 1033.77 5136.04 1030.26C5139.57 1034.75 5141.3 1039.92 5140.03 1043.49C5141.35 1044 5142.4 1044.17 5143.24 1044.09C5143.85 1044.03 5144.37 1043.83 5144.78 1043.51C5145.18 1043.21 5145.5 1042.81 5145.74 1042.35C5145.87 1037.66 5142.72 1032.59 5138.57 1028.52C5141.62 1026.66 5145.15 1025.32 5148.77 1024.95C5149.23 1024.9 5149.79 1025.01 5150.38 1025.18C5154.22 1027.54 5159.73 1028.52 5165.75 1026.18C5166.26 1026.28 5166.39 1026.68 5166.41 1027.09C5165.49 1026.62 5165.12 1027.59 5165.86 1027.94C5166.44 1028.23 5167.88 1028.04 5167.21 1026.65C5163.79 1019.49 5153.4 1021.28 5148.23 1023.54V1023.55Z" fill="white"/>
<path d="M5158.99 1011.15C5158.89 1008.97 5158.49 1008.24 5157.74 1008.95C5157.51 1009.52 5157.68 1009.74 5158.21 1009.6C5158.3 1012.87 5143.46 1012.5 5149.11 1022.34C5156.99 1020.35 5159.52 1015.58 5158.99 1011.15Z" fill="white"/>
<path d="M5184.51 1005.03C5189.17 1000.25 5188.32 995.256 5185.4 991.786C5184.11 990.017 5183.4 989.573 5183.28 990.47C5183.44 991.034 5183.67 991.145 5183.98 990.821C5185.89 993.513 5174.85 999.11 5184.5 1005.03H5184.51Z" fill="white"/>
<path d="M5201.38 979.189C5205.3 979.343 5209.42 977.266 5210.38 971.848C5210.66 971.66 5210.99 971.848 5211.31 972.087C5210.6 972.267 5211.13 973.053 5211.69 972.891C5212.13 972.763 5212.59 971.925 5211.3 971.404C5204.84 968.831 5201.92 975.249 5201.38 979.181V979.189Z" fill="white"/>
<path d="M5209.52 949.279C5209.68 948.98 5210.08 949.039 5210.44 949.219C5209.9 949.612 5210.69 950.244 5211.14 949.911C5211.47 949.655 5211.51 948.612 5210.15 948.51C5203.19 947.997 5203.48 955.44 5204.74 959.636C5208.3 958.551 5211.04 955.09 5209.51 949.279H5209.52Z" fill="white"/>
<path d="M5197.03 966.371C5195.45 965.149 5194.78 964.952 5195 965.739C5195.33 966.174 5195.52 966.234 5195.64 965.875C5198 967.755 5191.84 975.224 5200.9 978.053C5202.7 972.866 5200.37 968.704 5197.04 966.371H5197.03Z" fill="white"/>
<path d="M5174.54 1012.24C5180.53 1008.02 5180.7 1002.81 5178.39 998.828C5177.41 996.82 5176.74 996.264 5176.4 997.144C5176.44 997.751 5176.66 997.905 5177.07 997.623C5178.51 1000.65 5165.54 1004.69 5174.54 1012.24Z" fill="white"/>
<path d="M5197.04 957.082C5195.22 956.116 5194.55 956.005 5194.93 956.783C5195.35 957.184 5195.56 957.193 5195.58 956.826C5198.28 958.33 5193.98 966.952 5203.29 968.456C5203.96 962.791 5200.8 958.902 5197.05 957.082H5197.04Z" fill="white"/>
<path d="M5203.98 969.568C5207.8 969.123 5211.31 966.363 5211.11 960.612C5211.33 960.372 5211.7 960.501 5212.03 960.714C5211.4 961.005 5212.06 961.731 5212.56 961.483C5212.97 961.287 5213.23 960.33 5211.91 959.996C5205.15 958.304 5203.68 965.397 5203.98 969.568Z" fill="white"/>
<path d="M5174.3 1013.61C5178.98 1015.73 5185.46 1015.68 5190.54 1010.89C5191.04 1010.83 5191.32 1011.17 5191.5 1011.54C5190.51 1011.37 5190.59 1012.39 5191.39 1012.5C5192 1012.59 5193.17 1011.99 5192.01 1010.88C5186.05 1005.21 5177.82 1009.96 5174.3 1013.61Z" fill="white"/>
<path d="M5161.04 1018.95C5165.18 1022.05 5171.88 1023.42 5178.59 1019.84C5179.11 1019.89 5179.29 1020.29 5179.37 1020.69C5178.41 1020.32 5178.18 1021.32 5178.97 1021.61C5179.57 1021.83 5180.95 1021.5 5180.1 1020.17C5175.74 1013.32 5165.78 1016.18 5161.04 1018.96V1018.95Z" fill="white"/>
<path d="M5099.83 936.802C5099.67 937.17 5099.88 937.247 5100.42 937.041C5101.15 936.503 5100.48 936.298 5098.41 936.469C5094.16 936.631 5089.51 938.947 5087.41 944.476C5096.43 946.852 5096.7 937.127 5099.83 936.811L5099.83 936.802Z" fill="white"/>
<path d="M5089.61 985.882C5088.64 981.352 5084.55 973.823 5076.73 976.268C5075.2 976.746 5075.83 977.754 5076.38 977.934C5077.08 978.156 5077.68 977.31 5076.79 977.045C5077.15 976.797 5077.56 976.618 5077.91 976.874C5079.52 983.079 5084.75 985.779 5089.61 985.882Z" fill="white"/>
<path d="M5095.71 971.063C5095.88 971.464 5096.14 971.439 5096.49 970.943C5096.71 970.046 5095.89 970.242 5094.04 971.558C5090.08 974.011 5087.46 978.566 5090.11 984.616C5101.18 981.941 5092.96 973.071 5095.71 971.063Z" fill="white"/>
<path d="M5094.66 995.428C5093.16 991.043 5088.14 983.942 5080.68 986.839C5079.22 987.403 5079.98 988.351 5080.53 988.48C5081.27 988.651 5081.75 987.796 5080.85 987.599C5081.15 987.335 5081.54 987.138 5081.93 987.36C5084.27 993.351 5089.79 995.65 5094.65 995.428H5094.66Z" fill="white"/>
<path d="M5114.12 1011.86C5123.09 1004.47 5109.18 999.897 5110.48 996.838C5110.94 997.137 5111.17 996.983 5111.17 996.376C5110.77 995.471 5110.11 996.018 5109.19 998.026C5107.01 1002.03 5107.55 1007.37 5114.12 1011.86H5114.12Z" fill="white"/>
<path d="M5094.8 961.722C5094.88 962.167 5095.13 962.167 5095.59 961.688C5095.99 960.808 5095.16 960.902 5093.07 961.97C5088.66 963.936 5085.09 968.226 5086.36 974.678C5097.77 973.473 5091.68 963.38 5094.8 961.714V961.722Z" fill="white"/>
<path d="M5085.59 975.891C5085.63 971.199 5083.27 963.029 5075.02 964.516C5073.39 964.807 5073.78 965.909 5074.28 966.157C5074.92 966.473 5075.72 965.695 5074.9 965.311C5075.3 965.106 5075.74 964.978 5076.05 965.277C5076.26 971.763 5080.83 975.139 5085.59 975.891Z" fill="white"/>
<path d="M5125.23 1019.43C5133.07 1011.24 5118.58 1008.04 5119.45 1004.89C5119.94 1005.14 5120.15 1004.97 5120.06 1004.37C5119.52 1003.49 5118.95 1004.11 5118.33 1006.19C5116.76 1010.37 5118.06 1015.6 5125.23 1019.42V1019.43Z" fill="white"/>
<path d="M5095.02 994.146C5105.81 990.71 5096.43 982.626 5098.93 980.472C5099.15 980.866 5099.41 980.806 5099.69 980.293C5099.79 979.396 5098.99 979.652 5097.32 981.062C5093.66 983.728 5091.63 988.377 5095.02 994.137V994.146Z" fill="white"/>
<path d="M5076.33 956.424C5076.85 956.715 5077.55 956.082 5076.9 955.74C5077.27 955.578 5077.63 955.475 5077.85 955.732C5077.49 961.218 5080.98 964.218 5084.83 965.013C5085.25 961.064 5083.96 954.134 5077.06 955.082C5075.68 955.27 5075.93 956.202 5076.33 956.433L5076.33 956.424Z" fill="white"/>
<path d="M5083.22 933.743C5083.62 933.657 5084.02 933.691 5084.1 934.025C5081.23 939.306 5083.06 943.323 5086.26 945.228C5088.49 941.46 5090.55 934.307 5083.68 933.127C5082.33 932.897 5082.13 933.922 5082.39 934.247C5082.73 934.683 5083.67 934.255 5083.23 933.743H5083.22Z" fill="white"/>
<path d="M5093.6 953.457C5093.62 953.824 5093.83 953.824 5094.25 953.474C5094.66 952.773 5093.96 952.799 5092.14 953.602C5088.33 955.064 5085.08 958.542 5085.58 964.011C5095.05 963.439 5090.86 954.705 5093.6 953.448V953.457Z" fill="white"/>
<path d="M5104.01 988.736C5104.35 989.103 5104.6 989.009 5104.78 988.428C5104.67 987.488 5103.89 987.873 5102.45 989.582C5099.25 992.898 5098.16 997.999 5102.96 1003.53C5113.51 998.358 5101.89 991.334 5104.01 988.736H5104.01Z" fill="white"/>
<path d="M5095.84 944.69C5095.77 945.049 5095.97 945.101 5096.48 944.81C5097.03 944.152 5096.35 944.092 5094.36 944.588C5090.28 945.459 5086.28 948.485 5085.57 954.142C5094.97 954.911 5092.86 945.511 5095.84 944.699L5095.84 944.69Z" fill="white"/>
<path d="M5078.93 944.518C5079.3 944.381 5079.69 944.347 5079.85 944.638C5078.27 950.176 5081.02 953.705 5084.62 955.047C5085.92 951.073 5086.2 943.835 5079.22 943.852C5077.85 943.852 5077.87 944.843 5078.22 945.133C5078.66 945.492 5079.47 944.945 5078.93 944.518Z" fill="white"/>
<path d="M5102.87 1004.92C5100.33 1000.54 5093.48 993.958 5086.33 998.025C5084.94 998.82 5085.92 999.683 5086.55 999.752C5087.35 999.829 5087.67 998.863 5086.67 998.786C5086.95 998.47 5087.29 998.213 5087.76 998.384C5091.54 1004.26 5097.83 1005.86 5102.87 1004.92Z" fill="white"/>
<path d="M5095.67 1009.89C5094.53 1010.99 5095.79 1011.65 5096.43 1011.57C5097.25 1011.48 5097.28 1010.45 5096.25 1010.58C5096.43 1010.2 5096.7 1009.87 5097.21 1009.95C5102.88 1015.03 5109.71 1015.3 5114.47 1013.3C5110.53 1009.46 5101.54 1004.31 5095.67 1009.89Z" fill="white"/>
<path d="M5200.54 902.857C5198.92 899.071 5195.92 896.294 5192.36 894.858C5188.82 893.431 5184.72 893.354 5180.94 894.961L5180 895.362C5180.35 893.14 5180.67 890.961 5180.94 888.867L5130.23 882.697C5129.99 884.8 5129.78 886.987 5129.6 889.235L5128.78 888.62C5125.49 886.15 5121.5 885.244 5117.71 885.782C5114.06 886.304 5110.58 888.167 5108.12 891.269L5107.77 891.705L5107.42 892.2C5105.29 895.362 5104.52 899.105 5105.02 902.66C5105.56 906.455 5107.53 910.044 5110.82 912.514L5126.88 924.589L5126.9 924.606L5129.15 926.298C5129.97 926.914 5130.46 927.811 5130.59 928.76C5130.73 929.708 5130.51 930.708 5129.89 931.52L5129.75 931.699C5129.16 932.409 5128.31 932.836 5127.43 932.964C5126.47 933.101 5125.47 932.879 5124.66 932.263L5121.52 936.468C5123.49 937.955 5125.9 938.502 5128.16 938.177C5130.44 937.852 5132.59 936.665 5134.09 934.682L5134.2 934.537C5137.17 940.69 5141.68 944.928 5148.28 945.732C5154.89 946.535 5160.28 943.493 5164.65 938.237L5164.72 938.408C5165.69 940.69 5167.5 942.365 5169.62 943.219C5171.75 944.074 5174.21 944.125 5176.49 943.151L5174.45 938.314C5173.51 938.716 5172.48 938.69 5171.59 938.331C5170.77 937.998 5170.05 937.374 5169.64 936.545L5169.55 936.34C5169.15 935.408 5169.18 934.383 5169.54 933.494C5169.89 932.605 5170.59 931.853 5171.53 931.443L5174.14 930.332L5174.19 930.306L5192.64 922.461C5196.41 920.855 5199.2 917.838 5200.63 914.291C5202.05 910.745 5202.14 906.651 5200.53 902.857H5200.54ZM5114 908.309C5111.88 906.711 5110.59 904.387 5110.24 901.926C5109.89 899.464 5110.47 896.866 5112.06 894.756L5112.28 894.482C5113.86 892.525 5116.1 891.337 5118.46 891.004C5120.88 890.662 5123.43 891.217 5125.53 892.756L5129.19 895.499C5128.78 903.848 5128.93 912.608 5130.16 920.47L5114 908.318V908.309ZM5195.75 912.326C5194.82 914.633 5193.02 916.59 5190.58 917.633L5171.98 925.546C5175.06 918.205 5177.3 909.736 5178.91 901.532L5183 899.798C5185.44 898.755 5188.11 898.815 5190.41 899.746C5192.72 900.678 5194.68 902.481 5195.72 904.925C5196.75 907.361 5196.69 910.027 5195.76 912.334L5195.75 912.326Z" fill="white"/>
<path d="M5145.12 971.933L5122.72 969.207L5114.41 984.333L5171.96 991.332L5167.51 974.659L5145.12 971.933Z" fill="white"/>
<path d="M5153.56 968.977C5152.19 965.909 5151.73 962.507 5152.13 958.969C5152.49 955.79 5153.53 952.509 5155.2 949.253C5152.91 949.817 5150.45 949.979 5147.82 949.654C5145.19 949.33 5142.85 948.595 5140.75 947.492C5141.6 951.056 5141.83 954.5 5141.41 957.662C5140.94 961.191 5139.69 964.387 5137.62 967.037L5153.55 968.977H5153.56Z" fill="white"/>
<path d="M7288.44 1283C7237.98 1283 7192.89 1270.41 7154.41 1245.58C7115.29 1220.34 7084.5 1184.29 7062.92 1138.4C7041.74 1093.39 7031 1040.81 7031 982.133V783.867C7031 724.854 7041.74 672.181 7062.95 627.301C7084.53 581.613 7115.3 545.657 7154.41 520.42C7192.9 495.588 7237.99 483 7288.43 483C7338.87 483 7383.96 495.588 7422.45 520.42C7461.57 545.667 7492.34 581.623 7513.92 627.301C7535.12 672.181 7545.86 724.854 7545.86 783.867V982.133C7545.86 1040.81 7535.13 1093.38 7513.94 1138.4C7492.36 1184.27 7461.58 1220.33 7422.45 1245.58C7383.97 1270.41 7338.88 1283 7288.43 1283H7288.44Z" fill="#C62828"/>
<path d="M7288.44 1240.08C7244.17 1240.08 7205.49 1229.42 7172.43 1208.08C7139.36 1186.75 7113.69 1156.67 7095.43 1117.84C7077.16 1079.03 7068.04 1033.8 7068.04 982.133V783.867C7068.04 731.89 7077.17 686.586 7095.43 647.914C7113.7 609.262 7139.36 579.261 7172.43 557.921C7205.49 536.592 7244.17 525.922 7288.44 525.922C7332.72 525.922 7371.38 536.592 7404.45 557.921C7437.51 579.261 7463.19 609.252 7481.45 647.914C7499.72 686.576 7508.84 731.89 7508.84 783.867V982.133C7508.84 1033.79 7499.71 1079.03 7481.45 1117.84C7463.18 1156.67 7437.51 1186.74 7404.45 1208.08C7371.38 1229.42 7332.71 1240.08 7288.44 1240.08ZM7288.44 1108.22C7319.43 1108.22 7344.27 1097 7362.95 1074.54C7381.62 1052.09 7390.97 1022.41 7390.97 985.515V780.516C7390.97 743.307 7381.62 713.549 7362.95 691.25C7344.27 668.961 7319.43 657.807 7288.44 657.807C7257.45 657.807 7232.61 668.961 7213.93 691.25C7195.26 713.549 7185.92 743.307 7185.92 780.516V985.515C7185.92 1022.41 7195.26 1052.09 7213.93 1074.54C7232.61 1097 7257.44 1108.22 7288.44 1108.22Z" fill="#C62828"/>
<path d="M7771.24 1283C7720.8 1283 7675.68 1271.06 7637.12 1247.49C7597.65 1223.38 7566.54 1188.83 7544.68 1144.79C7523.09 1101.32 7512.14 1050.48 7512.14 993.681V787.238C7512.14 727.66 7522.86 674.482 7543.99 629.188C7565.51 583.067 7596.07 546.706 7634.81 521.117C7673.11 495.83 7718.17 483.01 7768.75 483.01C7810.87 483.01 7850.01 493.266 7885.07 513.495C7920.06 533.684 7949.9 562.302 7973.76 598.541C7997.58 634.75 8013.86 677.43 8022.14 725.399L8031 776.74H7835.68L7827.6 746.527C7824.27 734.05 7818 725.026 7807.88 718.121C7795.43 709.642 7782.62 705.513 7768.75 705.513C7748.21 705.513 7733.28 712.095 7721.79 726.217C7709.87 740.864 7704.07 760.821 7704.07 787.238V993.681C7704.07 1014.52 7709.3 1029.71 7720.54 1041.51C7732.7 1054.28 7749.28 1060.48 7771.24 1060.48C7793.19 1060.48 7807.28 1054.19 7818.85 1040.68C7825.34 1033.09 7829.95 1023.46 7832.72 1011.58H7744.58V798.695H8027.83V978.287C8027.83 1037.84 8017.12 1091.08 7996.01 1136.52C7974.49 1182.82 7943.92 1219.28 7905.16 1244.88C7866.86 1270.17 7821.81 1282.99 7771.23 1282.99L7771.24 1283Z" fill="#C62828"/>
<path d="M7781.61 841.619H7990.82V978.288C7990.82 1030.91 7981.68 1076.86 7963.42 1116.16C7945.16 1155.46 7919.63 1185.93 7886.84 1207.6C7854.05 1229.25 7815.51 1240.08 7771.24 1240.08C7726.96 1240.08 7687.73 1229.89 7654.39 1209.52C7621.04 1189.15 7595.16 1160.43 7576.76 1123.39C7558.36 1086.33 7549.16 1043.11 7549.16 993.693V787.25C7549.16 734.637 7558.3 688.768 7576.56 649.621C7594.82 610.485 7620.35 580.08 7653.14 558.428C7685.93 536.775 7724.47 525.943 7768.74 525.943C7805.27 525.943 7838.54 534.604 7868.57 551.927C7898.59 569.249 7923.84 593.476 7944.32 624.597C7964.8 655.718 7978.63 692.139 7985.83 733.84H7862.96C7856.88 711.067 7844.77 693.502 7826.65 681.146C7808.52 668.801 7789.22 662.623 7768.74 662.623C7738.03 662.623 7713.39 674.01 7694.86 696.793C7676.31 719.576 7667.05 749.729 7667.05 787.26V993.703C7667.05 1026.75 7676.59 1053.3 7695.68 1073.35C7714.78 1093.41 7739.96 1103.43 7771.23 1103.43C7802.49 1103.43 7826.57 1092.6 7845.11 1070.95C7863.65 1049.29 7872.92 1019.05 7872.92 980.237V968.689H7781.61V841.639L7781.61 841.619Z" fill="#C62828"/>
<path d="M7288.44 1240.08C7244.16 1240.08 7205.49 1229.42 7172.43 1208.08C7139.36 1186.75 7113.69 1156.67 7095.43 1117.84C7077.16 1079.03 7068.04 1033.8 7068.04 982.133V783.867C7068.04 731.89 7077.17 686.586 7095.43 647.914C7113.7 609.262 7139.36 579.261 7172.43 557.921C7205.49 536.592 7244.16 525.922 7288.44 525.922C7332.72 525.922 7371.38 536.592 7404.45 557.921C7437.51 579.261 7463.19 609.252 7481.45 647.914C7499.72 686.576 7508.84 731.89 7508.84 783.867V982.133C7508.84 1033.79 7499.71 1079.03 7481.45 1117.84C7463.18 1156.67 7437.51 1186.74 7404.45 1208.08C7371.38 1229.42 7332.71 1240.08 7288.44 1240.08ZM7288.44 1108.22C7319.43 1108.22 7344.27 1097 7362.95 1074.54C7381.62 1052.09 7390.96 1022.41 7390.96 985.515V780.516C7390.96 743.307 7381.62 713.549 7362.95 691.25C7344.27 668.961 7319.43 657.807 7288.44 657.807C7257.45 657.807 7232.61 668.961 7213.93 691.25C7195.26 713.549 7185.91 743.307 7185.91 780.516V985.515C7185.91 1022.41 7195.26 1052.09 7213.93 1074.54C7232.61 1097 7257.44 1108.22 7288.44 1108.22Z" fill="white"/>
<path d="M7781.61 841.617H7990.82V978.286C7990.82 1030.91 7981.68 1076.86 7963.42 1116.16C7945.16 1155.46 7919.63 1185.93 7886.84 1207.59C7854.05 1229.25 7815.51 1240.08 7771.23 1240.08C7726.96 1240.08 7687.73 1229.89 7654.39 1209.52C7621.04 1189.15 7595.16 1160.43 7576.76 1123.38C7558.36 1086.33 7549.16 1043.1 7549.16 993.691V787.248C7549.16 734.635 7558.3 688.766 7576.55 649.619C7594.82 610.483 7620.35 580.078 7653.14 558.426C7685.93 536.773 7724.47 525.941 7768.74 525.941C7805.27 525.941 7838.54 534.603 7868.57 551.925C7898.59 569.247 7923.84 593.474 7944.32 624.595C7964.8 655.716 7978.63 692.137 7985.83 733.838H7862.96C7856.88 711.065 7844.77 693.5 7826.65 681.145C7808.52 668.799 7789.21 662.621 7768.74 662.621C7738.03 662.621 7713.39 674.008 7694.86 696.791C7676.31 719.574 7667.05 749.727 7667.05 787.258V993.701C7667.05 1026.75 7676.59 1053.3 7695.68 1073.35C7714.78 1093.4 7739.96 1103.43 7771.23 1103.43C7802.49 1103.43 7826.57 1092.6 7845.11 1070.94C7863.65 1049.29 7872.92 1019.05 7872.92 980.235V968.687H7781.6V841.637L7781.61 841.617Z" fill="white"/>
<path d="M9825.22 599.79L9792.68 582.009C9773.98 572.118 9752.61 570.207 9733.18 575.14C9714.24 579.935 9697.18 591.214 9686.21 607.843L9684.77 610.187C9673.89 628.033 9671.73 648.623 9677.01 667.31C9682.3 685.997 9695.06 702.806 9713.94 713.129L9857.88 791.79C9840.02 732.2 9830.17 664.647 9825.22 599.79ZM9904.98 896.717L9904.24 897.925C9894 914.612 9877.57 925.834 9859.38 930.465C9841.18 935.079 9821.01 933.143 9803.4 923.506L9824.89 888.092C9832.13 892.045 9840.55 892.821 9848.2 890.877C9855.3 889.072 9861.72 884.956 9865.93 878.912L9866.84 877.409C9871.01 870.573 9871.84 862.634 9869.81 855.447C9867.77 848.235 9862.84 841.758 9855.58 837.781L9835.54 826.828L9835.36 826.738L9692.28 748.535C9663.07 732.559 9643.35 706.677 9635.22 677.887C9627.59 650.893 9630.11 621.254 9644.41 594.816L9646.78 590.659L9649.13 586.959C9666.16 560.692 9692.65 542.985 9722 535.553C9752.33 527.867 9785.83 531.102 9815.1 547.093L9822.38 551.071C9821.64 533.552 9821.23 516.441 9821.07 500H10240.9C10240.8 516.441 10240.4 533.552 10239.6 551.071L10246.9 547.11C10276.2 531.102 10309.7 527.867 10340 535.553C10370.4 543.263 10397.7 561.934 10414.6 589.638C10431.5 617.423 10434.9 649.17 10426.8 677.887C10418.6 706.677 10398.9 732.559 10369.7 748.535L10227.1 826.46L10226.6 826.689L10206.4 837.756C10199.1 841.766 10194.2 848.243 10192.2 855.455C10190.2 862.642 10191 870.581 10195.2 877.417L10196.1 878.92C10200.3 884.964 10206.7 889.08 10213.8 890.885C10221.5 892.821 10229.9 892.053 10237.1 888.1L10258.6 923.514C10241 933.127 10220.8 935.087 10202.6 930.473C10184.4 925.842 10168 914.62 10157.8 897.917L10157 896.684C10126.6 941.442 10085.7 969.987 10031 969.987C9976.25 969.987 9935.36 941.466 9904.97 896.725L9904.98 896.717ZM10204.1 791.798L10348.1 713.17C10366.9 702.806 10379.7 686.005 10385 667.302C10390.3 648.606 10388.1 627.992 10377.3 610.13C10366.3 592.227 10348.6 580.131 10328.8 575.132C10309.1 570.126 10287.3 572.192 10268.4 582.524L10236.8 599.782C10231.9 664.647 10222 732.208 10204.1 791.79V791.798ZM10090.8 990.691C10072.6 997.225 10052.8 1000.75 10031 1000.75C10009.2 1000.75 9989.35 997.225 9971.2 990.708C9981.65 1017.43 9986.91 1043.8 9986.65 1068.65C9986.34 1096.39 9979.29 1122.2 9965.03 1144.61H10097C10082.7 1122.2 10075.7 1096.39 10075.4 1068.67C10075.1 1043.8 10080.4 1017.43 10090.8 990.699L10090.8 990.691ZM10031 1175.37H9845.59L9792.71 1300H10269.3L10216.4 1175.37H10031H10031Z" fill="#C62828" stroke="white" stroke-width="34" stroke-miterlimit="10"/>
<path d="M10038 643.861C10038 643.861 10038 643.861 10037.9 643.861C10037.3 643.665 10036.6 644.057 10036.4 644.727C10035.4 647.708 10033.1 650.044 10030.1 650.967C10025.1 652.51 10019.8 649.717 10018.3 644.727C10018.3 644.727 10018.3 644.727 10018.3 644.719C10018.1 644.041 10017.4 643.657 10016.7 643.869C10016 644.082 10015.6 644.809 10015.8 645.486C10017 649.26 10019.9 652.208 10023.7 653.392C10030.1 655.385 10036.8 651.841 10038.8 645.486C10038.8 645.486 10038.8 645.486 10038.8 645.478C10039 644.792 10038.7 644.073 10038 643.869V643.861Z" fill="white"/>
<path d="M10073.7 652.974C10073 652.811 10072.3 653.243 10072.2 653.946C10071.4 656.388 10069.5 658.299 10067.1 659.059C10063 660.316 10058.7 658.03 10057.4 653.946C10057.4 653.889 10057.4 653.823 10057.3 653.766C10057.1 653.105 10056.3 652.77 10055.7 653.031C10055 653.292 10054.7 654.036 10054.9 654.705C10055.9 657.915 10058.5 660.423 10061.7 661.444C10067.1 663.167 10072.9 660.153 10074.6 654.705C10074.7 654.648 10074.7 654.591 10074.7 654.526C10074.9 653.831 10074.4 653.137 10073.7 652.974Z" fill="white"/>
<path d="M10051.5 713.668C10052.3 713.668 10052.8 713.088 10052.8 712.377V706.105C10052.8 705.394 10052.3 704.814 10051.5 704.814C10050.8 704.814 10050.3 705.394 10050.3 706.105V712.377C10050.3 713.088 10050.8 713.668 10051.5 713.668Z" fill="white"/>
<path d="M10125.2 632.63C10110.2 612.465 10089.8 597.633 10064.1 588.068C10052.6 583.919 10039.2 579.95 10025.1 578.031C10013.3 576.414 10010 576.226 9997.1 576.201H9997.05H9993.41H9942.4L9942.21 583.315C9953.07 582.882 9953.64 598.196 9953.64 598.196V803.003C9953.64 803.003 9953.07 818.276 9942.21 817.843L9942.4 824.957H9996.58L9996.67 824.891C9999.28 824.85 10001.8 824.785 10004.3 824.695C10019.6 824.213 10032.7 822.996 10043.7 820.938C10058.2 818.276 10071.2 814.045 10082.7 808.238C10103.3 797.677 10119.2 782.927 10130.7 764.077C10142 745.267 10147.7 724.015 10147.7 700.362C10147.7 675.403 10140.2 652.836 10125.2 632.63H10125.2ZM10080.3 765.416C10080.3 773.91 10060 778.165 10039.6 778.165C10019.3 778.165 9998.95 773.91 9998.95 765.416V675.378C10001.4 677.02 10004.2 678.098 10007.2 678.531V756.783C10007.2 764.403 10024.6 767.123 10039.5 767.123C10054.5 767.123 10072.1 764.469 10072.1 756.783V674.676H10072.2C10075 674.676 10077.8 674.014 10080.3 672.765V765.416ZM10028.1 726.8C10032.5 727.005 10036.2 723.607 10036.4 719.221V677.069C10039.7 676.465 10042.7 674.937 10045.1 672.659C10046.5 674.145 10048.3 675.313 10050.2 676.105V697.177C10050.2 697.888 10050.8 698.468 10051.5 698.468C10052.2 698.468 10052.8 697.888 10052.8 697.177V676.865C10054.8 677.281 10056.9 677.281 10058.9 676.865V726.474C10058.9 727.184 10059.5 727.764 10060.2 727.764C10061 727.764 10061.5 727.184 10061.5 726.474V676.122C10063.1 675.501 10064.6 674.635 10065.8 673.557C10067 673.982 10068.2 674.292 10069.5 674.472V756.791C10069.5 761.169 10056.3 764.616 10039.5 764.616C10022.7 764.616 10009.8 761.185 10009.8 756.791V678.817H10010.3C10013.9 678.833 10017.4 677.91 10020.5 676.146V719.229C10020.7 723.337 10024 726.621 10028.1 726.809V726.8ZM10072.2 672.054C10069.8 672.062 10067.5 671.531 10065.3 670.486C10064.6 671.237 10063.8 671.899 10062.9 672.463C10057 676.35 10049 674.643 10045.1 668.657C10042.5 672.356 10038.3 674.627 10033.8 674.774V719.229C10033.7 721.957 10031.5 724.138 10028.8 724.293C10025.8 724.465 10023.3 722.194 10023.1 719.229V670.984C10020.6 673.483 10017.4 675.182 10013.9 675.885C10004 677.869 9994.42 671.491 9992.43 661.633C9990.45 651.783 9996.83 642.186 10006.7 640.201C10006.4 639.107 10006.3 637.988 10006.3 636.861C10006.3 631.854 10009.3 627.337 10013.9 625.394C10020.2 622.715 10027.6 625.688 10030.2 632.034C10031.3 631.797 10032.3 631.683 10033.3 631.691C10035.6 631.699 10037.9 632.246 10039.9 633.275C10041.6 627.076 10047.2 622.796 10053.7 622.894C10061.4 623.009 10067.6 629.371 10067.5 637.122C10067.5 638.437 10067.3 639.736 10066.9 641.002C10068.6 640.43 10070.4 640.128 10072.1 640.128C10081 640.103 10088.1 647.258 10088.2 656.095C10088.2 664.899 10081 672.03 10072.2 672.054ZM10082.9 685.481H10094.2C10095.9 685.49 10097.3 686.87 10097.3 688.569V713.553C10097.3 714.647 10096.8 715.685 10095.9 716.346L10082.9 726.686V685.481ZM10108 715.913C10108.1 720.169 10106.2 724.203 10102.9 726.907L10082.9 743.07V729.92L10097.6 718.323C10099 717.171 10099.9 715.407 10099.9 713.553V688.569C10099.9 688.569 10099.9 688.52 10099.9 688.503C10099.9 685.375 10097.3 682.843 10094.2 682.852H10082.9V673.271H10096C10102.7 673.328 10108.1 678.776 10108.1 685.473V715.921L10108 715.913Z" fill="white"/>
<g transform="translate(1500, 700)"> <!-- Adjust the translation values as needed -->
<text x="0" y="0" font-family="Arial" font-size="200" font-weight="bold" fill="white" text-anchor="middle">Beer Drank</text>
<text x="0" y="400" font-family="Arial" font-size="300" font-weight="bold" fill="white" text-anchor="middle">@litres ℓ</text>

<text x="2500" y="0" font-family="Arial" font-size="200" font-weight="bold" fill="white" text-anchor="middle">Missed Pens</text>
<text x="2500" y="400" font-family="Arial" font-size="300" font-weight="bold" fill="white" text-anchor="middle">@missed_pens</text>

<text x="4700" y="0" font-family="Arial" font-size="200" font-weight="bold" fill="white" text-anchor="middle">Red Cards</text>
<text x="4700" y="400" font-family="Arial" font-size="300" font-weight="bold" fill="white" text-anchor="middle">@red_cards</text>

<text x="7250" y="0" font-family="Arial" font-size="200" font-weight="bold" fill="white" text-anchor="middle">Own Goals</text>
<text x="7250" y="400" font-family="Arial" font-size="300" font-weight="bold" fill="white" text-anchor="middle">@own_goals</text>

<text x="9650" y="0" font-family="Arial" font-size="200" font-weight="bold" fill="white" text-anchor="middle">Nominations</text>
<text x="9650" y="400" font-family="Arial" font-size="300" font-weight="bold" fill="white" text-anchor="middle">@nominations</text>
</g>

</svg>
